%TF.GenerationSoftware,KiCad,Pcbnew,9.0.3*%
%TF.CreationDate,2025-10-28T10:03:49+01:00*%
%TF.ProjectId,PCB_Tarjeta_DevOps,5043425f-5461-4726-9a65-74615f446576,rev?*%
%TF.SameCoordinates,Original*%
%TF.FileFunction,Paste,Top*%
%TF.FilePolarity,Positive*%
%FSLAX46Y46*%
G04 Gerber Fmt 4.6, Leading zero omitted, Abs format (unit mm)*
G04 Created by KiCad (PCBNEW 9.0.3) date 2025-10-28 10:03:49*
%MOMM*%
%LPD*%
G01*
G04 APERTURE LIST*
G04 Aperture macros list*
%AMRoundRect*
0 Rectangle with rounded corners*
0 $1 Rounding radius*
0 $2 $3 $4 $5 $6 $7 $8 $9 X,Y pos of 4 corners*
0 Add a 4 corners polygon primitive as box body*
4,1,4,$2,$3,$4,$5,$6,$7,$8,$9,$2,$3,0*
0 Add four circle primitives for the rounded corners*
1,1,$1+$1,$2,$3*
1,1,$1+$1,$4,$5*
1,1,$1+$1,$6,$7*
1,1,$1+$1,$8,$9*
0 Add four rect primitives between the rounded corners*
20,1,$1+$1,$2,$3,$4,$5,0*
20,1,$1+$1,$4,$5,$6,$7,0*
20,1,$1+$1,$6,$7,$8,$9,0*
20,1,$1+$1,$8,$9,$2,$3,0*%
G04 Aperture macros list end*
%ADD10C,0.000000*%
%ADD11R,1.000000X1.500000*%
%ADD12RoundRect,0.237500X-0.237500X0.250000X-0.237500X-0.250000X0.237500X-0.250000X0.237500X0.250000X0*%
%ADD13RoundRect,0.237500X-0.300000X-0.237500X0.300000X-0.237500X0.300000X0.237500X-0.300000X0.237500X0*%
%ADD14RoundRect,0.237500X-0.250000X-0.237500X0.250000X-0.237500X0.250000X0.237500X-0.250000X0.237500X0*%
%ADD15RoundRect,0.237500X0.237500X-0.250000X0.237500X0.250000X-0.237500X0.250000X-0.237500X-0.250000X0*%
%ADD16RoundRect,0.237500X0.300000X0.237500X-0.300000X0.237500X-0.300000X-0.237500X0.300000X-0.237500X0*%
%ADD17RoundRect,0.237500X0.250000X0.237500X-0.250000X0.237500X-0.250000X-0.237500X0.250000X-0.237500X0*%
%ADD18RoundRect,0.250000X1.125000X-1.275000X1.125000X1.275000X-1.125000X1.275000X-1.125000X-1.275000X0*%
%ADD19RoundRect,0.250000X0.350000X-0.850000X0.350000X0.850000X-0.350000X0.850000X-0.350000X-0.850000X0*%
%ADD20R,0.762000X0.254000*%
%ADD21R,0.254000X0.762000*%
%ADD22R,2.590800X2.590800*%
%ADD23R,0.760000X1.670000*%
%ADD24RoundRect,0.237500X0.237500X-0.300000X0.237500X0.300000X-0.237500X0.300000X-0.237500X-0.300000X0*%
%ADD25RoundRect,0.250000X1.500000X0.650000X-1.500000X0.650000X-1.500000X-0.650000X1.500000X-0.650000X0*%
%ADD26R,0.600000X1.160000*%
%ADD27R,0.300000X1.160000*%
%ADD28RoundRect,0.150000X-0.512500X-0.150000X0.512500X-0.150000X0.512500X0.150000X-0.512500X0.150000X0*%
%ADD29RoundRect,0.150000X0.150000X-0.512500X0.150000X0.512500X-0.150000X0.512500X-0.150000X-0.512500X0*%
%ADD30RoundRect,0.250001X-0.519999X-0.649999X0.519999X-0.649999X0.519999X0.649999X-0.519999X0.649999X0*%
%ADD31RoundRect,0.075000X-0.075000X0.662500X-0.075000X-0.662500X0.075000X-0.662500X0.075000X0.662500X0*%
%ADD32RoundRect,0.075000X-0.662500X0.075000X-0.662500X-0.075000X0.662500X-0.075000X0.662500X0.075000X0*%
%ADD33RoundRect,0.175000X0.175000X-0.825000X0.175000X0.825000X-0.175000X0.825000X-0.175000X-0.825000X0*%
%ADD34RoundRect,0.071250X0.213750X-0.913750X0.213750X0.913750X-0.213750X0.913750X-0.213750X-0.913750X0*%
%ADD35RoundRect,0.150000X0.150000X-0.825000X0.150000X0.825000X-0.150000X0.825000X-0.150000X-0.825000X0*%
%ADD36RoundRect,0.237500X-0.237500X0.300000X-0.237500X-0.300000X0.237500X-0.300000X0.237500X0.300000X0*%
%ADD37RoundRect,0.250001X0.649999X-0.519999X0.649999X0.519999X-0.649999X0.519999X-0.649999X-0.519999X0*%
%ADD38RoundRect,0.250001X-0.649999X0.519999X-0.649999X-0.519999X0.649999X-0.519999X0.649999X0.519999X0*%
%ADD39RoundRect,0.090000X-0.139000X-0.090000X0.139000X-0.090000X0.139000X0.090000X-0.139000X0.090000X0*%
%ADD40RoundRect,0.150000X-0.150000X0.512500X-0.150000X-0.512500X0.150000X-0.512500X0.150000X0.512500X0*%
%ADD41RoundRect,0.090000X-0.090000X0.139000X-0.090000X-0.139000X0.090000X-0.139000X0.090000X0.139000X0*%
%ADD42RoundRect,0.237500X0.287500X0.237500X-0.287500X0.237500X-0.287500X-0.237500X0.287500X-0.237500X0*%
%ADD43RoundRect,0.075000X0.662500X0.075000X-0.662500X0.075000X-0.662500X-0.075000X0.662500X-0.075000X0*%
%ADD44RoundRect,0.075000X0.075000X0.662500X-0.075000X0.662500X-0.075000X-0.662500X0.075000X-0.662500X0*%
G04 APERTURE END LIST*
D10*
%TO.C,U701*%
G36*
X173576000Y-99766000D02*
G01*
X172480600Y-99766000D01*
X172480600Y-98670600D01*
X173576000Y-98670600D01*
X173576000Y-99766000D01*
G37*
G36*
X173576000Y-101061400D02*
G01*
X172480600Y-101061400D01*
X172480600Y-99966000D01*
X173576000Y-99966000D01*
X173576000Y-101061400D01*
G37*
G36*
X174871400Y-99766000D02*
G01*
X173776000Y-99766000D01*
X173776000Y-98670600D01*
X174871400Y-98670600D01*
X174871400Y-99766000D01*
G37*
G36*
X174871400Y-101061400D02*
G01*
X173776000Y-101061400D01*
X173776000Y-99966000D01*
X174871400Y-99966000D01*
X174871400Y-101061400D01*
G37*
%TD*%
D11*
%TO.C,D401*%
X201384000Y-235638000D03*
X198184000Y-235638000D03*
X198184000Y-240538000D03*
X201384000Y-240538000D03*
%TD*%
D12*
%TO.C,R202*%
X161236000Y-223491500D03*
X161236000Y-225316500D03*
%TD*%
D13*
%TO.C,C705*%
X158713500Y-95872000D03*
X160438500Y-95872000D03*
%TD*%
D14*
%TO.C,R701*%
X166921500Y-98850000D03*
X168746500Y-98850000D03*
%TD*%
D15*
%TO.C,R703*%
X189678000Y-104842500D03*
X189678000Y-103017500D03*
%TD*%
D16*
%TO.C,C623*%
X195608500Y-159472000D03*
X193883500Y-159472000D03*
%TD*%
D17*
%TO.C,R411*%
X205830500Y-217468000D03*
X204005500Y-217468000D03*
%TD*%
D18*
%TO.C,U201*%
X155133000Y-211533000D03*
X158183000Y-211533000D03*
X155133000Y-208183000D03*
X158183000Y-208183000D03*
D19*
X154378000Y-216158000D03*
X158938000Y-216158000D03*
%TD*%
D14*
%TO.C,R707*%
X174795500Y-103930000D03*
X176620500Y-103930000D03*
%TD*%
%TO.C,R104*%
X188511500Y-78022000D03*
X190336500Y-78022000D03*
%TD*%
D12*
%TO.C,R706*%
X191710000Y-103017500D03*
X191710000Y-104842500D03*
%TD*%
D14*
%TO.C,R605*%
X174541500Y-202482000D03*
X176366500Y-202482000D03*
%TD*%
D17*
%TO.C,R410*%
X204690500Y-204360000D03*
X202865500Y-204360000D03*
%TD*%
D20*
%TO.C,U701*%
X171707500Y-98616000D03*
X171707500Y-99115999D03*
X171707500Y-99616000D03*
X171707500Y-100116000D03*
X171707500Y-100616001D03*
X171707500Y-101116000D03*
D21*
X172426000Y-101834500D03*
X172925999Y-101834500D03*
X173426000Y-101834500D03*
X173926000Y-101834500D03*
X174426001Y-101834500D03*
X174926000Y-101834500D03*
D20*
X175644500Y-101116000D03*
X175644500Y-100616001D03*
X175644500Y-100116000D03*
X175644500Y-99616000D03*
X175644500Y-99115999D03*
X175644500Y-98616000D03*
D21*
X174926000Y-97897500D03*
X174426001Y-97897500D03*
X173926000Y-97897500D03*
X173426000Y-97897500D03*
X172925999Y-97897500D03*
X172426000Y-97897500D03*
D22*
X173676000Y-99866000D03*
%TD*%
D23*
%TO.C,T701*%
X169739000Y-89653000D03*
X171009000Y-89653000D03*
X172279000Y-89653000D03*
X173549000Y-89653000D03*
X174819000Y-89653000D03*
X176089000Y-89653000D03*
X177359000Y-89653000D03*
X178629000Y-89653000D03*
X178629000Y-81123000D03*
X177359000Y-81123000D03*
X176089000Y-81123000D03*
X174819000Y-81123000D03*
X173549000Y-81123000D03*
X172279000Y-81123000D03*
X171009000Y-81123000D03*
X169739000Y-81123000D03*
%TD*%
D24*
%TO.C,C408*%
X204664000Y-200296500D03*
X204664000Y-198571500D03*
%TD*%
D14*
%TO.C,R609*%
X170985500Y-167176000D03*
X172810500Y-167176000D03*
%TD*%
%TO.C,R613*%
X170731500Y-184956000D03*
X172556500Y-184956000D03*
%TD*%
D12*
%TO.C,R415*%
X196536000Y-224937500D03*
X196536000Y-226762500D03*
%TD*%
D15*
%TO.C,R705*%
X185360000Y-104842500D03*
X185360000Y-103017500D03*
%TD*%
D25*
%TO.C,D501*%
X143410000Y-157016000D03*
X138410000Y-157016000D03*
%TD*%
D14*
%TO.C,R413*%
X204005500Y-215436000D03*
X205830500Y-215436000D03*
%TD*%
D17*
%TO.C,R407*%
X204560500Y-209594000D03*
X202735500Y-209594000D03*
%TD*%
D24*
%TO.C,C203*%
X152092000Y-216122500D03*
X152092000Y-214397500D03*
%TD*%
D16*
%TO.C,C703*%
X171744500Y-107486000D03*
X170019500Y-107486000D03*
%TD*%
D17*
%TO.C,R417*%
X186272500Y-212896000D03*
X184447500Y-212896000D03*
%TD*%
D26*
%TO.C,J106*%
X170984000Y-244309000D03*
X171784000Y-244309000D03*
D27*
X172934000Y-244309000D03*
X173934000Y-244309000D03*
X174434000Y-244309000D03*
X175434000Y-244309000D03*
D26*
X176584000Y-244309000D03*
X177384000Y-244309000D03*
X177384000Y-244309000D03*
X176584000Y-244309000D03*
D27*
X175934000Y-244309000D03*
X174934000Y-244309000D03*
X173434000Y-244309000D03*
X172434000Y-244309000D03*
D26*
X171784000Y-244309000D03*
X170984000Y-244309000D03*
%TD*%
D28*
%TO.C,U603*%
X163140500Y-179180000D03*
X163140500Y-180130000D03*
X163140500Y-181080000D03*
X165415500Y-181080000D03*
X165415500Y-180130000D03*
X165415500Y-179180000D03*
%TD*%
D14*
%TO.C,R107*%
X188511500Y-73450000D03*
X190336500Y-73450000D03*
%TD*%
D29*
%TO.C,U302*%
X180854000Y-241465500D03*
X181804000Y-241465500D03*
X182754000Y-241465500D03*
X182754000Y-239190500D03*
X181804000Y-239190500D03*
X180854000Y-239190500D03*
%TD*%
D30*
%TO.C,Y501*%
X150746000Y-171878000D03*
X153426000Y-171878000D03*
X153426000Y-169078000D03*
X150746000Y-169078000D03*
%TD*%
D17*
%TO.C,R501*%
X143346500Y-160318000D03*
X141521500Y-160318000D03*
%TD*%
D15*
%TO.C,R712*%
X191710000Y-100778500D03*
X191710000Y-98953500D03*
%TD*%
D14*
%TO.C,R611*%
X150515000Y-184956000D03*
X152340000Y-184956000D03*
%TD*%
D12*
%TO.C,R402*%
X198184000Y-229538000D03*
X198184000Y-231363000D03*
%TD*%
D15*
%TO.C,R704*%
X187646000Y-104842500D03*
X187646000Y-103017500D03*
%TD*%
D14*
%TO.C,R604*%
X174541500Y-167176000D03*
X176366500Y-167176000D03*
%TD*%
%TO.C,R608*%
X174287500Y-184956000D03*
X176112500Y-184956000D03*
%TD*%
D24*
%TO.C,C704*%
X163640000Y-101153000D03*
X163640000Y-99428000D03*
%TD*%
D17*
%TO.C,R702*%
X168746500Y-97072000D03*
X166921500Y-97072000D03*
%TD*%
D15*
%TO.C,R414*%
X193996000Y-226762500D03*
X193996000Y-224937500D03*
%TD*%
D13*
%TO.C,C102*%
X192726000Y-74720000D03*
X194451000Y-74720000D03*
%TD*%
D31*
%TO.C,U401*%
X198016000Y-206193500D03*
X197516000Y-206193500D03*
X197016000Y-206193500D03*
X196516000Y-206193500D03*
X196016000Y-206193500D03*
X195516000Y-206193500D03*
X195016000Y-206193500D03*
X194516000Y-206193500D03*
X194016000Y-206193500D03*
X193516000Y-206193500D03*
X193016000Y-206193500D03*
X192516000Y-206193500D03*
D32*
X191103500Y-207606000D03*
X191103500Y-208106000D03*
X191103500Y-208606000D03*
X191103500Y-209106000D03*
X191103500Y-209606000D03*
X191103500Y-210106000D03*
X191103500Y-210606000D03*
X191103500Y-211106000D03*
X191103500Y-211606000D03*
X191103500Y-212106000D03*
X191103500Y-212606000D03*
X191103500Y-213106000D03*
D31*
X192516000Y-214518500D03*
X193016000Y-214518500D03*
X193516000Y-214518500D03*
X194016000Y-214518500D03*
X194516000Y-214518500D03*
X195016000Y-214518500D03*
X195516000Y-214518500D03*
X196016000Y-214518500D03*
X196516000Y-214518500D03*
X197016000Y-214518500D03*
X197516000Y-214518500D03*
X198016000Y-214518500D03*
D32*
X199428500Y-213106000D03*
X199428500Y-212606000D03*
X199428500Y-212106000D03*
X199428500Y-211606000D03*
X199428500Y-211106000D03*
X199428500Y-210606000D03*
X199428500Y-210106000D03*
X199428500Y-209606000D03*
X199428500Y-209106000D03*
X199428500Y-208606000D03*
X199428500Y-208106000D03*
X199428500Y-207606000D03*
%TD*%
D33*
%TO.C,Q401*%
X191014000Y-220946000D03*
X192914000Y-220946000D03*
X191964000Y-217546000D03*
%TD*%
D34*
%TO.C,U202*%
X152219000Y-228657000D03*
X153489000Y-228657000D03*
X154759000Y-228657000D03*
X156029000Y-228657000D03*
X156029000Y-223707000D03*
X154759000Y-223707000D03*
X153489000Y-223707000D03*
X152219000Y-223707000D03*
%TD*%
D35*
%TO.C,U301*%
X179264000Y-229152000D03*
X180534000Y-229152000D03*
X181804000Y-229152000D03*
X183074000Y-229152000D03*
X184344000Y-229152000D03*
X185614000Y-229152000D03*
X186884000Y-229152000D03*
X188154000Y-229152000D03*
X188154000Y-224202000D03*
X186884000Y-224202000D03*
X185614000Y-224202000D03*
X184344000Y-224202000D03*
X183074000Y-224202000D03*
X181804000Y-224202000D03*
X180534000Y-224202000D03*
X179264000Y-224202000D03*
%TD*%
D15*
%TO.C,R403*%
X204534000Y-231363000D03*
X204534000Y-229538000D03*
%TD*%
D24*
%TO.C,C602*%
X206281500Y-151174000D03*
X206281500Y-149449000D03*
%TD*%
D14*
%TO.C,R101*%
X148888500Y-231770000D03*
X150713500Y-231770000D03*
%TD*%
D36*
%TO.C,C302*%
X187392000Y-232941178D03*
X187392000Y-234666178D03*
%TD*%
D37*
%TO.C,Y401*%
X202508000Y-200266000D03*
X202508000Y-197586000D03*
X199708000Y-197586000D03*
X199708000Y-200266000D03*
%TD*%
D14*
%TO.C,R106*%
X188511500Y-71164000D03*
X190336500Y-71164000D03*
%TD*%
D13*
%TO.C,C501*%
X150733500Y-173848000D03*
X152458500Y-173848000D03*
%TD*%
D14*
%TO.C,R715*%
X185463500Y-88944000D03*
X187288500Y-88944000D03*
%TD*%
D36*
%TO.C,C622*%
X191444000Y-154291500D03*
X191444000Y-156016500D03*
%TD*%
%TO.C,C502*%
X155914000Y-169175500D03*
X155914000Y-170900500D03*
%TD*%
D38*
%TO.C,Y602*%
X193784000Y-154198000D03*
X193784000Y-156878000D03*
X196584000Y-156878000D03*
X196584000Y-154198000D03*
%TD*%
D39*
%TO.C,D102*%
X144795500Y-231770000D03*
X145660500Y-231770000D03*
%TD*%
D40*
%TO.C,U702*%
X181738000Y-92378500D03*
X180788000Y-92378500D03*
X179838000Y-92378500D03*
X179838000Y-94653500D03*
X180788000Y-94653500D03*
X181738000Y-94653500D03*
%TD*%
D15*
%TO.C,R709*%
X189678000Y-100778500D03*
X189678000Y-98953500D03*
%TD*%
D14*
%TO.C,R610*%
X170985500Y-202482000D03*
X172810500Y-202482000D03*
%TD*%
D41*
%TO.C,D101*%
X163268000Y-224479500D03*
X163268000Y-225344500D03*
%TD*%
D37*
%TO.C,Y601*%
X204125500Y-151143500D03*
X204125500Y-148463500D03*
X201325500Y-148463500D03*
X201325500Y-151143500D03*
%TD*%
D17*
%TO.C,R708*%
X176620500Y-105708000D03*
X174795500Y-105708000D03*
%TD*%
D13*
%TO.C,C409*%
X199737500Y-194862000D03*
X201462500Y-194862000D03*
%TD*%
D14*
%TO.C,R612*%
X189019500Y-184702000D03*
X190844500Y-184702000D03*
%TD*%
D36*
%TO.C,C407*%
X189170000Y-166417000D03*
X189170000Y-168142000D03*
%TD*%
D38*
%TO.C,Y301*%
X189548000Y-232971678D03*
X189548000Y-235651678D03*
X192348000Y-235651678D03*
X192348000Y-232971678D03*
%TD*%
D16*
%TO.C,C303*%
X192318500Y-238375678D03*
X190593500Y-238375678D03*
%TD*%
D42*
%TO.C,L601*%
X189029000Y-135680000D03*
X187279000Y-135680000D03*
%TD*%
D15*
%TO.C,R601*%
X180026000Y-157674500D03*
X180026000Y-155849500D03*
%TD*%
D25*
%TO.C,D402*%
X204664000Y-221024000D03*
X199664000Y-221024000D03*
%TD*%
D14*
%TO.C,R606*%
X154071000Y-184956000D03*
X155896000Y-184956000D03*
%TD*%
%TO.C,R714*%
X185463500Y-92500000D03*
X187288500Y-92500000D03*
%TD*%
D16*
%TO.C,C702*%
X171744500Y-105708000D03*
X170019500Y-105708000D03*
%TD*%
D15*
%TO.C,R412*%
X195012000Y-221174500D03*
X195012000Y-219349500D03*
%TD*%
D12*
%TO.C,R203*%
X158188000Y-223491500D03*
X158188000Y-225316500D03*
%TD*%
D15*
%TO.C,R711*%
X185360000Y-100778500D03*
X185360000Y-98953500D03*
%TD*%
D28*
%TO.C,U604*%
X182190500Y-197468000D03*
X182190500Y-198418000D03*
X182190500Y-199368000D03*
X184465500Y-199368000D03*
X184465500Y-198418000D03*
X184465500Y-197468000D03*
%TD*%
D14*
%TO.C,R201*%
X153465500Y-231770000D03*
X155290500Y-231770000D03*
%TD*%
%TO.C,R713*%
X185463500Y-90722000D03*
X187288500Y-90722000D03*
%TD*%
D17*
%TO.C,R409*%
X204690500Y-206362000D03*
X202865500Y-206362000D03*
%TD*%
D14*
%TO.C,R716*%
X185463500Y-87166000D03*
X187288500Y-87166000D03*
%TD*%
D13*
%TO.C,C605*%
X195419500Y-142284000D03*
X197144500Y-142284000D03*
%TD*%
D24*
%TO.C,C204*%
X161236000Y-216122500D03*
X161236000Y-214397500D03*
%TD*%
D14*
%TO.C,R607*%
X192575500Y-184702000D03*
X194400500Y-184702000D03*
%TD*%
%TO.C,R105*%
X188511500Y-75736000D03*
X190336500Y-75736000D03*
%TD*%
D37*
%TO.C,Y701*%
X161360000Y-101206000D03*
X161360000Y-98526000D03*
X158560000Y-98526000D03*
X158560000Y-101206000D03*
%TD*%
D15*
%TO.C,R408*%
X189170000Y-172256000D03*
X189170000Y-170431000D03*
%TD*%
D17*
%TO.C,R406*%
X194896500Y-202494000D03*
X193071500Y-202494000D03*
%TD*%
D15*
%TO.C,R710*%
X187646000Y-100778500D03*
X187646000Y-98953500D03*
%TD*%
D43*
%TO.C,U605*%
X184846500Y-151288000D03*
X184846500Y-150788000D03*
X184846500Y-150288000D03*
X184846500Y-149788000D03*
X184846500Y-149288000D03*
X184846500Y-148788000D03*
X184846500Y-148288000D03*
X184846500Y-147788000D03*
X184846500Y-147288000D03*
X184846500Y-146788000D03*
X184846500Y-146288000D03*
X184846500Y-145788000D03*
X184846500Y-145288000D03*
X184846500Y-144788000D03*
X184846500Y-144288000D03*
X184846500Y-143788000D03*
X184846500Y-143288000D03*
X184846500Y-142788000D03*
X184846500Y-142288000D03*
X184846500Y-141788000D03*
X184846500Y-141288000D03*
X184846500Y-140788000D03*
X184846500Y-140288000D03*
X184846500Y-139788000D03*
X184846500Y-139288000D03*
X184846500Y-138788000D03*
X184846500Y-138288000D03*
X184846500Y-137788000D03*
X184846500Y-137288000D03*
X184846500Y-136788000D03*
X184846500Y-136288000D03*
X184846500Y-135788000D03*
X184846500Y-135288000D03*
X184846500Y-134788000D03*
X184846500Y-134288000D03*
X184846500Y-133788000D03*
D44*
X182934000Y-131875500D03*
X182434000Y-131875500D03*
X181934000Y-131875500D03*
X181434000Y-131875500D03*
X180934000Y-131875500D03*
X180434000Y-131875500D03*
X179934000Y-131875500D03*
X179434000Y-131875500D03*
X178934000Y-131875500D03*
X178434000Y-131875500D03*
X177934000Y-131875500D03*
X177434000Y-131875500D03*
X176934000Y-131875500D03*
X176434000Y-131875500D03*
X175934000Y-131875500D03*
X175434000Y-131875500D03*
X174934000Y-131875500D03*
X174434000Y-131875500D03*
X173934000Y-131875500D03*
X173434000Y-131875500D03*
X172934000Y-131875500D03*
X172434000Y-131875500D03*
X171934000Y-131875500D03*
X171434000Y-131875500D03*
X170934000Y-131875500D03*
X170434000Y-131875500D03*
X169934000Y-131875500D03*
X169434000Y-131875500D03*
X168934000Y-131875500D03*
X168434000Y-131875500D03*
X167934000Y-131875500D03*
X167434000Y-131875500D03*
X166934000Y-131875500D03*
X166434000Y-131875500D03*
X165934000Y-131875500D03*
X165434000Y-131875500D03*
D43*
X163521500Y-133788000D03*
X163521500Y-134288000D03*
X163521500Y-134788000D03*
X163521500Y-135288000D03*
X163521500Y-135788000D03*
X163521500Y-136288000D03*
X163521500Y-136788000D03*
X163521500Y-137288000D03*
X163521500Y-137788000D03*
X163521500Y-138288000D03*
X163521500Y-138788000D03*
X163521500Y-139288000D03*
X163521500Y-139788000D03*
X163521500Y-140288000D03*
X163521500Y-140788000D03*
X163521500Y-141288000D03*
X163521500Y-141788000D03*
X163521500Y-142288000D03*
X163521500Y-142788000D03*
X163521500Y-143288000D03*
X163521500Y-143788000D03*
X163521500Y-144288000D03*
X163521500Y-144788000D03*
X163521500Y-145288000D03*
X163521500Y-145788000D03*
X163521500Y-146288000D03*
X163521500Y-146788000D03*
X163521500Y-147288000D03*
X163521500Y-147788000D03*
X163521500Y-148288000D03*
X163521500Y-148788000D03*
X163521500Y-149288000D03*
X163521500Y-149788000D03*
X163521500Y-150288000D03*
X163521500Y-150788000D03*
X163521500Y-151288000D03*
D44*
X165434000Y-153200500D03*
X165934000Y-153200500D03*
X166434000Y-153200500D03*
X166934000Y-153200500D03*
X167434000Y-153200500D03*
X167934000Y-153200500D03*
X168434000Y-153200500D03*
X168934000Y-153200500D03*
X169434000Y-153200500D03*
X169934000Y-153200500D03*
X170434000Y-153200500D03*
X170934000Y-153200500D03*
X171434000Y-153200500D03*
X171934000Y-153200500D03*
X172434000Y-153200500D03*
X172934000Y-153200500D03*
X173434000Y-153200500D03*
X173934000Y-153200500D03*
X174434000Y-153200500D03*
X174934000Y-153200500D03*
X175434000Y-153200500D03*
X175934000Y-153200500D03*
X176434000Y-153200500D03*
X176934000Y-153200500D03*
X177434000Y-153200500D03*
X177934000Y-153200500D03*
X178434000Y-153200500D03*
X178934000Y-153200500D03*
X179434000Y-153200500D03*
X179934000Y-153200500D03*
X180434000Y-153200500D03*
X180934000Y-153200500D03*
X181434000Y-153200500D03*
X181934000Y-153200500D03*
X182434000Y-153200500D03*
X182934000Y-153200500D03*
%TD*%
D16*
%TO.C,C101*%
X171490500Y-241852000D03*
X169765500Y-241852000D03*
%TD*%
D12*
%TO.C,R401*%
X201486000Y-229538000D03*
X201486000Y-231363000D03*
%TD*%
D13*
%TO.C,C603*%
X201355000Y-145739500D03*
X203080000Y-145739500D03*
%TD*%
D12*
%TO.C,R103*%
X182566000Y-247289500D03*
X182566000Y-249114500D03*
%TD*%
D42*
%TO.C,L701*%
X178869000Y-97326000D03*
X177119000Y-97326000D03*
%TD*%
D12*
%TO.C,R102*%
X180788000Y-247289500D03*
X180788000Y-249114500D03*
%TD*%
D15*
%TO.C,R416*%
X198822000Y-226762500D03*
X198822000Y-224937500D03*
%TD*%
D16*
%TO.C,C701*%
X171744500Y-103930000D03*
X170019500Y-103930000D03*
%TD*%
M02*
