M48
; DRILL file {KiCad 9.0.3} date 2025-10-28T10:03:44+0100
; FORMAT={-:-/ absolute / metric / decimal}
; #@! TF.CreationDate,2025-10-28T10:03:44+01:00
; #@! TF.GenerationSoftware,Kicad,Pcbnew,9.0.3
; #@! TF.FileFunction,Plated,1,2,PTH
FMAT,2
METRIC
; #@! TA.AperFunction,Plated,PTH,ViaDrill
T1C0.300
; #@! TA.AperFunction,Plated,PTH,ComponentDrill
T2C0.600
; #@! TA.AperFunction,Plated,PTH,ComponentDrill
T3C0.800
; #@! TA.AperFunction,Plated,PTH,ComponentDrill
T4C0.890
; #@! TA.AperFunction,Plated,PTH,ComponentDrill
T5C0.900
; #@! TA.AperFunction,Plated,PTH,ComponentDrill
T6C1.000
; #@! TA.AperFunction,Plated,PTH,ComponentDrill
T7C1.100
; #@! TA.AperFunction,Plated,PTH,ComponentDrill
T8C1.200
; #@! TA.AperFunction,Plated,PTH,ComponentDrill
T9C1.620
; #@! TA.AperFunction,Plated,PTH,ComponentDrill
T10C2.500
%
G90
G05
T1
X125.67Y-82.848
X125.67Y-91.484
X125.67Y-120.44
X125.67Y-157.016
X136.002Y-99.868
X136.002Y-111.208
X137.273Y-98.568
X137.273Y-112.508
X137.78Y-102.236
X137.78Y-104.268
X137.78Y-106.789
X137.78Y-108.84
X139.894Y-159.048
X140.402Y-166.668
X140.91Y-242.36
X141.337Y-97.268
X141.337Y-113.92
X142.861Y-102.236
X142.861Y-108.84
X143.052Y-97.283
X143.052Y-98.568
X143.052Y-99.868
X143.114Y-113.92
X143.226Y-112.508
X143.286Y-111.208
X144.72Y-63.544
X145.228Y-249.98
X146.498Y-104.692
X146.498Y-106.47
X146.752Y-229.914
X147.006Y-104.184
X147.006Y-106.978
X149.292Y-225.088
X150.054Y-101.644
X150.054Y-116.884
X150.562Y-137.204
X150.562Y-148.126
X150.816Y-167.43
X151.324Y-118.662
X152.086Y-149.65
X152.092Y-204.846
X152.092Y-206.624
X152.092Y-208.402
X152.092Y-210.434
X152.092Y-212.493
X152.34Y-118.662
X152.848Y-148.634
X153.102Y-105.454
X153.102Y-106.216
X153.102Y-111.296
X153.356Y-118.662
X153.61Y-147.618
X153.61Y-154.476
X153.616Y-230.5
X153.864Y-173.78
X154.372Y-118.662
X154.372Y-146.602
X154.378Y-204.846
X154.378Y-221.864
X154.626Y-100.12
X154.88Y-96.056
X155.134Y-144.316
X155.642Y-153.968
X155.896Y-113.836
X155.896Y-172.256
X156.15Y-135.934
X156.15Y-144.316
X156.15Y-152.698
X156.156Y-230.246
X156.658Y-103.168
X156.658Y-104.184
X156.658Y-105.2
X156.658Y-106.216
X156.658Y-233.216
X156.664Y-204.846
X157.166Y-135.172
X157.166Y-183.94
X157.271Y-142.03
X157.42Y-118.916
X157.928Y-160.742
X157.928Y-163.112
X157.928Y-164.636
X158.001Y-140.977
X158.182Y-134.41
X158.188Y-226.69
X158.436Y-118.916
X158.436Y-124.758
X158.69Y-140.252
X158.728Y-160.356
X158.728Y-163.112
X158.944Y-164.89
X158.95Y-204.846
X159.198Y-133.648
X159.452Y-112.82
X159.452Y-113.836
X159.452Y-114.852
X159.452Y-115.868
X159.452Y-118.916
X159.452Y-124.758
X159.96Y-166.16
X160.214Y-172.51
X160.214Y-237.534
X160.468Y-103.676
X160.468Y-118.916
X160.468Y-124.758
X160.976Y-115.36
X161.06Y-141.014
X161.23Y-142.03
X161.23Y-160.064
X161.236Y-204.846
X161.236Y-206.624
X161.236Y-208.402
X161.236Y-210.434
X161.236Y-212.466
X161.484Y-124.758
X161.484Y-140.252
X161.484Y-142.792
X161.558Y-95.872
X161.738Y-143.554
X161.738Y-180.13
X161.992Y-153.968
X161.992Y-155.238
X161.992Y-156.508
X161.992Y-157.778
X161.992Y-177.844
X162.246Y-116.846
X162.246Y-118.446
X162.246Y-139.49
X162.246Y-150.158
X162.246Y-151.428
X162.282Y-144.788
X162.754Y-176.828
X162.754Y-183.686
X163.262Y-169.462
X163.262Y-175.558
X163.268Y-223.388
X163.516Y-161.588
X163.64Y-98.462
X164.758Y-144.288
X164.786Y-150.666
X164.786Y-199.942
X165.002Y-130.346
X165.167Y-138.938
X165.294Y-141.522
X165.802Y-130.346
X166.056Y-155.492
X166.056Y-183.686
X166.564Y-128.314
X166.818Y-87.674
X166.818Y-95.802
X166.818Y-116.122
X167.326Y-128.822
X167.326Y-178.06
X167.326Y-178.86
X167.58Y-141.522
X167.58Y-198.164
X167.834Y-89.96
X167.834Y-133.14
X167.834Y-134.41
X168.088Y-196.64
X168.546Y-103.93
X168.596Y-105.708
X168.596Y-107.486
X168.596Y-141.522
X168.85Y-70.148
X169.104Y-128.314
X169.104Y-129.114
X169.104Y-130.092
X169.358Y-71.926
X169.358Y-199.942
X169.612Y-141.522
X169.612Y-159.81
X169.612Y-160.61
X170.12Y-73.958
X170.12Y-75.228
X170.12Y-98.342
X170.12Y-102.66
X170.628Y-68.37
X170.628Y-94.786
X170.628Y-130.6
X170.628Y-141.522
X170.882Y-135.172
X170.882Y-151.428
X170.882Y-155.746
X171.136Y-87.928
X171.136Y-133.14
X171.364Y-220.438
X171.644Y-145.078
X171.689Y-155.038
X171.898Y-102.66
X171.898Y-135.172
X172.152Y-141.522
X172.34Y-92.297
X172.34Y-93.147
X172.66Y-68.37
X172.66Y-109.772
X172.66Y-154.984
X172.826Y-102.914
X172.914Y-73.958
X173.168Y-242.614
X173.422Y-79.038
X173.422Y-128.568
X173.422Y-129.838
X173.676Y-154.984
X173.93Y-141.014
X174.184Y-91.738
X174.184Y-109.772
X174.438Y-220.516
X174.526Y-102.914
X174.692Y-68.37
X174.692Y-135.172
X174.692Y-195.37
X174.692Y-229.152
X174.899Y-95.247
X174.946Y-141.014
X174.946Y-154.984
X174.946Y-225.85
X174.946Y-242.614
X174.985Y-226.827
X175.434Y-130.346
X175.454Y-79.038
X175.454Y-96.818
X175.501Y-95.849
X176.216Y-133.14
X176.216Y-147.872
X176.47Y-112.82
X176.47Y-141.522
X176.47Y-241.813
X176.713Y-91.397
X176.724Y-73.958
X176.724Y-75.228
X176.724Y-150.412
X176.724Y-154.476
X176.724Y-178.098
X176.724Y-181.4
X176.978Y-126.028
X177.232Y-87.928
X177.74Y-162.604
X177.74Y-200.704
X177.994Y-73.958
X177.994Y-104.438
X177.994Y-105.708
X177.994Y-126.028
X178.502Y-161.842
X178.597Y-151.936
X178.756Y-79.038
X178.756Y-100.628
X178.756Y-101.644
X178.756Y-103.93
X179.01Y-128.568
X179.264Y-125.52
X179.264Y-222.802
X179.264Y-227.628
X179.518Y-105.708
X179.518Y-118.408
X179.518Y-151.936
X179.518Y-161.842
X179.772Y-80.816
X179.772Y-135.172
X180.026Y-89.452
X180.026Y-104.946
X180.026Y-128.568
X180.026Y-159.048
X180.788Y-91.362
X180.788Y-95.68
X181.042Y-128.568
X181.042Y-198.418
X181.55Y-245.408
X181.804Y-86.404
X181.804Y-91.23
X181.804Y-125.52
X181.804Y-138.474
X181.804Y-139.49
X181.804Y-140.506
X181.804Y-141.522
X181.804Y-150.158
X181.804Y-165.652
X181.804Y-188.004
X181.804Y-240.303
X182.058Y-111.55
X182.058Y-118.408
X182.058Y-130.6
X182.215Y-161.954
X182.312Y-79.038
X182.312Y-80.308
X182.312Y-109.01
X182.566Y-178.86
X182.693Y-110.915
X182.736Y-183.94
X182.82Y-157.778
X182.82Y-159.048
X183.074Y-109.518
X183.074Y-133.394
X183.074Y-145.332
X183.074Y-146.348
X183.074Y-147.364
X183.074Y-230.676
X183.328Y-75.736
X183.328Y-129.076
X183.328Y-144.316
X183.582Y-135.934
X183.836Y-154.73
X184.09Y-100.628
X184.09Y-125.52
X184.598Y-118.408
X184.852Y-157.778
X184.852Y-159.048
X184.936Y-183.432
X185.36Y-101.898
X185.614Y-175.05
X185.614Y-230.676
X185.868Y-178.86
X186.122Y-135.426
X186.122Y-136.95
X186.122Y-148.888
X186.364Y-143.288
X186.376Y-211.626
X186.63Y-132.124
X186.884Y-74.72
X186.884Y-144.57
X187.138Y-155.746
X187.138Y-177.336
X187.392Y-236.09
X187.608Y-210.102
X187.646Y-101.898
X187.977Y-142.234
X188.154Y-202.482
X188.154Y-219.246
X188.408Y-128.822
X188.408Y-141.395
X188.662Y-111.804
X188.662Y-112.82
X188.662Y-114.344
X188.916Y-94.278
X189.043Y-143.3
X189.17Y-125.266
X189.17Y-165.398
X189.17Y-238.376
X189.208Y-210.102
X189.208Y-211.626
X189.424Y-207.562
X189.678Y-101.898
X189.678Y-142.665
X189.932Y-206.292
X190.186Y-128.822
X190.186Y-137.966
X190.44Y-125.266
X190.642Y-139.288
X190.694Y-205.784
X191.202Y-213.658
X191.444Y-157.186
X191.456Y-93.516
X191.71Y-101.898
X191.71Y-191.814
X192.218Y-116.63
X192.218Y-126.282
X192.218Y-128.568
X192.472Y-211.626
X192.714Y-159.472
X192.98Y-224.834
X193.488Y-209.594
X193.516Y-205.05
X193.732Y-96.31
X193.742Y-104.692
X193.742Y-190.036
X193.956Y-114.344
X193.996Y-212.896
X193.996Y-215.944
X193.996Y-222.294
X194.25Y-207.308
X194.25Y-217.722
X194.504Y-204.806
X194.796Y-215.944
X195.266Y-229.914
X195.516Y-204.806
X195.738Y-216.006
X195.764Y-96.31
X195.764Y-104.682
X195.774Y-74.72
X195.774Y-151.936
X195.988Y-114.344
X196.028Y-202.482
X196.282Y-165.652
X196.282Y-211.626
X196.536Y-196.64
X196.536Y-204.806
X196.536Y-209.594
X196.536Y-212.896
X196.536Y-215.944
X196.536Y-219.246
X197.401Y-226.762
X197.552Y-204.806
X197.796Y-96.31
X197.806Y-104.692
X197.806Y-159.556
X197.806Y-160.572
X197.806Y-161.588
X197.806Y-162.604
X197.806Y-186.48
X197.806Y-209.086
X198.016Y-215.69
X198.02Y-114.344
X198.06Y-197.656
X198.184Y-241.974
X198.35Y-208.106
X198.568Y-167.43
X198.568Y-194.862
X198.822Y-206.038
X198.822Y-217.976
X198.822Y-223.31
X199.33Y-153.398
X199.33Y-154.998
X199.33Y-162.604
X199.33Y-165.398
X199.33Y-207.054
X199.838Y-96.31
X199.838Y-104.692
X200.092Y-114.344
X200.092Y-226.866
X200.6Y-106.216
X200.854Y-212.896
X201.08Y-212.106
X201.362Y-228.39
X201.616Y-202.228
X201.616Y-204.514
X201.616Y-206.546
X202.124Y-215.436
X202.886Y-152.952
X202.886Y-194.862
X203.394Y-63.544
X203.394Y-249.98
X204.156Y-143.808
X204.504Y-145.739
X204.664Y-165.652
X204.664Y-197.148
X205.172Y-128.06
X205.426Y-163.874
X205.426Y-209.594
X206.188Y-128.06
X206.188Y-163.112
X206.281Y-148.025
X206.696Y-155.746
X206.95Y-162.35
X206.95Y-215.436
X207.204Y-128.06
X207.712Y-161.588
X207.966Y-143.808
X207.966Y-242.868
X208.22Y-128.06
X209.744Y-137.204
X209.744Y-139.49
X210.76Y-139.49
X211.776Y-139.49
X212.538Y-142.03
X212.792Y-139.49
X213.046Y-105.395
X219.396Y-119.932
X222.698Y-91.23
X222.952Y-82.848
X222.952Y-119.932
T3
X148.276Y-157.016
X148.276Y-164.636
X150.816Y-157.016
X150.816Y-164.636
X153.356Y-157.016
X153.356Y-164.636
X155.896Y-157.016
X155.896Y-164.636
T4
X167.326Y-76.752
X169.612Y-76.752
X170.628Y-70.148
X171.644Y-71.926
X172.66Y-70.148
X173.676Y-71.926
X174.692Y-70.148
X175.708Y-71.926
X176.724Y-70.148
X177.74Y-71.926
X178.756Y-76.752
X181.042Y-76.752
T5
X171.684Y-233.844
X171.684Y-237.144
X174.184Y-233.844
X174.184Y-237.144
X176.684Y-233.844
X176.684Y-237.144
T6
X140.326Y-132.138
X140.326Y-152.938
X143.426Y-132.138
X143.426Y-152.938
X145.483Y-221.185
X145.483Y-223.725
X145.483Y-226.265
X168.084Y-120.895
X168.084Y-120.895
X170.624Y-120.895
X170.624Y-120.895
X173.164Y-120.895
X173.164Y-120.895
X174.184Y-158.027
X174.184Y-160.567
X175.704Y-120.895
X175.704Y-120.895
X178.244Y-120.895
X178.244Y-120.895
X180.784Y-120.895
X180.784Y-120.895
X183.324Y-120.895
X183.324Y-120.895
X183.582Y-216.706
X185.864Y-120.895
X185.864Y-120.895
X186.122Y-216.706
X188.404Y-120.895
X188.404Y-120.895
X190.944Y-120.895
X190.944Y-120.895
X193.484Y-120.895
X193.484Y-120.895
X196.024Y-120.895
X196.024Y-120.895
X198.564Y-120.895
X198.564Y-120.895
X201.104Y-120.895
X201.104Y-120.895
X203.644Y-120.895
X203.644Y-120.895
X206.184Y-120.895
X206.184Y-120.895
T7
X128.769Y-94.108
X128.769Y-96.648
X128.769Y-99.188
X128.769Y-101.728
X128.769Y-104.268
X128.769Y-106.808
X128.769Y-109.348
X128.769Y-111.888
X128.769Y-114.428
X128.769Y-116.968
X150.666Y-187.532
X150.666Y-192.032
X157.166Y-187.532
X157.166Y-192.032
X170.934Y-187.532
X170.934Y-192.032
X170.934Y-205.312
X170.934Y-209.812
X171.188Y-169.752
X171.188Y-174.252
X177.434Y-187.532
X177.434Y-192.032
X177.434Y-205.312
X177.434Y-209.812
X177.688Y-169.752
X177.688Y-174.252
X189.476Y-187.532
X189.476Y-192.032
X194.032Y-132.938
X194.032Y-139.438
X195.976Y-187.532
X195.976Y-192.032
X198.532Y-132.938
X198.532Y-139.438
X219.611Y-94.108
X219.611Y-96.648
X219.611Y-99.188
X219.611Y-101.728
X219.611Y-104.268
X219.611Y-106.808
X219.611Y-109.348
X219.611Y-111.888
X219.611Y-114.428
X219.611Y-116.968
T8
X168.084Y-120.895
X170.624Y-120.895
X173.164Y-120.895
X175.704Y-120.895
X178.244Y-120.895
X180.784Y-120.895
X183.324Y-120.895
X185.864Y-120.895
X188.404Y-120.895
X190.944Y-120.895
X193.484Y-120.895
X196.024Y-120.895
X198.564Y-120.895
X201.104Y-120.895
X203.644Y-120.895
X206.184Y-120.895
T9
X166.056Y-71.037
X182.312Y-71.037
T10
X136.684Y-120.895
X136.685Y-89.895
X211.683Y-89.895
X211.683Y-120.895
T2
G00X169.864Y-245.439
M15
G01X169.864Y-244.339
M16
G05
G00X169.864Y-249.459
M15
G01X169.864Y-248.659
M16
G05
G00X178.504Y-245.439
M15
G01X178.504Y-244.339
M16
G05
G00X178.504Y-249.459
M15
G01X178.504Y-248.659
M16
G05
M30
