%TF.GenerationSoftware,KiCad,Pcbnew,9.0.3*%
%TF.CreationDate,2025-10-29T18:24:37+01:00*%
%TF.ProjectId,PCB_Tarjeta_DevOps,5043425f-5461-4726-9a65-74615f446576,rev?*%
%TF.SameCoordinates,Original*%
%TF.FileFunction,Legend,Bot*%
%TF.FilePolarity,Positive*%
%FSLAX46Y46*%
G04 Gerber Fmt 4.6, Leading zero omitted, Abs format (unit mm)*
G04 Created by KiCad (PCBNEW 9.0.3) date 2025-10-29 18:24:37*
%MOMM*%
%LPD*%
G01*
G04 APERTURE LIST*
%ADD10C,0.250000*%
%ADD11C,0.150000*%
%ADD12C,0.120000*%
%ADD13C,0.127000*%
%ADD14C,0.200000*%
G04 APERTURE END LIST*
D10*
X145228000Y-232708000D02*
X166056000Y-232708000D01*
X166056000Y-243376000D01*
X145228000Y-243376000D01*
X145228000Y-232708000D01*
D11*
X189273047Y-135277580D02*
X189320666Y-135325200D01*
X189320666Y-135325200D02*
X189463523Y-135372819D01*
X189463523Y-135372819D02*
X189558761Y-135372819D01*
X189558761Y-135372819D02*
X189701618Y-135325200D01*
X189701618Y-135325200D02*
X189796856Y-135229961D01*
X189796856Y-135229961D02*
X189844475Y-135134723D01*
X189844475Y-135134723D02*
X189892094Y-134944247D01*
X189892094Y-134944247D02*
X189892094Y-134801390D01*
X189892094Y-134801390D02*
X189844475Y-134610914D01*
X189844475Y-134610914D02*
X189796856Y-134515676D01*
X189796856Y-134515676D02*
X189701618Y-134420438D01*
X189701618Y-134420438D02*
X189558761Y-134372819D01*
X189558761Y-134372819D02*
X189463523Y-134372819D01*
X189463523Y-134372819D02*
X189320666Y-134420438D01*
X189320666Y-134420438D02*
X189273047Y-134468057D01*
X188415904Y-134372819D02*
X188606380Y-134372819D01*
X188606380Y-134372819D02*
X188701618Y-134420438D01*
X188701618Y-134420438D02*
X188749237Y-134468057D01*
X188749237Y-134468057D02*
X188844475Y-134610914D01*
X188844475Y-134610914D02*
X188892094Y-134801390D01*
X188892094Y-134801390D02*
X188892094Y-135182342D01*
X188892094Y-135182342D02*
X188844475Y-135277580D01*
X188844475Y-135277580D02*
X188796856Y-135325200D01*
X188796856Y-135325200D02*
X188701618Y-135372819D01*
X188701618Y-135372819D02*
X188511142Y-135372819D01*
X188511142Y-135372819D02*
X188415904Y-135325200D01*
X188415904Y-135325200D02*
X188368285Y-135277580D01*
X188368285Y-135277580D02*
X188320666Y-135182342D01*
X188320666Y-135182342D02*
X188320666Y-134944247D01*
X188320666Y-134944247D02*
X188368285Y-134849009D01*
X188368285Y-134849009D02*
X188415904Y-134801390D01*
X188415904Y-134801390D02*
X188511142Y-134753771D01*
X188511142Y-134753771D02*
X188701618Y-134753771D01*
X188701618Y-134753771D02*
X188796856Y-134801390D01*
X188796856Y-134801390D02*
X188844475Y-134849009D01*
X188844475Y-134849009D02*
X188892094Y-134944247D01*
X187939713Y-134468057D02*
X187892094Y-134420438D01*
X187892094Y-134420438D02*
X187796856Y-134372819D01*
X187796856Y-134372819D02*
X187558761Y-134372819D01*
X187558761Y-134372819D02*
X187463523Y-134420438D01*
X187463523Y-134420438D02*
X187415904Y-134468057D01*
X187415904Y-134468057D02*
X187368285Y-134563295D01*
X187368285Y-134563295D02*
X187368285Y-134658533D01*
X187368285Y-134658533D02*
X187415904Y-134801390D01*
X187415904Y-134801390D02*
X187987332Y-135372819D01*
X187987332Y-135372819D02*
X187368285Y-135372819D01*
X186415904Y-135372819D02*
X186987332Y-135372819D01*
X186701618Y-135372819D02*
X186701618Y-134372819D01*
X186701618Y-134372819D02*
X186796856Y-134515676D01*
X186796856Y-134515676D02*
X186892094Y-134610914D01*
X186892094Y-134610914D02*
X186987332Y-134658533D01*
X168193580Y-131512952D02*
X168241200Y-131465333D01*
X168241200Y-131465333D02*
X168288819Y-131322476D01*
X168288819Y-131322476D02*
X168288819Y-131227238D01*
X168288819Y-131227238D02*
X168241200Y-131084381D01*
X168241200Y-131084381D02*
X168145961Y-130989143D01*
X168145961Y-130989143D02*
X168050723Y-130941524D01*
X168050723Y-130941524D02*
X167860247Y-130893905D01*
X167860247Y-130893905D02*
X167717390Y-130893905D01*
X167717390Y-130893905D02*
X167526914Y-130941524D01*
X167526914Y-130941524D02*
X167431676Y-130989143D01*
X167431676Y-130989143D02*
X167336438Y-131084381D01*
X167336438Y-131084381D02*
X167288819Y-131227238D01*
X167288819Y-131227238D02*
X167288819Y-131322476D01*
X167288819Y-131322476D02*
X167336438Y-131465333D01*
X167336438Y-131465333D02*
X167384057Y-131512952D01*
X167288819Y-132370095D02*
X167288819Y-132179619D01*
X167288819Y-132179619D02*
X167336438Y-132084381D01*
X167336438Y-132084381D02*
X167384057Y-132036762D01*
X167384057Y-132036762D02*
X167526914Y-131941524D01*
X167526914Y-131941524D02*
X167717390Y-131893905D01*
X167717390Y-131893905D02*
X168098342Y-131893905D01*
X168098342Y-131893905D02*
X168193580Y-131941524D01*
X168193580Y-131941524D02*
X168241200Y-131989143D01*
X168241200Y-131989143D02*
X168288819Y-132084381D01*
X168288819Y-132084381D02*
X168288819Y-132274857D01*
X168288819Y-132274857D02*
X168241200Y-132370095D01*
X168241200Y-132370095D02*
X168193580Y-132417714D01*
X168193580Y-132417714D02*
X168098342Y-132465333D01*
X168098342Y-132465333D02*
X167860247Y-132465333D01*
X167860247Y-132465333D02*
X167765009Y-132417714D01*
X167765009Y-132417714D02*
X167717390Y-132370095D01*
X167717390Y-132370095D02*
X167669771Y-132274857D01*
X167669771Y-132274857D02*
X167669771Y-132084381D01*
X167669771Y-132084381D02*
X167717390Y-131989143D01*
X167717390Y-131989143D02*
X167765009Y-131941524D01*
X167765009Y-131941524D02*
X167860247Y-131893905D01*
X167288819Y-133084381D02*
X167288819Y-133179619D01*
X167288819Y-133179619D02*
X167336438Y-133274857D01*
X167336438Y-133274857D02*
X167384057Y-133322476D01*
X167384057Y-133322476D02*
X167479295Y-133370095D01*
X167479295Y-133370095D02*
X167669771Y-133417714D01*
X167669771Y-133417714D02*
X167907866Y-133417714D01*
X167907866Y-133417714D02*
X168098342Y-133370095D01*
X168098342Y-133370095D02*
X168193580Y-133322476D01*
X168193580Y-133322476D02*
X168241200Y-133274857D01*
X168241200Y-133274857D02*
X168288819Y-133179619D01*
X168288819Y-133179619D02*
X168288819Y-133084381D01*
X168288819Y-133084381D02*
X168241200Y-132989143D01*
X168241200Y-132989143D02*
X168193580Y-132941524D01*
X168193580Y-132941524D02*
X168098342Y-132893905D01*
X168098342Y-132893905D02*
X167907866Y-132846286D01*
X167907866Y-132846286D02*
X167669771Y-132846286D01*
X167669771Y-132846286D02*
X167479295Y-132893905D01*
X167479295Y-132893905D02*
X167384057Y-132941524D01*
X167384057Y-132941524D02*
X167336438Y-132989143D01*
X167336438Y-132989143D02*
X167288819Y-133084381D01*
X167288819Y-134274857D02*
X167288819Y-134084381D01*
X167288819Y-134084381D02*
X167336438Y-133989143D01*
X167336438Y-133989143D02*
X167384057Y-133941524D01*
X167384057Y-133941524D02*
X167526914Y-133846286D01*
X167526914Y-133846286D02*
X167717390Y-133798667D01*
X167717390Y-133798667D02*
X168098342Y-133798667D01*
X168098342Y-133798667D02*
X168193580Y-133846286D01*
X168193580Y-133846286D02*
X168241200Y-133893905D01*
X168241200Y-133893905D02*
X168288819Y-133989143D01*
X168288819Y-133989143D02*
X168288819Y-134179619D01*
X168288819Y-134179619D02*
X168241200Y-134274857D01*
X168241200Y-134274857D02*
X168193580Y-134322476D01*
X168193580Y-134322476D02*
X168098342Y-134370095D01*
X168098342Y-134370095D02*
X167860247Y-134370095D01*
X167860247Y-134370095D02*
X167765009Y-134322476D01*
X167765009Y-134322476D02*
X167717390Y-134274857D01*
X167717390Y-134274857D02*
X167669771Y-134179619D01*
X167669771Y-134179619D02*
X167669771Y-133989143D01*
X167669771Y-133989143D02*
X167717390Y-133893905D01*
X167717390Y-133893905D02*
X167765009Y-133846286D01*
X167765009Y-133846286D02*
X167860247Y-133798667D01*
X207957809Y-244019009D02*
X208291142Y-244019009D01*
X208291142Y-244542819D02*
X208291142Y-243542819D01*
X208291142Y-243542819D02*
X207814952Y-243542819D01*
X207433999Y-244542819D02*
X207433999Y-243542819D01*
X206957809Y-244542819D02*
X206957809Y-243542819D01*
X206957809Y-243542819D02*
X206719714Y-243542819D01*
X206719714Y-243542819D02*
X206576857Y-243590438D01*
X206576857Y-243590438D02*
X206481619Y-243685676D01*
X206481619Y-243685676D02*
X206434000Y-243780914D01*
X206434000Y-243780914D02*
X206386381Y-243971390D01*
X206386381Y-243971390D02*
X206386381Y-244114247D01*
X206386381Y-244114247D02*
X206434000Y-244304723D01*
X206434000Y-244304723D02*
X206481619Y-244399961D01*
X206481619Y-244399961D02*
X206576857Y-244495200D01*
X206576857Y-244495200D02*
X206719714Y-244542819D01*
X206719714Y-244542819D02*
X206957809Y-244542819D01*
X205434000Y-244542819D02*
X206005428Y-244542819D01*
X205719714Y-244542819D02*
X205719714Y-243542819D01*
X205719714Y-243542819D02*
X205814952Y-243685676D01*
X205814952Y-243685676D02*
X205910190Y-243780914D01*
X205910190Y-243780914D02*
X206005428Y-243828533D01*
X204814952Y-243542819D02*
X204719714Y-243542819D01*
X204719714Y-243542819D02*
X204624476Y-243590438D01*
X204624476Y-243590438D02*
X204576857Y-243638057D01*
X204576857Y-243638057D02*
X204529238Y-243733295D01*
X204529238Y-243733295D02*
X204481619Y-243923771D01*
X204481619Y-243923771D02*
X204481619Y-244161866D01*
X204481619Y-244161866D02*
X204529238Y-244352342D01*
X204529238Y-244352342D02*
X204576857Y-244447580D01*
X204576857Y-244447580D02*
X204624476Y-244495200D01*
X204624476Y-244495200D02*
X204719714Y-244542819D01*
X204719714Y-244542819D02*
X204814952Y-244542819D01*
X204814952Y-244542819D02*
X204910190Y-244495200D01*
X204910190Y-244495200D02*
X204957809Y-244447580D01*
X204957809Y-244447580D02*
X205005428Y-244352342D01*
X205005428Y-244352342D02*
X205053047Y-244161866D01*
X205053047Y-244161866D02*
X205053047Y-243923771D01*
X205053047Y-243923771D02*
X205005428Y-243733295D01*
X205005428Y-243733295D02*
X204957809Y-243638057D01*
X204957809Y-243638057D02*
X204910190Y-243590438D01*
X204910190Y-243590438D02*
X204814952Y-243542819D01*
X203576857Y-243542819D02*
X204053047Y-243542819D01*
X204053047Y-243542819D02*
X204100666Y-244019009D01*
X204100666Y-244019009D02*
X204053047Y-243971390D01*
X204053047Y-243971390D02*
X203957809Y-243923771D01*
X203957809Y-243923771D02*
X203719714Y-243923771D01*
X203719714Y-243923771D02*
X203624476Y-243971390D01*
X203624476Y-243971390D02*
X203576857Y-244019009D01*
X203576857Y-244019009D02*
X203529238Y-244114247D01*
X203529238Y-244114247D02*
X203529238Y-244352342D01*
X203529238Y-244352342D02*
X203576857Y-244447580D01*
X203576857Y-244447580D02*
X203624476Y-244495200D01*
X203624476Y-244495200D02*
X203719714Y-244542819D01*
X203719714Y-244542819D02*
X203957809Y-244542819D01*
X203957809Y-244542819D02*
X204053047Y-244495200D01*
X204053047Y-244495200D02*
X204100666Y-244447580D01*
X158539047Y-99050819D02*
X158872380Y-98574628D01*
X159110475Y-99050819D02*
X159110475Y-98050819D01*
X159110475Y-98050819D02*
X158729523Y-98050819D01*
X158729523Y-98050819D02*
X158634285Y-98098438D01*
X158634285Y-98098438D02*
X158586666Y-98146057D01*
X158586666Y-98146057D02*
X158539047Y-98241295D01*
X158539047Y-98241295D02*
X158539047Y-98384152D01*
X158539047Y-98384152D02*
X158586666Y-98479390D01*
X158586666Y-98479390D02*
X158634285Y-98527009D01*
X158634285Y-98527009D02*
X158729523Y-98574628D01*
X158729523Y-98574628D02*
X159110475Y-98574628D01*
X157681904Y-98050819D02*
X157872380Y-98050819D01*
X157872380Y-98050819D02*
X157967618Y-98098438D01*
X157967618Y-98098438D02*
X158015237Y-98146057D01*
X158015237Y-98146057D02*
X158110475Y-98288914D01*
X158110475Y-98288914D02*
X158158094Y-98479390D01*
X158158094Y-98479390D02*
X158158094Y-98860342D01*
X158158094Y-98860342D02*
X158110475Y-98955580D01*
X158110475Y-98955580D02*
X158062856Y-99003200D01*
X158062856Y-99003200D02*
X157967618Y-99050819D01*
X157967618Y-99050819D02*
X157777142Y-99050819D01*
X157777142Y-99050819D02*
X157681904Y-99003200D01*
X157681904Y-99003200D02*
X157634285Y-98955580D01*
X157634285Y-98955580D02*
X157586666Y-98860342D01*
X157586666Y-98860342D02*
X157586666Y-98622247D01*
X157586666Y-98622247D02*
X157634285Y-98527009D01*
X157634285Y-98527009D02*
X157681904Y-98479390D01*
X157681904Y-98479390D02*
X157777142Y-98431771D01*
X157777142Y-98431771D02*
X157967618Y-98431771D01*
X157967618Y-98431771D02*
X158062856Y-98479390D01*
X158062856Y-98479390D02*
X158110475Y-98527009D01*
X158110475Y-98527009D02*
X158158094Y-98622247D01*
X156967618Y-98050819D02*
X156872380Y-98050819D01*
X156872380Y-98050819D02*
X156777142Y-98098438D01*
X156777142Y-98098438D02*
X156729523Y-98146057D01*
X156729523Y-98146057D02*
X156681904Y-98241295D01*
X156681904Y-98241295D02*
X156634285Y-98431771D01*
X156634285Y-98431771D02*
X156634285Y-98669866D01*
X156634285Y-98669866D02*
X156681904Y-98860342D01*
X156681904Y-98860342D02*
X156729523Y-98955580D01*
X156729523Y-98955580D02*
X156777142Y-99003200D01*
X156777142Y-99003200D02*
X156872380Y-99050819D01*
X156872380Y-99050819D02*
X156967618Y-99050819D01*
X156967618Y-99050819D02*
X157062856Y-99003200D01*
X157062856Y-99003200D02*
X157110475Y-98955580D01*
X157110475Y-98955580D02*
X157158094Y-98860342D01*
X157158094Y-98860342D02*
X157205713Y-98669866D01*
X157205713Y-98669866D02*
X157205713Y-98431771D01*
X157205713Y-98431771D02*
X157158094Y-98241295D01*
X157158094Y-98241295D02*
X157110475Y-98146057D01*
X157110475Y-98146057D02*
X157062856Y-98098438D01*
X157062856Y-98098438D02*
X156967618Y-98050819D01*
X156300951Y-98050819D02*
X155681904Y-98050819D01*
X155681904Y-98050819D02*
X156015237Y-98431771D01*
X156015237Y-98431771D02*
X155872380Y-98431771D01*
X155872380Y-98431771D02*
X155777142Y-98479390D01*
X155777142Y-98479390D02*
X155729523Y-98527009D01*
X155729523Y-98527009D02*
X155681904Y-98622247D01*
X155681904Y-98622247D02*
X155681904Y-98860342D01*
X155681904Y-98860342D02*
X155729523Y-98955580D01*
X155729523Y-98955580D02*
X155777142Y-99003200D01*
X155777142Y-99003200D02*
X155872380Y-99050819D01*
X155872380Y-99050819D02*
X156158094Y-99050819D01*
X156158094Y-99050819D02*
X156253332Y-99003200D01*
X156253332Y-99003200D02*
X156300951Y-98955580D01*
X165397047Y-146867580D02*
X165444666Y-146915200D01*
X165444666Y-146915200D02*
X165587523Y-146962819D01*
X165587523Y-146962819D02*
X165682761Y-146962819D01*
X165682761Y-146962819D02*
X165825618Y-146915200D01*
X165825618Y-146915200D02*
X165920856Y-146819961D01*
X165920856Y-146819961D02*
X165968475Y-146724723D01*
X165968475Y-146724723D02*
X166016094Y-146534247D01*
X166016094Y-146534247D02*
X166016094Y-146391390D01*
X166016094Y-146391390D02*
X165968475Y-146200914D01*
X165968475Y-146200914D02*
X165920856Y-146105676D01*
X165920856Y-146105676D02*
X165825618Y-146010438D01*
X165825618Y-146010438D02*
X165682761Y-145962819D01*
X165682761Y-145962819D02*
X165587523Y-145962819D01*
X165587523Y-145962819D02*
X165444666Y-146010438D01*
X165444666Y-146010438D02*
X165397047Y-146058057D01*
X164539904Y-145962819D02*
X164730380Y-145962819D01*
X164730380Y-145962819D02*
X164825618Y-146010438D01*
X164825618Y-146010438D02*
X164873237Y-146058057D01*
X164873237Y-146058057D02*
X164968475Y-146200914D01*
X164968475Y-146200914D02*
X165016094Y-146391390D01*
X165016094Y-146391390D02*
X165016094Y-146772342D01*
X165016094Y-146772342D02*
X164968475Y-146867580D01*
X164968475Y-146867580D02*
X164920856Y-146915200D01*
X164920856Y-146915200D02*
X164825618Y-146962819D01*
X164825618Y-146962819D02*
X164635142Y-146962819D01*
X164635142Y-146962819D02*
X164539904Y-146915200D01*
X164539904Y-146915200D02*
X164492285Y-146867580D01*
X164492285Y-146867580D02*
X164444666Y-146772342D01*
X164444666Y-146772342D02*
X164444666Y-146534247D01*
X164444666Y-146534247D02*
X164492285Y-146439009D01*
X164492285Y-146439009D02*
X164539904Y-146391390D01*
X164539904Y-146391390D02*
X164635142Y-146343771D01*
X164635142Y-146343771D02*
X164825618Y-146343771D01*
X164825618Y-146343771D02*
X164920856Y-146391390D01*
X164920856Y-146391390D02*
X164968475Y-146439009D01*
X164968475Y-146439009D02*
X165016094Y-146534247D01*
X163825618Y-145962819D02*
X163730380Y-145962819D01*
X163730380Y-145962819D02*
X163635142Y-146010438D01*
X163635142Y-146010438D02*
X163587523Y-146058057D01*
X163587523Y-146058057D02*
X163539904Y-146153295D01*
X163539904Y-146153295D02*
X163492285Y-146343771D01*
X163492285Y-146343771D02*
X163492285Y-146581866D01*
X163492285Y-146581866D02*
X163539904Y-146772342D01*
X163539904Y-146772342D02*
X163587523Y-146867580D01*
X163587523Y-146867580D02*
X163635142Y-146915200D01*
X163635142Y-146915200D02*
X163730380Y-146962819D01*
X163730380Y-146962819D02*
X163825618Y-146962819D01*
X163825618Y-146962819D02*
X163920856Y-146915200D01*
X163920856Y-146915200D02*
X163968475Y-146867580D01*
X163968475Y-146867580D02*
X164016094Y-146772342D01*
X164016094Y-146772342D02*
X164063713Y-146581866D01*
X164063713Y-146581866D02*
X164063713Y-146343771D01*
X164063713Y-146343771D02*
X164016094Y-146153295D01*
X164016094Y-146153295D02*
X163968475Y-146058057D01*
X163968475Y-146058057D02*
X163920856Y-146010438D01*
X163920856Y-146010438D02*
X163825618Y-145962819D01*
X162539904Y-146962819D02*
X163111332Y-146962819D01*
X162825618Y-146962819D02*
X162825618Y-145962819D01*
X162825618Y-145962819D02*
X162920856Y-146105676D01*
X162920856Y-146105676D02*
X163016094Y-146200914D01*
X163016094Y-146200914D02*
X163111332Y-146248533D01*
X142034785Y-111088819D02*
X142034785Y-111898342D01*
X142034785Y-111898342D02*
X141987166Y-111993580D01*
X141987166Y-111993580D02*
X141939547Y-112041200D01*
X141939547Y-112041200D02*
X141844309Y-112088819D01*
X141844309Y-112088819D02*
X141653833Y-112088819D01*
X141653833Y-112088819D02*
X141558595Y-112041200D01*
X141558595Y-112041200D02*
X141510976Y-111993580D01*
X141510976Y-111993580D02*
X141463357Y-111898342D01*
X141463357Y-111898342D02*
X141463357Y-111088819D01*
X140558595Y-111088819D02*
X140749071Y-111088819D01*
X140749071Y-111088819D02*
X140844309Y-111136438D01*
X140844309Y-111136438D02*
X140891928Y-111184057D01*
X140891928Y-111184057D02*
X140987166Y-111326914D01*
X140987166Y-111326914D02*
X141034785Y-111517390D01*
X141034785Y-111517390D02*
X141034785Y-111898342D01*
X141034785Y-111898342D02*
X140987166Y-111993580D01*
X140987166Y-111993580D02*
X140939547Y-112041200D01*
X140939547Y-112041200D02*
X140844309Y-112088819D01*
X140844309Y-112088819D02*
X140653833Y-112088819D01*
X140653833Y-112088819D02*
X140558595Y-112041200D01*
X140558595Y-112041200D02*
X140510976Y-111993580D01*
X140510976Y-111993580D02*
X140463357Y-111898342D01*
X140463357Y-111898342D02*
X140463357Y-111660247D01*
X140463357Y-111660247D02*
X140510976Y-111565009D01*
X140510976Y-111565009D02*
X140558595Y-111517390D01*
X140558595Y-111517390D02*
X140653833Y-111469771D01*
X140653833Y-111469771D02*
X140844309Y-111469771D01*
X140844309Y-111469771D02*
X140939547Y-111517390D01*
X140939547Y-111517390D02*
X140987166Y-111565009D01*
X140987166Y-111565009D02*
X141034785Y-111660247D01*
X139844309Y-111088819D02*
X139749071Y-111088819D01*
X139749071Y-111088819D02*
X139653833Y-111136438D01*
X139653833Y-111136438D02*
X139606214Y-111184057D01*
X139606214Y-111184057D02*
X139558595Y-111279295D01*
X139558595Y-111279295D02*
X139510976Y-111469771D01*
X139510976Y-111469771D02*
X139510976Y-111707866D01*
X139510976Y-111707866D02*
X139558595Y-111898342D01*
X139558595Y-111898342D02*
X139606214Y-111993580D01*
X139606214Y-111993580D02*
X139653833Y-112041200D01*
X139653833Y-112041200D02*
X139749071Y-112088819D01*
X139749071Y-112088819D02*
X139844309Y-112088819D01*
X139844309Y-112088819D02*
X139939547Y-112041200D01*
X139939547Y-112041200D02*
X139987166Y-111993580D01*
X139987166Y-111993580D02*
X140034785Y-111898342D01*
X140034785Y-111898342D02*
X140082404Y-111707866D01*
X140082404Y-111707866D02*
X140082404Y-111469771D01*
X140082404Y-111469771D02*
X140034785Y-111279295D01*
X140034785Y-111279295D02*
X139987166Y-111184057D01*
X139987166Y-111184057D02*
X139939547Y-111136438D01*
X139939547Y-111136438D02*
X139844309Y-111088819D01*
X139034785Y-112088819D02*
X138844309Y-112088819D01*
X138844309Y-112088819D02*
X138749071Y-112041200D01*
X138749071Y-112041200D02*
X138701452Y-111993580D01*
X138701452Y-111993580D02*
X138606214Y-111850723D01*
X138606214Y-111850723D02*
X138558595Y-111660247D01*
X138558595Y-111660247D02*
X138558595Y-111279295D01*
X138558595Y-111279295D02*
X138606214Y-111184057D01*
X138606214Y-111184057D02*
X138653833Y-111136438D01*
X138653833Y-111136438D02*
X138749071Y-111088819D01*
X138749071Y-111088819D02*
X138939547Y-111088819D01*
X138939547Y-111088819D02*
X139034785Y-111136438D01*
X139034785Y-111136438D02*
X139082404Y-111184057D01*
X139082404Y-111184057D02*
X139130023Y-111279295D01*
X139130023Y-111279295D02*
X139130023Y-111517390D01*
X139130023Y-111517390D02*
X139082404Y-111612628D01*
X139082404Y-111612628D02*
X139034785Y-111660247D01*
X139034785Y-111660247D02*
X138939547Y-111707866D01*
X138939547Y-111707866D02*
X138749071Y-111707866D01*
X138749071Y-111707866D02*
X138653833Y-111660247D01*
X138653833Y-111660247D02*
X138606214Y-111612628D01*
X138606214Y-111612628D02*
X138558595Y-111517390D01*
X172287580Y-102964452D02*
X172335200Y-102916833D01*
X172335200Y-102916833D02*
X172382819Y-102773976D01*
X172382819Y-102773976D02*
X172382819Y-102678738D01*
X172382819Y-102678738D02*
X172335200Y-102535881D01*
X172335200Y-102535881D02*
X172239961Y-102440643D01*
X172239961Y-102440643D02*
X172144723Y-102393024D01*
X172144723Y-102393024D02*
X171954247Y-102345405D01*
X171954247Y-102345405D02*
X171811390Y-102345405D01*
X171811390Y-102345405D02*
X171620914Y-102393024D01*
X171620914Y-102393024D02*
X171525676Y-102440643D01*
X171525676Y-102440643D02*
X171430438Y-102535881D01*
X171430438Y-102535881D02*
X171382819Y-102678738D01*
X171382819Y-102678738D02*
X171382819Y-102773976D01*
X171382819Y-102773976D02*
X171430438Y-102916833D01*
X171430438Y-102916833D02*
X171478057Y-102964452D01*
X171382819Y-103297786D02*
X171382819Y-103964452D01*
X171382819Y-103964452D02*
X172382819Y-103535881D01*
X171382819Y-104535881D02*
X171382819Y-104631119D01*
X171382819Y-104631119D02*
X171430438Y-104726357D01*
X171430438Y-104726357D02*
X171478057Y-104773976D01*
X171478057Y-104773976D02*
X171573295Y-104821595D01*
X171573295Y-104821595D02*
X171763771Y-104869214D01*
X171763771Y-104869214D02*
X172001866Y-104869214D01*
X172001866Y-104869214D02*
X172192342Y-104821595D01*
X172192342Y-104821595D02*
X172287580Y-104773976D01*
X172287580Y-104773976D02*
X172335200Y-104726357D01*
X172335200Y-104726357D02*
X172382819Y-104631119D01*
X172382819Y-104631119D02*
X172382819Y-104535881D01*
X172382819Y-104535881D02*
X172335200Y-104440643D01*
X172335200Y-104440643D02*
X172287580Y-104393024D01*
X172287580Y-104393024D02*
X172192342Y-104345405D01*
X172192342Y-104345405D02*
X172001866Y-104297786D01*
X172001866Y-104297786D02*
X171763771Y-104297786D01*
X171763771Y-104297786D02*
X171573295Y-104345405D01*
X171573295Y-104345405D02*
X171478057Y-104393024D01*
X171478057Y-104393024D02*
X171430438Y-104440643D01*
X171430438Y-104440643D02*
X171382819Y-104535881D01*
X171811390Y-105440643D02*
X171763771Y-105345405D01*
X171763771Y-105345405D02*
X171716152Y-105297786D01*
X171716152Y-105297786D02*
X171620914Y-105250167D01*
X171620914Y-105250167D02*
X171573295Y-105250167D01*
X171573295Y-105250167D02*
X171478057Y-105297786D01*
X171478057Y-105297786D02*
X171430438Y-105345405D01*
X171430438Y-105345405D02*
X171382819Y-105440643D01*
X171382819Y-105440643D02*
X171382819Y-105631119D01*
X171382819Y-105631119D02*
X171430438Y-105726357D01*
X171430438Y-105726357D02*
X171478057Y-105773976D01*
X171478057Y-105773976D02*
X171573295Y-105821595D01*
X171573295Y-105821595D02*
X171620914Y-105821595D01*
X171620914Y-105821595D02*
X171716152Y-105773976D01*
X171716152Y-105773976D02*
X171763771Y-105726357D01*
X171763771Y-105726357D02*
X171811390Y-105631119D01*
X171811390Y-105631119D02*
X171811390Y-105440643D01*
X171811390Y-105440643D02*
X171859009Y-105345405D01*
X171859009Y-105345405D02*
X171906628Y-105297786D01*
X171906628Y-105297786D02*
X172001866Y-105250167D01*
X172001866Y-105250167D02*
X172192342Y-105250167D01*
X172192342Y-105250167D02*
X172287580Y-105297786D01*
X172287580Y-105297786D02*
X172335200Y-105345405D01*
X172335200Y-105345405D02*
X172382819Y-105440643D01*
X172382819Y-105440643D02*
X172382819Y-105631119D01*
X172382819Y-105631119D02*
X172335200Y-105726357D01*
X172335200Y-105726357D02*
X172287580Y-105773976D01*
X172287580Y-105773976D02*
X172192342Y-105821595D01*
X172192342Y-105821595D02*
X172001866Y-105821595D01*
X172001866Y-105821595D02*
X171906628Y-105773976D01*
X171906628Y-105773976D02*
X171859009Y-105726357D01*
X171859009Y-105726357D02*
X171811390Y-105631119D01*
X180639580Y-151324952D02*
X180687200Y-151277333D01*
X180687200Y-151277333D02*
X180734819Y-151134476D01*
X180734819Y-151134476D02*
X180734819Y-151039238D01*
X180734819Y-151039238D02*
X180687200Y-150896381D01*
X180687200Y-150896381D02*
X180591961Y-150801143D01*
X180591961Y-150801143D02*
X180496723Y-150753524D01*
X180496723Y-150753524D02*
X180306247Y-150705905D01*
X180306247Y-150705905D02*
X180163390Y-150705905D01*
X180163390Y-150705905D02*
X179972914Y-150753524D01*
X179972914Y-150753524D02*
X179877676Y-150801143D01*
X179877676Y-150801143D02*
X179782438Y-150896381D01*
X179782438Y-150896381D02*
X179734819Y-151039238D01*
X179734819Y-151039238D02*
X179734819Y-151134476D01*
X179734819Y-151134476D02*
X179782438Y-151277333D01*
X179782438Y-151277333D02*
X179830057Y-151324952D01*
X179734819Y-152182095D02*
X179734819Y-151991619D01*
X179734819Y-151991619D02*
X179782438Y-151896381D01*
X179782438Y-151896381D02*
X179830057Y-151848762D01*
X179830057Y-151848762D02*
X179972914Y-151753524D01*
X179972914Y-151753524D02*
X180163390Y-151705905D01*
X180163390Y-151705905D02*
X180544342Y-151705905D01*
X180544342Y-151705905D02*
X180639580Y-151753524D01*
X180639580Y-151753524D02*
X180687200Y-151801143D01*
X180687200Y-151801143D02*
X180734819Y-151896381D01*
X180734819Y-151896381D02*
X180734819Y-152086857D01*
X180734819Y-152086857D02*
X180687200Y-152182095D01*
X180687200Y-152182095D02*
X180639580Y-152229714D01*
X180639580Y-152229714D02*
X180544342Y-152277333D01*
X180544342Y-152277333D02*
X180306247Y-152277333D01*
X180306247Y-152277333D02*
X180211009Y-152229714D01*
X180211009Y-152229714D02*
X180163390Y-152182095D01*
X180163390Y-152182095D02*
X180115771Y-152086857D01*
X180115771Y-152086857D02*
X180115771Y-151896381D01*
X180115771Y-151896381D02*
X180163390Y-151801143D01*
X180163390Y-151801143D02*
X180211009Y-151753524D01*
X180211009Y-151753524D02*
X180306247Y-151705905D01*
X180734819Y-153229714D02*
X180734819Y-152658286D01*
X180734819Y-152944000D02*
X179734819Y-152944000D01*
X179734819Y-152944000D02*
X179877676Y-152848762D01*
X179877676Y-152848762D02*
X179972914Y-152753524D01*
X179972914Y-152753524D02*
X180020533Y-152658286D01*
X179734819Y-153563048D02*
X179734819Y-154182095D01*
X179734819Y-154182095D02*
X180115771Y-153848762D01*
X180115771Y-153848762D02*
X180115771Y-153991619D01*
X180115771Y-153991619D02*
X180163390Y-154086857D01*
X180163390Y-154086857D02*
X180211009Y-154134476D01*
X180211009Y-154134476D02*
X180306247Y-154182095D01*
X180306247Y-154182095D02*
X180544342Y-154182095D01*
X180544342Y-154182095D02*
X180639580Y-154134476D01*
X180639580Y-154134476D02*
X180687200Y-154086857D01*
X180687200Y-154086857D02*
X180734819Y-153991619D01*
X180734819Y-153991619D02*
X180734819Y-153705905D01*
X180734819Y-153705905D02*
X180687200Y-153610667D01*
X180687200Y-153610667D02*
X180639580Y-153563048D01*
X170509580Y-102964452D02*
X170557200Y-102916833D01*
X170557200Y-102916833D02*
X170604819Y-102773976D01*
X170604819Y-102773976D02*
X170604819Y-102678738D01*
X170604819Y-102678738D02*
X170557200Y-102535881D01*
X170557200Y-102535881D02*
X170461961Y-102440643D01*
X170461961Y-102440643D02*
X170366723Y-102393024D01*
X170366723Y-102393024D02*
X170176247Y-102345405D01*
X170176247Y-102345405D02*
X170033390Y-102345405D01*
X170033390Y-102345405D02*
X169842914Y-102393024D01*
X169842914Y-102393024D02*
X169747676Y-102440643D01*
X169747676Y-102440643D02*
X169652438Y-102535881D01*
X169652438Y-102535881D02*
X169604819Y-102678738D01*
X169604819Y-102678738D02*
X169604819Y-102773976D01*
X169604819Y-102773976D02*
X169652438Y-102916833D01*
X169652438Y-102916833D02*
X169700057Y-102964452D01*
X169604819Y-103297786D02*
X169604819Y-103964452D01*
X169604819Y-103964452D02*
X170604819Y-103535881D01*
X169604819Y-104535881D02*
X169604819Y-104631119D01*
X169604819Y-104631119D02*
X169652438Y-104726357D01*
X169652438Y-104726357D02*
X169700057Y-104773976D01*
X169700057Y-104773976D02*
X169795295Y-104821595D01*
X169795295Y-104821595D02*
X169985771Y-104869214D01*
X169985771Y-104869214D02*
X170223866Y-104869214D01*
X170223866Y-104869214D02*
X170414342Y-104821595D01*
X170414342Y-104821595D02*
X170509580Y-104773976D01*
X170509580Y-104773976D02*
X170557200Y-104726357D01*
X170557200Y-104726357D02*
X170604819Y-104631119D01*
X170604819Y-104631119D02*
X170604819Y-104535881D01*
X170604819Y-104535881D02*
X170557200Y-104440643D01*
X170557200Y-104440643D02*
X170509580Y-104393024D01*
X170509580Y-104393024D02*
X170414342Y-104345405D01*
X170414342Y-104345405D02*
X170223866Y-104297786D01*
X170223866Y-104297786D02*
X169985771Y-104297786D01*
X169985771Y-104297786D02*
X169795295Y-104345405D01*
X169795295Y-104345405D02*
X169700057Y-104393024D01*
X169700057Y-104393024D02*
X169652438Y-104440643D01*
X169652438Y-104440643D02*
X169604819Y-104535881D01*
X169604819Y-105202548D02*
X169604819Y-105869214D01*
X169604819Y-105869214D02*
X170604819Y-105440643D01*
X153307580Y-223284952D02*
X153355200Y-223237333D01*
X153355200Y-223237333D02*
X153402819Y-223094476D01*
X153402819Y-223094476D02*
X153402819Y-222999238D01*
X153402819Y-222999238D02*
X153355200Y-222856381D01*
X153355200Y-222856381D02*
X153259961Y-222761143D01*
X153259961Y-222761143D02*
X153164723Y-222713524D01*
X153164723Y-222713524D02*
X152974247Y-222665905D01*
X152974247Y-222665905D02*
X152831390Y-222665905D01*
X152831390Y-222665905D02*
X152640914Y-222713524D01*
X152640914Y-222713524D02*
X152545676Y-222761143D01*
X152545676Y-222761143D02*
X152450438Y-222856381D01*
X152450438Y-222856381D02*
X152402819Y-222999238D01*
X152402819Y-222999238D02*
X152402819Y-223094476D01*
X152402819Y-223094476D02*
X152450438Y-223237333D01*
X152450438Y-223237333D02*
X152498057Y-223284952D01*
X152498057Y-223665905D02*
X152450438Y-223713524D01*
X152450438Y-223713524D02*
X152402819Y-223808762D01*
X152402819Y-223808762D02*
X152402819Y-224046857D01*
X152402819Y-224046857D02*
X152450438Y-224142095D01*
X152450438Y-224142095D02*
X152498057Y-224189714D01*
X152498057Y-224189714D02*
X152593295Y-224237333D01*
X152593295Y-224237333D02*
X152688533Y-224237333D01*
X152688533Y-224237333D02*
X152831390Y-224189714D01*
X152831390Y-224189714D02*
X153402819Y-223618286D01*
X153402819Y-223618286D02*
X153402819Y-224237333D01*
X152402819Y-224856381D02*
X152402819Y-224951619D01*
X152402819Y-224951619D02*
X152450438Y-225046857D01*
X152450438Y-225046857D02*
X152498057Y-225094476D01*
X152498057Y-225094476D02*
X152593295Y-225142095D01*
X152593295Y-225142095D02*
X152783771Y-225189714D01*
X152783771Y-225189714D02*
X153021866Y-225189714D01*
X153021866Y-225189714D02*
X153212342Y-225142095D01*
X153212342Y-225142095D02*
X153307580Y-225094476D01*
X153307580Y-225094476D02*
X153355200Y-225046857D01*
X153355200Y-225046857D02*
X153402819Y-224951619D01*
X153402819Y-224951619D02*
X153402819Y-224856381D01*
X153402819Y-224856381D02*
X153355200Y-224761143D01*
X153355200Y-224761143D02*
X153307580Y-224713524D01*
X153307580Y-224713524D02*
X153212342Y-224665905D01*
X153212342Y-224665905D02*
X153021866Y-224618286D01*
X153021866Y-224618286D02*
X152783771Y-224618286D01*
X152783771Y-224618286D02*
X152593295Y-224665905D01*
X152593295Y-224665905D02*
X152498057Y-224713524D01*
X152498057Y-224713524D02*
X152450438Y-224761143D01*
X152450438Y-224761143D02*
X152402819Y-224856381D01*
X152498057Y-225570667D02*
X152450438Y-225618286D01*
X152450438Y-225618286D02*
X152402819Y-225713524D01*
X152402819Y-225713524D02*
X152402819Y-225951619D01*
X152402819Y-225951619D02*
X152450438Y-226046857D01*
X152450438Y-226046857D02*
X152498057Y-226094476D01*
X152498057Y-226094476D02*
X152593295Y-226142095D01*
X152593295Y-226142095D02*
X152688533Y-226142095D01*
X152688533Y-226142095D02*
X152831390Y-226094476D01*
X152831390Y-226094476D02*
X153402819Y-225523048D01*
X153402819Y-225523048D02*
X153402819Y-226142095D01*
X207354785Y-105700819D02*
X207354785Y-106510342D01*
X207354785Y-106510342D02*
X207307166Y-106605580D01*
X207307166Y-106605580D02*
X207259547Y-106653200D01*
X207259547Y-106653200D02*
X207164309Y-106700819D01*
X207164309Y-106700819D02*
X206973833Y-106700819D01*
X206973833Y-106700819D02*
X206878595Y-106653200D01*
X206878595Y-106653200D02*
X206830976Y-106605580D01*
X206830976Y-106605580D02*
X206783357Y-106510342D01*
X206783357Y-106510342D02*
X206783357Y-105700819D01*
X205878595Y-105700819D02*
X206069071Y-105700819D01*
X206069071Y-105700819D02*
X206164309Y-105748438D01*
X206164309Y-105748438D02*
X206211928Y-105796057D01*
X206211928Y-105796057D02*
X206307166Y-105938914D01*
X206307166Y-105938914D02*
X206354785Y-106129390D01*
X206354785Y-106129390D02*
X206354785Y-106510342D01*
X206354785Y-106510342D02*
X206307166Y-106605580D01*
X206307166Y-106605580D02*
X206259547Y-106653200D01*
X206259547Y-106653200D02*
X206164309Y-106700819D01*
X206164309Y-106700819D02*
X205973833Y-106700819D01*
X205973833Y-106700819D02*
X205878595Y-106653200D01*
X205878595Y-106653200D02*
X205830976Y-106605580D01*
X205830976Y-106605580D02*
X205783357Y-106510342D01*
X205783357Y-106510342D02*
X205783357Y-106272247D01*
X205783357Y-106272247D02*
X205830976Y-106177009D01*
X205830976Y-106177009D02*
X205878595Y-106129390D01*
X205878595Y-106129390D02*
X205973833Y-106081771D01*
X205973833Y-106081771D02*
X206164309Y-106081771D01*
X206164309Y-106081771D02*
X206259547Y-106129390D01*
X206259547Y-106129390D02*
X206307166Y-106177009D01*
X206307166Y-106177009D02*
X206354785Y-106272247D01*
X205164309Y-105700819D02*
X205069071Y-105700819D01*
X205069071Y-105700819D02*
X204973833Y-105748438D01*
X204973833Y-105748438D02*
X204926214Y-105796057D01*
X204926214Y-105796057D02*
X204878595Y-105891295D01*
X204878595Y-105891295D02*
X204830976Y-106081771D01*
X204830976Y-106081771D02*
X204830976Y-106319866D01*
X204830976Y-106319866D02*
X204878595Y-106510342D01*
X204878595Y-106510342D02*
X204926214Y-106605580D01*
X204926214Y-106605580D02*
X204973833Y-106653200D01*
X204973833Y-106653200D02*
X205069071Y-106700819D01*
X205069071Y-106700819D02*
X205164309Y-106700819D01*
X205164309Y-106700819D02*
X205259547Y-106653200D01*
X205259547Y-106653200D02*
X205307166Y-106605580D01*
X205307166Y-106605580D02*
X205354785Y-106510342D01*
X205354785Y-106510342D02*
X205402404Y-106319866D01*
X205402404Y-106319866D02*
X205402404Y-106081771D01*
X205402404Y-106081771D02*
X205354785Y-105891295D01*
X205354785Y-105891295D02*
X205307166Y-105796057D01*
X205307166Y-105796057D02*
X205259547Y-105748438D01*
X205259547Y-105748438D02*
X205164309Y-105700819D01*
X203973833Y-105700819D02*
X204164309Y-105700819D01*
X204164309Y-105700819D02*
X204259547Y-105748438D01*
X204259547Y-105748438D02*
X204307166Y-105796057D01*
X204307166Y-105796057D02*
X204402404Y-105938914D01*
X204402404Y-105938914D02*
X204450023Y-106129390D01*
X204450023Y-106129390D02*
X204450023Y-106510342D01*
X204450023Y-106510342D02*
X204402404Y-106605580D01*
X204402404Y-106605580D02*
X204354785Y-106653200D01*
X204354785Y-106653200D02*
X204259547Y-106700819D01*
X204259547Y-106700819D02*
X204069071Y-106700819D01*
X204069071Y-106700819D02*
X203973833Y-106653200D01*
X203973833Y-106653200D02*
X203926214Y-106605580D01*
X203926214Y-106605580D02*
X203878595Y-106510342D01*
X203878595Y-106510342D02*
X203878595Y-106272247D01*
X203878595Y-106272247D02*
X203926214Y-106177009D01*
X203926214Y-106177009D02*
X203973833Y-106129390D01*
X203973833Y-106129390D02*
X204069071Y-106081771D01*
X204069071Y-106081771D02*
X204259547Y-106081771D01*
X204259547Y-106081771D02*
X204354785Y-106129390D01*
X204354785Y-106129390D02*
X204402404Y-106177009D01*
X204402404Y-106177009D02*
X204450023Y-106272247D01*
X144457809Y-244019009D02*
X144791142Y-244019009D01*
X144791142Y-244542819D02*
X144791142Y-243542819D01*
X144791142Y-243542819D02*
X144314952Y-243542819D01*
X143933999Y-244542819D02*
X143933999Y-243542819D01*
X143457809Y-244542819D02*
X143457809Y-243542819D01*
X143457809Y-243542819D02*
X143219714Y-243542819D01*
X143219714Y-243542819D02*
X143076857Y-243590438D01*
X143076857Y-243590438D02*
X142981619Y-243685676D01*
X142981619Y-243685676D02*
X142934000Y-243780914D01*
X142934000Y-243780914D02*
X142886381Y-243971390D01*
X142886381Y-243971390D02*
X142886381Y-244114247D01*
X142886381Y-244114247D02*
X142934000Y-244304723D01*
X142934000Y-244304723D02*
X142981619Y-244399961D01*
X142981619Y-244399961D02*
X143076857Y-244495200D01*
X143076857Y-244495200D02*
X143219714Y-244542819D01*
X143219714Y-244542819D02*
X143457809Y-244542819D01*
X141934000Y-244542819D02*
X142505428Y-244542819D01*
X142219714Y-244542819D02*
X142219714Y-243542819D01*
X142219714Y-243542819D02*
X142314952Y-243685676D01*
X142314952Y-243685676D02*
X142410190Y-243780914D01*
X142410190Y-243780914D02*
X142505428Y-243828533D01*
X141314952Y-243542819D02*
X141219714Y-243542819D01*
X141219714Y-243542819D02*
X141124476Y-243590438D01*
X141124476Y-243590438D02*
X141076857Y-243638057D01*
X141076857Y-243638057D02*
X141029238Y-243733295D01*
X141029238Y-243733295D02*
X140981619Y-243923771D01*
X140981619Y-243923771D02*
X140981619Y-244161866D01*
X140981619Y-244161866D02*
X141029238Y-244352342D01*
X141029238Y-244352342D02*
X141076857Y-244447580D01*
X141076857Y-244447580D02*
X141124476Y-244495200D01*
X141124476Y-244495200D02*
X141219714Y-244542819D01*
X141219714Y-244542819D02*
X141314952Y-244542819D01*
X141314952Y-244542819D02*
X141410190Y-244495200D01*
X141410190Y-244495200D02*
X141457809Y-244447580D01*
X141457809Y-244447580D02*
X141505428Y-244352342D01*
X141505428Y-244352342D02*
X141553047Y-244161866D01*
X141553047Y-244161866D02*
X141553047Y-243923771D01*
X141553047Y-243923771D02*
X141505428Y-243733295D01*
X141505428Y-243733295D02*
X141457809Y-243638057D01*
X141457809Y-243638057D02*
X141410190Y-243590438D01*
X141410190Y-243590438D02*
X141314952Y-243542819D01*
X140124476Y-243876152D02*
X140124476Y-244542819D01*
X140362571Y-243495200D02*
X140600666Y-244209485D01*
X140600666Y-244209485D02*
X139981619Y-244209485D01*
X196527809Y-67539009D02*
X196861142Y-67539009D01*
X196861142Y-68062819D02*
X196861142Y-67062819D01*
X196861142Y-67062819D02*
X196384952Y-67062819D01*
X196003999Y-68062819D02*
X196003999Y-67062819D01*
X195527809Y-68062819D02*
X195527809Y-67062819D01*
X195527809Y-67062819D02*
X195289714Y-67062819D01*
X195289714Y-67062819D02*
X195146857Y-67110438D01*
X195146857Y-67110438D02*
X195051619Y-67205676D01*
X195051619Y-67205676D02*
X195004000Y-67300914D01*
X195004000Y-67300914D02*
X194956381Y-67491390D01*
X194956381Y-67491390D02*
X194956381Y-67634247D01*
X194956381Y-67634247D02*
X195004000Y-67824723D01*
X195004000Y-67824723D02*
X195051619Y-67919961D01*
X195051619Y-67919961D02*
X195146857Y-68015200D01*
X195146857Y-68015200D02*
X195289714Y-68062819D01*
X195289714Y-68062819D02*
X195527809Y-68062819D01*
X194004000Y-68062819D02*
X194575428Y-68062819D01*
X194289714Y-68062819D02*
X194289714Y-67062819D01*
X194289714Y-67062819D02*
X194384952Y-67205676D01*
X194384952Y-67205676D02*
X194480190Y-67300914D01*
X194480190Y-67300914D02*
X194575428Y-67348533D01*
X193384952Y-67062819D02*
X193289714Y-67062819D01*
X193289714Y-67062819D02*
X193194476Y-67110438D01*
X193194476Y-67110438D02*
X193146857Y-67158057D01*
X193146857Y-67158057D02*
X193099238Y-67253295D01*
X193099238Y-67253295D02*
X193051619Y-67443771D01*
X193051619Y-67443771D02*
X193051619Y-67681866D01*
X193051619Y-67681866D02*
X193099238Y-67872342D01*
X193099238Y-67872342D02*
X193146857Y-67967580D01*
X193146857Y-67967580D02*
X193194476Y-68015200D01*
X193194476Y-68015200D02*
X193289714Y-68062819D01*
X193289714Y-68062819D02*
X193384952Y-68062819D01*
X193384952Y-68062819D02*
X193480190Y-68015200D01*
X193480190Y-68015200D02*
X193527809Y-67967580D01*
X193527809Y-67967580D02*
X193575428Y-67872342D01*
X193575428Y-67872342D02*
X193623047Y-67681866D01*
X193623047Y-67681866D02*
X193623047Y-67443771D01*
X193623047Y-67443771D02*
X193575428Y-67253295D01*
X193575428Y-67253295D02*
X193527809Y-67158057D01*
X193527809Y-67158057D02*
X193480190Y-67110438D01*
X193480190Y-67110438D02*
X193384952Y-67062819D01*
X192194476Y-67062819D02*
X192384952Y-67062819D01*
X192384952Y-67062819D02*
X192480190Y-67110438D01*
X192480190Y-67110438D02*
X192527809Y-67158057D01*
X192527809Y-67158057D02*
X192623047Y-67300914D01*
X192623047Y-67300914D02*
X192670666Y-67491390D01*
X192670666Y-67491390D02*
X192670666Y-67872342D01*
X192670666Y-67872342D02*
X192623047Y-67967580D01*
X192623047Y-67967580D02*
X192575428Y-68015200D01*
X192575428Y-68015200D02*
X192480190Y-68062819D01*
X192480190Y-68062819D02*
X192289714Y-68062819D01*
X192289714Y-68062819D02*
X192194476Y-68015200D01*
X192194476Y-68015200D02*
X192146857Y-67967580D01*
X192146857Y-67967580D02*
X192099238Y-67872342D01*
X192099238Y-67872342D02*
X192099238Y-67634247D01*
X192099238Y-67634247D02*
X192146857Y-67539009D01*
X192146857Y-67539009D02*
X192194476Y-67491390D01*
X192194476Y-67491390D02*
X192289714Y-67443771D01*
X192289714Y-67443771D02*
X192480190Y-67443771D01*
X192480190Y-67443771D02*
X192575428Y-67491390D01*
X192575428Y-67491390D02*
X192623047Y-67539009D01*
X192623047Y-67539009D02*
X192670666Y-67634247D01*
X149400785Y-109056819D02*
X149400785Y-109866342D01*
X149400785Y-109866342D02*
X149353166Y-109961580D01*
X149353166Y-109961580D02*
X149305547Y-110009200D01*
X149305547Y-110009200D02*
X149210309Y-110056819D01*
X149210309Y-110056819D02*
X149019833Y-110056819D01*
X149019833Y-110056819D02*
X148924595Y-110009200D01*
X148924595Y-110009200D02*
X148876976Y-109961580D01*
X148876976Y-109961580D02*
X148829357Y-109866342D01*
X148829357Y-109866342D02*
X148829357Y-109056819D01*
X147924595Y-109056819D02*
X148115071Y-109056819D01*
X148115071Y-109056819D02*
X148210309Y-109104438D01*
X148210309Y-109104438D02*
X148257928Y-109152057D01*
X148257928Y-109152057D02*
X148353166Y-109294914D01*
X148353166Y-109294914D02*
X148400785Y-109485390D01*
X148400785Y-109485390D02*
X148400785Y-109866342D01*
X148400785Y-109866342D02*
X148353166Y-109961580D01*
X148353166Y-109961580D02*
X148305547Y-110009200D01*
X148305547Y-110009200D02*
X148210309Y-110056819D01*
X148210309Y-110056819D02*
X148019833Y-110056819D01*
X148019833Y-110056819D02*
X147924595Y-110009200D01*
X147924595Y-110009200D02*
X147876976Y-109961580D01*
X147876976Y-109961580D02*
X147829357Y-109866342D01*
X147829357Y-109866342D02*
X147829357Y-109628247D01*
X147829357Y-109628247D02*
X147876976Y-109533009D01*
X147876976Y-109533009D02*
X147924595Y-109485390D01*
X147924595Y-109485390D02*
X148019833Y-109437771D01*
X148019833Y-109437771D02*
X148210309Y-109437771D01*
X148210309Y-109437771D02*
X148305547Y-109485390D01*
X148305547Y-109485390D02*
X148353166Y-109533009D01*
X148353166Y-109533009D02*
X148400785Y-109628247D01*
X147210309Y-109056819D02*
X147115071Y-109056819D01*
X147115071Y-109056819D02*
X147019833Y-109104438D01*
X147019833Y-109104438D02*
X146972214Y-109152057D01*
X146972214Y-109152057D02*
X146924595Y-109247295D01*
X146924595Y-109247295D02*
X146876976Y-109437771D01*
X146876976Y-109437771D02*
X146876976Y-109675866D01*
X146876976Y-109675866D02*
X146924595Y-109866342D01*
X146924595Y-109866342D02*
X146972214Y-109961580D01*
X146972214Y-109961580D02*
X147019833Y-110009200D01*
X147019833Y-110009200D02*
X147115071Y-110056819D01*
X147115071Y-110056819D02*
X147210309Y-110056819D01*
X147210309Y-110056819D02*
X147305547Y-110009200D01*
X147305547Y-110009200D02*
X147353166Y-109961580D01*
X147353166Y-109961580D02*
X147400785Y-109866342D01*
X147400785Y-109866342D02*
X147448404Y-109675866D01*
X147448404Y-109675866D02*
X147448404Y-109437771D01*
X147448404Y-109437771D02*
X147400785Y-109247295D01*
X147400785Y-109247295D02*
X147353166Y-109152057D01*
X147353166Y-109152057D02*
X147305547Y-109104438D01*
X147305547Y-109104438D02*
X147210309Y-109056819D01*
X146496023Y-109152057D02*
X146448404Y-109104438D01*
X146448404Y-109104438D02*
X146353166Y-109056819D01*
X146353166Y-109056819D02*
X146115071Y-109056819D01*
X146115071Y-109056819D02*
X146019833Y-109104438D01*
X146019833Y-109104438D02*
X145972214Y-109152057D01*
X145972214Y-109152057D02*
X145924595Y-109247295D01*
X145924595Y-109247295D02*
X145924595Y-109342533D01*
X145924595Y-109342533D02*
X145972214Y-109485390D01*
X145972214Y-109485390D02*
X146543642Y-110056819D01*
X146543642Y-110056819D02*
X145924595Y-110056819D01*
X174129580Y-131512952D02*
X174177200Y-131465333D01*
X174177200Y-131465333D02*
X174224819Y-131322476D01*
X174224819Y-131322476D02*
X174224819Y-131227238D01*
X174224819Y-131227238D02*
X174177200Y-131084381D01*
X174177200Y-131084381D02*
X174081961Y-130989143D01*
X174081961Y-130989143D02*
X173986723Y-130941524D01*
X173986723Y-130941524D02*
X173796247Y-130893905D01*
X173796247Y-130893905D02*
X173653390Y-130893905D01*
X173653390Y-130893905D02*
X173462914Y-130941524D01*
X173462914Y-130941524D02*
X173367676Y-130989143D01*
X173367676Y-130989143D02*
X173272438Y-131084381D01*
X173272438Y-131084381D02*
X173224819Y-131227238D01*
X173224819Y-131227238D02*
X173224819Y-131322476D01*
X173224819Y-131322476D02*
X173272438Y-131465333D01*
X173272438Y-131465333D02*
X173320057Y-131512952D01*
X173224819Y-132370095D02*
X173224819Y-132179619D01*
X173224819Y-132179619D02*
X173272438Y-132084381D01*
X173272438Y-132084381D02*
X173320057Y-132036762D01*
X173320057Y-132036762D02*
X173462914Y-131941524D01*
X173462914Y-131941524D02*
X173653390Y-131893905D01*
X173653390Y-131893905D02*
X174034342Y-131893905D01*
X174034342Y-131893905D02*
X174129580Y-131941524D01*
X174129580Y-131941524D02*
X174177200Y-131989143D01*
X174177200Y-131989143D02*
X174224819Y-132084381D01*
X174224819Y-132084381D02*
X174224819Y-132274857D01*
X174224819Y-132274857D02*
X174177200Y-132370095D01*
X174177200Y-132370095D02*
X174129580Y-132417714D01*
X174129580Y-132417714D02*
X174034342Y-132465333D01*
X174034342Y-132465333D02*
X173796247Y-132465333D01*
X173796247Y-132465333D02*
X173701009Y-132417714D01*
X173701009Y-132417714D02*
X173653390Y-132370095D01*
X173653390Y-132370095D02*
X173605771Y-132274857D01*
X173605771Y-132274857D02*
X173605771Y-132084381D01*
X173605771Y-132084381D02*
X173653390Y-131989143D01*
X173653390Y-131989143D02*
X173701009Y-131941524D01*
X173701009Y-131941524D02*
X173796247Y-131893905D01*
X174224819Y-133417714D02*
X174224819Y-132846286D01*
X174224819Y-133132000D02*
X173224819Y-133132000D01*
X173224819Y-133132000D02*
X173367676Y-133036762D01*
X173367676Y-133036762D02*
X173462914Y-132941524D01*
X173462914Y-132941524D02*
X173510533Y-132846286D01*
X173224819Y-134036762D02*
X173224819Y-134132000D01*
X173224819Y-134132000D02*
X173272438Y-134227238D01*
X173272438Y-134227238D02*
X173320057Y-134274857D01*
X173320057Y-134274857D02*
X173415295Y-134322476D01*
X173415295Y-134322476D02*
X173605771Y-134370095D01*
X173605771Y-134370095D02*
X173843866Y-134370095D01*
X173843866Y-134370095D02*
X174034342Y-134322476D01*
X174034342Y-134322476D02*
X174129580Y-134274857D01*
X174129580Y-134274857D02*
X174177200Y-134227238D01*
X174177200Y-134227238D02*
X174224819Y-134132000D01*
X174224819Y-134132000D02*
X174224819Y-134036762D01*
X174224819Y-134036762D02*
X174177200Y-133941524D01*
X174177200Y-133941524D02*
X174129580Y-133893905D01*
X174129580Y-133893905D02*
X174034342Y-133846286D01*
X174034342Y-133846286D02*
X173843866Y-133798667D01*
X173843866Y-133798667D02*
X173605771Y-133798667D01*
X173605771Y-133798667D02*
X173415295Y-133846286D01*
X173415295Y-133846286D02*
X173320057Y-133893905D01*
X173320057Y-133893905D02*
X173272438Y-133941524D01*
X173272438Y-133941524D02*
X173224819Y-134036762D01*
X173687580Y-151171452D02*
X173735200Y-151123833D01*
X173735200Y-151123833D02*
X173782819Y-150980976D01*
X173782819Y-150980976D02*
X173782819Y-150885738D01*
X173782819Y-150885738D02*
X173735200Y-150742881D01*
X173735200Y-150742881D02*
X173639961Y-150647643D01*
X173639961Y-150647643D02*
X173544723Y-150600024D01*
X173544723Y-150600024D02*
X173354247Y-150552405D01*
X173354247Y-150552405D02*
X173211390Y-150552405D01*
X173211390Y-150552405D02*
X173020914Y-150600024D01*
X173020914Y-150600024D02*
X172925676Y-150647643D01*
X172925676Y-150647643D02*
X172830438Y-150742881D01*
X172830438Y-150742881D02*
X172782819Y-150885738D01*
X172782819Y-150885738D02*
X172782819Y-150980976D01*
X172782819Y-150980976D02*
X172830438Y-151123833D01*
X172830438Y-151123833D02*
X172878057Y-151171452D01*
X172782819Y-152028595D02*
X172782819Y-151838119D01*
X172782819Y-151838119D02*
X172830438Y-151742881D01*
X172830438Y-151742881D02*
X172878057Y-151695262D01*
X172878057Y-151695262D02*
X173020914Y-151600024D01*
X173020914Y-151600024D02*
X173211390Y-151552405D01*
X173211390Y-151552405D02*
X173592342Y-151552405D01*
X173592342Y-151552405D02*
X173687580Y-151600024D01*
X173687580Y-151600024D02*
X173735200Y-151647643D01*
X173735200Y-151647643D02*
X173782819Y-151742881D01*
X173782819Y-151742881D02*
X173782819Y-151933357D01*
X173782819Y-151933357D02*
X173735200Y-152028595D01*
X173735200Y-152028595D02*
X173687580Y-152076214D01*
X173687580Y-152076214D02*
X173592342Y-152123833D01*
X173592342Y-152123833D02*
X173354247Y-152123833D01*
X173354247Y-152123833D02*
X173259009Y-152076214D01*
X173259009Y-152076214D02*
X173211390Y-152028595D01*
X173211390Y-152028595D02*
X173163771Y-151933357D01*
X173163771Y-151933357D02*
X173163771Y-151742881D01*
X173163771Y-151742881D02*
X173211390Y-151647643D01*
X173211390Y-151647643D02*
X173259009Y-151600024D01*
X173259009Y-151600024D02*
X173354247Y-151552405D01*
X173782819Y-153076214D02*
X173782819Y-152504786D01*
X173782819Y-152790500D02*
X172782819Y-152790500D01*
X172782819Y-152790500D02*
X172925676Y-152695262D01*
X172925676Y-152695262D02*
X173020914Y-152600024D01*
X173020914Y-152600024D02*
X173068533Y-152504786D01*
X173782819Y-153552405D02*
X173782819Y-153742881D01*
X173782819Y-153742881D02*
X173735200Y-153838119D01*
X173735200Y-153838119D02*
X173687580Y-153885738D01*
X173687580Y-153885738D02*
X173544723Y-153980976D01*
X173544723Y-153980976D02*
X173354247Y-154028595D01*
X173354247Y-154028595D02*
X172973295Y-154028595D01*
X172973295Y-154028595D02*
X172878057Y-153980976D01*
X172878057Y-153980976D02*
X172830438Y-153933357D01*
X172830438Y-153933357D02*
X172782819Y-153838119D01*
X172782819Y-153838119D02*
X172782819Y-153647643D01*
X172782819Y-153647643D02*
X172830438Y-153552405D01*
X172830438Y-153552405D02*
X172878057Y-153504786D01*
X172878057Y-153504786D02*
X172973295Y-153457167D01*
X172973295Y-153457167D02*
X173211390Y-153457167D01*
X173211390Y-153457167D02*
X173306628Y-153504786D01*
X173306628Y-153504786D02*
X173354247Y-153552405D01*
X173354247Y-153552405D02*
X173401866Y-153647643D01*
X173401866Y-153647643D02*
X173401866Y-153838119D01*
X173401866Y-153838119D02*
X173354247Y-153933357D01*
X173354247Y-153933357D02*
X173306628Y-153980976D01*
X173306628Y-153980976D02*
X173211390Y-154028595D01*
X195625580Y-201616952D02*
X195673200Y-201569333D01*
X195673200Y-201569333D02*
X195720819Y-201426476D01*
X195720819Y-201426476D02*
X195720819Y-201331238D01*
X195720819Y-201331238D02*
X195673200Y-201188381D01*
X195673200Y-201188381D02*
X195577961Y-201093143D01*
X195577961Y-201093143D02*
X195482723Y-201045524D01*
X195482723Y-201045524D02*
X195292247Y-200997905D01*
X195292247Y-200997905D02*
X195149390Y-200997905D01*
X195149390Y-200997905D02*
X194958914Y-201045524D01*
X194958914Y-201045524D02*
X194863676Y-201093143D01*
X194863676Y-201093143D02*
X194768438Y-201188381D01*
X194768438Y-201188381D02*
X194720819Y-201331238D01*
X194720819Y-201331238D02*
X194720819Y-201426476D01*
X194720819Y-201426476D02*
X194768438Y-201569333D01*
X194768438Y-201569333D02*
X194816057Y-201616952D01*
X195054152Y-202474095D02*
X195720819Y-202474095D01*
X194673200Y-202236000D02*
X195387485Y-201997905D01*
X195387485Y-201997905D02*
X195387485Y-202616952D01*
X194720819Y-203188381D02*
X194720819Y-203283619D01*
X194720819Y-203283619D02*
X194768438Y-203378857D01*
X194768438Y-203378857D02*
X194816057Y-203426476D01*
X194816057Y-203426476D02*
X194911295Y-203474095D01*
X194911295Y-203474095D02*
X195101771Y-203521714D01*
X195101771Y-203521714D02*
X195339866Y-203521714D01*
X195339866Y-203521714D02*
X195530342Y-203474095D01*
X195530342Y-203474095D02*
X195625580Y-203426476D01*
X195625580Y-203426476D02*
X195673200Y-203378857D01*
X195673200Y-203378857D02*
X195720819Y-203283619D01*
X195720819Y-203283619D02*
X195720819Y-203188381D01*
X195720819Y-203188381D02*
X195673200Y-203093143D01*
X195673200Y-203093143D02*
X195625580Y-203045524D01*
X195625580Y-203045524D02*
X195530342Y-202997905D01*
X195530342Y-202997905D02*
X195339866Y-202950286D01*
X195339866Y-202950286D02*
X195101771Y-202950286D01*
X195101771Y-202950286D02*
X194911295Y-202997905D01*
X194911295Y-202997905D02*
X194816057Y-203045524D01*
X194816057Y-203045524D02*
X194768438Y-203093143D01*
X194768438Y-203093143D02*
X194720819Y-203188381D01*
X194720819Y-204378857D02*
X194720819Y-204188381D01*
X194720819Y-204188381D02*
X194768438Y-204093143D01*
X194768438Y-204093143D02*
X194816057Y-204045524D01*
X194816057Y-204045524D02*
X194958914Y-203950286D01*
X194958914Y-203950286D02*
X195149390Y-203902667D01*
X195149390Y-203902667D02*
X195530342Y-203902667D01*
X195530342Y-203902667D02*
X195625580Y-203950286D01*
X195625580Y-203950286D02*
X195673200Y-203997905D01*
X195673200Y-203997905D02*
X195720819Y-204093143D01*
X195720819Y-204093143D02*
X195720819Y-204283619D01*
X195720819Y-204283619D02*
X195673200Y-204378857D01*
X195673200Y-204378857D02*
X195625580Y-204426476D01*
X195625580Y-204426476D02*
X195530342Y-204474095D01*
X195530342Y-204474095D02*
X195292247Y-204474095D01*
X195292247Y-204474095D02*
X195197009Y-204426476D01*
X195197009Y-204426476D02*
X195149390Y-204378857D01*
X195149390Y-204378857D02*
X195101771Y-204283619D01*
X195101771Y-204283619D02*
X195101771Y-204093143D01*
X195101771Y-204093143D02*
X195149390Y-203997905D01*
X195149390Y-203997905D02*
X195197009Y-203950286D01*
X195197009Y-203950286D02*
X195292247Y-203902667D01*
X172003580Y-131512952D02*
X172051200Y-131465333D01*
X172051200Y-131465333D02*
X172098819Y-131322476D01*
X172098819Y-131322476D02*
X172098819Y-131227238D01*
X172098819Y-131227238D02*
X172051200Y-131084381D01*
X172051200Y-131084381D02*
X171955961Y-130989143D01*
X171955961Y-130989143D02*
X171860723Y-130941524D01*
X171860723Y-130941524D02*
X171670247Y-130893905D01*
X171670247Y-130893905D02*
X171527390Y-130893905D01*
X171527390Y-130893905D02*
X171336914Y-130941524D01*
X171336914Y-130941524D02*
X171241676Y-130989143D01*
X171241676Y-130989143D02*
X171146438Y-131084381D01*
X171146438Y-131084381D02*
X171098819Y-131227238D01*
X171098819Y-131227238D02*
X171098819Y-131322476D01*
X171098819Y-131322476D02*
X171146438Y-131465333D01*
X171146438Y-131465333D02*
X171194057Y-131512952D01*
X171098819Y-132370095D02*
X171098819Y-132179619D01*
X171098819Y-132179619D02*
X171146438Y-132084381D01*
X171146438Y-132084381D02*
X171194057Y-132036762D01*
X171194057Y-132036762D02*
X171336914Y-131941524D01*
X171336914Y-131941524D02*
X171527390Y-131893905D01*
X171527390Y-131893905D02*
X171908342Y-131893905D01*
X171908342Y-131893905D02*
X172003580Y-131941524D01*
X172003580Y-131941524D02*
X172051200Y-131989143D01*
X172051200Y-131989143D02*
X172098819Y-132084381D01*
X172098819Y-132084381D02*
X172098819Y-132274857D01*
X172098819Y-132274857D02*
X172051200Y-132370095D01*
X172051200Y-132370095D02*
X172003580Y-132417714D01*
X172003580Y-132417714D02*
X171908342Y-132465333D01*
X171908342Y-132465333D02*
X171670247Y-132465333D01*
X171670247Y-132465333D02*
X171575009Y-132417714D01*
X171575009Y-132417714D02*
X171527390Y-132370095D01*
X171527390Y-132370095D02*
X171479771Y-132274857D01*
X171479771Y-132274857D02*
X171479771Y-132084381D01*
X171479771Y-132084381D02*
X171527390Y-131989143D01*
X171527390Y-131989143D02*
X171575009Y-131941524D01*
X171575009Y-131941524D02*
X171670247Y-131893905D01*
X172098819Y-133417714D02*
X172098819Y-132846286D01*
X172098819Y-133132000D02*
X171098819Y-133132000D01*
X171098819Y-133132000D02*
X171241676Y-133036762D01*
X171241676Y-133036762D02*
X171336914Y-132941524D01*
X171336914Y-132941524D02*
X171384533Y-132846286D01*
X171194057Y-133798667D02*
X171146438Y-133846286D01*
X171146438Y-133846286D02*
X171098819Y-133941524D01*
X171098819Y-133941524D02*
X171098819Y-134179619D01*
X171098819Y-134179619D02*
X171146438Y-134274857D01*
X171146438Y-134274857D02*
X171194057Y-134322476D01*
X171194057Y-134322476D02*
X171289295Y-134370095D01*
X171289295Y-134370095D02*
X171384533Y-134370095D01*
X171384533Y-134370095D02*
X171527390Y-134322476D01*
X171527390Y-134322476D02*
X172098819Y-133751048D01*
X172098819Y-133751048D02*
X172098819Y-134370095D01*
X152615547Y-108278819D02*
X152948880Y-107802628D01*
X153186975Y-108278819D02*
X153186975Y-107278819D01*
X153186975Y-107278819D02*
X152806023Y-107278819D01*
X152806023Y-107278819D02*
X152710785Y-107326438D01*
X152710785Y-107326438D02*
X152663166Y-107374057D01*
X152663166Y-107374057D02*
X152615547Y-107469295D01*
X152615547Y-107469295D02*
X152615547Y-107612152D01*
X152615547Y-107612152D02*
X152663166Y-107707390D01*
X152663166Y-107707390D02*
X152710785Y-107755009D01*
X152710785Y-107755009D02*
X152806023Y-107802628D01*
X152806023Y-107802628D02*
X153186975Y-107802628D01*
X151758404Y-107278819D02*
X151948880Y-107278819D01*
X151948880Y-107278819D02*
X152044118Y-107326438D01*
X152044118Y-107326438D02*
X152091737Y-107374057D01*
X152091737Y-107374057D02*
X152186975Y-107516914D01*
X152186975Y-107516914D02*
X152234594Y-107707390D01*
X152234594Y-107707390D02*
X152234594Y-108088342D01*
X152234594Y-108088342D02*
X152186975Y-108183580D01*
X152186975Y-108183580D02*
X152139356Y-108231200D01*
X152139356Y-108231200D02*
X152044118Y-108278819D01*
X152044118Y-108278819D02*
X151853642Y-108278819D01*
X151853642Y-108278819D02*
X151758404Y-108231200D01*
X151758404Y-108231200D02*
X151710785Y-108183580D01*
X151710785Y-108183580D02*
X151663166Y-108088342D01*
X151663166Y-108088342D02*
X151663166Y-107850247D01*
X151663166Y-107850247D02*
X151710785Y-107755009D01*
X151710785Y-107755009D02*
X151758404Y-107707390D01*
X151758404Y-107707390D02*
X151853642Y-107659771D01*
X151853642Y-107659771D02*
X152044118Y-107659771D01*
X152044118Y-107659771D02*
X152139356Y-107707390D01*
X152139356Y-107707390D02*
X152186975Y-107755009D01*
X152186975Y-107755009D02*
X152234594Y-107850247D01*
X150710785Y-108278819D02*
X151282213Y-108278819D01*
X150996499Y-108278819D02*
X150996499Y-107278819D01*
X150996499Y-107278819D02*
X151091737Y-107421676D01*
X151091737Y-107421676D02*
X151186975Y-107516914D01*
X151186975Y-107516914D02*
X151282213Y-107564533D01*
X149853642Y-107612152D02*
X149853642Y-108278819D01*
X150091737Y-107231200D02*
X150329832Y-107945485D01*
X150329832Y-107945485D02*
X149710785Y-107945485D01*
X165397047Y-141533580D02*
X165444666Y-141581200D01*
X165444666Y-141581200D02*
X165587523Y-141628819D01*
X165587523Y-141628819D02*
X165682761Y-141628819D01*
X165682761Y-141628819D02*
X165825618Y-141581200D01*
X165825618Y-141581200D02*
X165920856Y-141485961D01*
X165920856Y-141485961D02*
X165968475Y-141390723D01*
X165968475Y-141390723D02*
X166016094Y-141200247D01*
X166016094Y-141200247D02*
X166016094Y-141057390D01*
X166016094Y-141057390D02*
X165968475Y-140866914D01*
X165968475Y-140866914D02*
X165920856Y-140771676D01*
X165920856Y-140771676D02*
X165825618Y-140676438D01*
X165825618Y-140676438D02*
X165682761Y-140628819D01*
X165682761Y-140628819D02*
X165587523Y-140628819D01*
X165587523Y-140628819D02*
X165444666Y-140676438D01*
X165444666Y-140676438D02*
X165397047Y-140724057D01*
X164539904Y-140628819D02*
X164730380Y-140628819D01*
X164730380Y-140628819D02*
X164825618Y-140676438D01*
X164825618Y-140676438D02*
X164873237Y-140724057D01*
X164873237Y-140724057D02*
X164968475Y-140866914D01*
X164968475Y-140866914D02*
X165016094Y-141057390D01*
X165016094Y-141057390D02*
X165016094Y-141438342D01*
X165016094Y-141438342D02*
X164968475Y-141533580D01*
X164968475Y-141533580D02*
X164920856Y-141581200D01*
X164920856Y-141581200D02*
X164825618Y-141628819D01*
X164825618Y-141628819D02*
X164635142Y-141628819D01*
X164635142Y-141628819D02*
X164539904Y-141581200D01*
X164539904Y-141581200D02*
X164492285Y-141533580D01*
X164492285Y-141533580D02*
X164444666Y-141438342D01*
X164444666Y-141438342D02*
X164444666Y-141200247D01*
X164444666Y-141200247D02*
X164492285Y-141105009D01*
X164492285Y-141105009D02*
X164539904Y-141057390D01*
X164539904Y-141057390D02*
X164635142Y-141009771D01*
X164635142Y-141009771D02*
X164825618Y-141009771D01*
X164825618Y-141009771D02*
X164920856Y-141057390D01*
X164920856Y-141057390D02*
X164968475Y-141105009D01*
X164968475Y-141105009D02*
X165016094Y-141200247D01*
X163492285Y-141628819D02*
X164063713Y-141628819D01*
X163777999Y-141628819D02*
X163777999Y-140628819D01*
X163777999Y-140628819D02*
X163873237Y-140771676D01*
X163873237Y-140771676D02*
X163968475Y-140866914D01*
X163968475Y-140866914D02*
X164063713Y-140914533D01*
X163158951Y-140628819D02*
X162492285Y-140628819D01*
X162492285Y-140628819D02*
X162920856Y-141628819D01*
X155751047Y-227557580D02*
X155798666Y-227605200D01*
X155798666Y-227605200D02*
X155941523Y-227652819D01*
X155941523Y-227652819D02*
X156036761Y-227652819D01*
X156036761Y-227652819D02*
X156179618Y-227605200D01*
X156179618Y-227605200D02*
X156274856Y-227509961D01*
X156274856Y-227509961D02*
X156322475Y-227414723D01*
X156322475Y-227414723D02*
X156370094Y-227224247D01*
X156370094Y-227224247D02*
X156370094Y-227081390D01*
X156370094Y-227081390D02*
X156322475Y-226890914D01*
X156322475Y-226890914D02*
X156274856Y-226795676D01*
X156274856Y-226795676D02*
X156179618Y-226700438D01*
X156179618Y-226700438D02*
X156036761Y-226652819D01*
X156036761Y-226652819D02*
X155941523Y-226652819D01*
X155941523Y-226652819D02*
X155798666Y-226700438D01*
X155798666Y-226700438D02*
X155751047Y-226748057D01*
X155370094Y-226748057D02*
X155322475Y-226700438D01*
X155322475Y-226700438D02*
X155227237Y-226652819D01*
X155227237Y-226652819D02*
X154989142Y-226652819D01*
X154989142Y-226652819D02*
X154893904Y-226700438D01*
X154893904Y-226700438D02*
X154846285Y-226748057D01*
X154846285Y-226748057D02*
X154798666Y-226843295D01*
X154798666Y-226843295D02*
X154798666Y-226938533D01*
X154798666Y-226938533D02*
X154846285Y-227081390D01*
X154846285Y-227081390D02*
X155417713Y-227652819D01*
X155417713Y-227652819D02*
X154798666Y-227652819D01*
X154179618Y-226652819D02*
X154084380Y-226652819D01*
X154084380Y-226652819D02*
X153989142Y-226700438D01*
X153989142Y-226700438D02*
X153941523Y-226748057D01*
X153941523Y-226748057D02*
X153893904Y-226843295D01*
X153893904Y-226843295D02*
X153846285Y-227033771D01*
X153846285Y-227033771D02*
X153846285Y-227271866D01*
X153846285Y-227271866D02*
X153893904Y-227462342D01*
X153893904Y-227462342D02*
X153941523Y-227557580D01*
X153941523Y-227557580D02*
X153989142Y-227605200D01*
X153989142Y-227605200D02*
X154084380Y-227652819D01*
X154084380Y-227652819D02*
X154179618Y-227652819D01*
X154179618Y-227652819D02*
X154274856Y-227605200D01*
X154274856Y-227605200D02*
X154322475Y-227557580D01*
X154322475Y-227557580D02*
X154370094Y-227462342D01*
X154370094Y-227462342D02*
X154417713Y-227271866D01*
X154417713Y-227271866D02*
X154417713Y-227033771D01*
X154417713Y-227033771D02*
X154370094Y-226843295D01*
X154370094Y-226843295D02*
X154322475Y-226748057D01*
X154322475Y-226748057D02*
X154274856Y-226700438D01*
X154274856Y-226700438D02*
X154179618Y-226652819D01*
X152893904Y-227652819D02*
X153465332Y-227652819D01*
X153179618Y-227652819D02*
X153179618Y-226652819D01*
X153179618Y-226652819D02*
X153274856Y-226795676D01*
X153274856Y-226795676D02*
X153370094Y-226890914D01*
X153370094Y-226890914D02*
X153465332Y-226938533D01*
X200283319Y-89178952D02*
X199807128Y-88845619D01*
X200283319Y-88607524D02*
X199283319Y-88607524D01*
X199283319Y-88607524D02*
X199283319Y-88988476D01*
X199283319Y-88988476D02*
X199330938Y-89083714D01*
X199330938Y-89083714D02*
X199378557Y-89131333D01*
X199378557Y-89131333D02*
X199473795Y-89178952D01*
X199473795Y-89178952D02*
X199616652Y-89178952D01*
X199616652Y-89178952D02*
X199711890Y-89131333D01*
X199711890Y-89131333D02*
X199759509Y-89083714D01*
X199759509Y-89083714D02*
X199807128Y-88988476D01*
X199807128Y-88988476D02*
X199807128Y-88607524D01*
X199283319Y-90036095D02*
X199283319Y-89845619D01*
X199283319Y-89845619D02*
X199330938Y-89750381D01*
X199330938Y-89750381D02*
X199378557Y-89702762D01*
X199378557Y-89702762D02*
X199521414Y-89607524D01*
X199521414Y-89607524D02*
X199711890Y-89559905D01*
X199711890Y-89559905D02*
X200092842Y-89559905D01*
X200092842Y-89559905D02*
X200188080Y-89607524D01*
X200188080Y-89607524D02*
X200235700Y-89655143D01*
X200235700Y-89655143D02*
X200283319Y-89750381D01*
X200283319Y-89750381D02*
X200283319Y-89940857D01*
X200283319Y-89940857D02*
X200235700Y-90036095D01*
X200235700Y-90036095D02*
X200188080Y-90083714D01*
X200188080Y-90083714D02*
X200092842Y-90131333D01*
X200092842Y-90131333D02*
X199854747Y-90131333D01*
X199854747Y-90131333D02*
X199759509Y-90083714D01*
X199759509Y-90083714D02*
X199711890Y-90036095D01*
X199711890Y-90036095D02*
X199664271Y-89940857D01*
X199664271Y-89940857D02*
X199664271Y-89750381D01*
X199664271Y-89750381D02*
X199711890Y-89655143D01*
X199711890Y-89655143D02*
X199759509Y-89607524D01*
X199759509Y-89607524D02*
X199854747Y-89559905D01*
X199378557Y-90512286D02*
X199330938Y-90559905D01*
X199330938Y-90559905D02*
X199283319Y-90655143D01*
X199283319Y-90655143D02*
X199283319Y-90893238D01*
X199283319Y-90893238D02*
X199330938Y-90988476D01*
X199330938Y-90988476D02*
X199378557Y-91036095D01*
X199378557Y-91036095D02*
X199473795Y-91083714D01*
X199473795Y-91083714D02*
X199569033Y-91083714D01*
X199569033Y-91083714D02*
X199711890Y-91036095D01*
X199711890Y-91036095D02*
X200283319Y-90464667D01*
X200283319Y-90464667D02*
X200283319Y-91083714D01*
X199283319Y-91702762D02*
X199283319Y-91798000D01*
X199283319Y-91798000D02*
X199330938Y-91893238D01*
X199330938Y-91893238D02*
X199378557Y-91940857D01*
X199378557Y-91940857D02*
X199473795Y-91988476D01*
X199473795Y-91988476D02*
X199664271Y-92036095D01*
X199664271Y-92036095D02*
X199902366Y-92036095D01*
X199902366Y-92036095D02*
X200092842Y-91988476D01*
X200092842Y-91988476D02*
X200188080Y-91940857D01*
X200188080Y-91940857D02*
X200235700Y-91893238D01*
X200235700Y-91893238D02*
X200283319Y-91798000D01*
X200283319Y-91798000D02*
X200283319Y-91702762D01*
X200283319Y-91702762D02*
X200235700Y-91607524D01*
X200235700Y-91607524D02*
X200188080Y-91559905D01*
X200188080Y-91559905D02*
X200092842Y-91512286D01*
X200092842Y-91512286D02*
X199902366Y-91464667D01*
X199902366Y-91464667D02*
X199664271Y-91464667D01*
X199664271Y-91464667D02*
X199473795Y-91512286D01*
X199473795Y-91512286D02*
X199378557Y-91559905D01*
X199378557Y-91559905D02*
X199330938Y-91607524D01*
X199330938Y-91607524D02*
X199283319Y-91702762D01*
X197911580Y-216348952D02*
X197959200Y-216301333D01*
X197959200Y-216301333D02*
X198006819Y-216158476D01*
X198006819Y-216158476D02*
X198006819Y-216063238D01*
X198006819Y-216063238D02*
X197959200Y-215920381D01*
X197959200Y-215920381D02*
X197863961Y-215825143D01*
X197863961Y-215825143D02*
X197768723Y-215777524D01*
X197768723Y-215777524D02*
X197578247Y-215729905D01*
X197578247Y-215729905D02*
X197435390Y-215729905D01*
X197435390Y-215729905D02*
X197244914Y-215777524D01*
X197244914Y-215777524D02*
X197149676Y-215825143D01*
X197149676Y-215825143D02*
X197054438Y-215920381D01*
X197054438Y-215920381D02*
X197006819Y-216063238D01*
X197006819Y-216063238D02*
X197006819Y-216158476D01*
X197006819Y-216158476D02*
X197054438Y-216301333D01*
X197054438Y-216301333D02*
X197102057Y-216348952D01*
X197340152Y-217206095D02*
X198006819Y-217206095D01*
X196959200Y-216968000D02*
X197673485Y-216729905D01*
X197673485Y-216729905D02*
X197673485Y-217348952D01*
X197006819Y-217920381D02*
X197006819Y-218015619D01*
X197006819Y-218015619D02*
X197054438Y-218110857D01*
X197054438Y-218110857D02*
X197102057Y-218158476D01*
X197102057Y-218158476D02*
X197197295Y-218206095D01*
X197197295Y-218206095D02*
X197387771Y-218253714D01*
X197387771Y-218253714D02*
X197625866Y-218253714D01*
X197625866Y-218253714D02*
X197816342Y-218206095D01*
X197816342Y-218206095D02*
X197911580Y-218158476D01*
X197911580Y-218158476D02*
X197959200Y-218110857D01*
X197959200Y-218110857D02*
X198006819Y-218015619D01*
X198006819Y-218015619D02*
X198006819Y-217920381D01*
X198006819Y-217920381D02*
X197959200Y-217825143D01*
X197959200Y-217825143D02*
X197911580Y-217777524D01*
X197911580Y-217777524D02*
X197816342Y-217729905D01*
X197816342Y-217729905D02*
X197625866Y-217682286D01*
X197625866Y-217682286D02*
X197387771Y-217682286D01*
X197387771Y-217682286D02*
X197197295Y-217729905D01*
X197197295Y-217729905D02*
X197102057Y-217777524D01*
X197102057Y-217777524D02*
X197054438Y-217825143D01*
X197054438Y-217825143D02*
X197006819Y-217920381D01*
X197006819Y-218587048D02*
X197006819Y-219206095D01*
X197006819Y-219206095D02*
X197387771Y-218872762D01*
X197387771Y-218872762D02*
X197387771Y-219015619D01*
X197387771Y-219015619D02*
X197435390Y-219110857D01*
X197435390Y-219110857D02*
X197483009Y-219158476D01*
X197483009Y-219158476D02*
X197578247Y-219206095D01*
X197578247Y-219206095D02*
X197816342Y-219206095D01*
X197816342Y-219206095D02*
X197911580Y-219158476D01*
X197911580Y-219158476D02*
X197959200Y-219110857D01*
X197959200Y-219110857D02*
X198006819Y-219015619D01*
X198006819Y-219015619D02*
X198006819Y-218729905D01*
X198006819Y-218729905D02*
X197959200Y-218634667D01*
X197959200Y-218634667D02*
X197911580Y-218587048D01*
X196249319Y-89178952D02*
X195773128Y-88845619D01*
X196249319Y-88607524D02*
X195249319Y-88607524D01*
X195249319Y-88607524D02*
X195249319Y-88988476D01*
X195249319Y-88988476D02*
X195296938Y-89083714D01*
X195296938Y-89083714D02*
X195344557Y-89131333D01*
X195344557Y-89131333D02*
X195439795Y-89178952D01*
X195439795Y-89178952D02*
X195582652Y-89178952D01*
X195582652Y-89178952D02*
X195677890Y-89131333D01*
X195677890Y-89131333D02*
X195725509Y-89083714D01*
X195725509Y-89083714D02*
X195773128Y-88988476D01*
X195773128Y-88988476D02*
X195773128Y-88607524D01*
X195249319Y-90036095D02*
X195249319Y-89845619D01*
X195249319Y-89845619D02*
X195296938Y-89750381D01*
X195296938Y-89750381D02*
X195344557Y-89702762D01*
X195344557Y-89702762D02*
X195487414Y-89607524D01*
X195487414Y-89607524D02*
X195677890Y-89559905D01*
X195677890Y-89559905D02*
X196058842Y-89559905D01*
X196058842Y-89559905D02*
X196154080Y-89607524D01*
X196154080Y-89607524D02*
X196201700Y-89655143D01*
X196201700Y-89655143D02*
X196249319Y-89750381D01*
X196249319Y-89750381D02*
X196249319Y-89940857D01*
X196249319Y-89940857D02*
X196201700Y-90036095D01*
X196201700Y-90036095D02*
X196154080Y-90083714D01*
X196154080Y-90083714D02*
X196058842Y-90131333D01*
X196058842Y-90131333D02*
X195820747Y-90131333D01*
X195820747Y-90131333D02*
X195725509Y-90083714D01*
X195725509Y-90083714D02*
X195677890Y-90036095D01*
X195677890Y-90036095D02*
X195630271Y-89940857D01*
X195630271Y-89940857D02*
X195630271Y-89750381D01*
X195630271Y-89750381D02*
X195677890Y-89655143D01*
X195677890Y-89655143D02*
X195725509Y-89607524D01*
X195725509Y-89607524D02*
X195820747Y-89559905D01*
X195344557Y-90512286D02*
X195296938Y-90559905D01*
X195296938Y-90559905D02*
X195249319Y-90655143D01*
X195249319Y-90655143D02*
X195249319Y-90893238D01*
X195249319Y-90893238D02*
X195296938Y-90988476D01*
X195296938Y-90988476D02*
X195344557Y-91036095D01*
X195344557Y-91036095D02*
X195439795Y-91083714D01*
X195439795Y-91083714D02*
X195535033Y-91083714D01*
X195535033Y-91083714D02*
X195677890Y-91036095D01*
X195677890Y-91036095D02*
X196249319Y-90464667D01*
X196249319Y-90464667D02*
X196249319Y-91083714D01*
X195344557Y-91464667D02*
X195296938Y-91512286D01*
X195296938Y-91512286D02*
X195249319Y-91607524D01*
X195249319Y-91607524D02*
X195249319Y-91845619D01*
X195249319Y-91845619D02*
X195296938Y-91940857D01*
X195296938Y-91940857D02*
X195344557Y-91988476D01*
X195344557Y-91988476D02*
X195439795Y-92036095D01*
X195439795Y-92036095D02*
X195535033Y-92036095D01*
X195535033Y-92036095D02*
X195677890Y-91988476D01*
X195677890Y-91988476D02*
X196249319Y-91417048D01*
X196249319Y-91417048D02*
X196249319Y-92036095D01*
X185209047Y-157629580D02*
X185256666Y-157677200D01*
X185256666Y-157677200D02*
X185399523Y-157724819D01*
X185399523Y-157724819D02*
X185494761Y-157724819D01*
X185494761Y-157724819D02*
X185637618Y-157677200D01*
X185637618Y-157677200D02*
X185732856Y-157581961D01*
X185732856Y-157581961D02*
X185780475Y-157486723D01*
X185780475Y-157486723D02*
X185828094Y-157296247D01*
X185828094Y-157296247D02*
X185828094Y-157153390D01*
X185828094Y-157153390D02*
X185780475Y-156962914D01*
X185780475Y-156962914D02*
X185732856Y-156867676D01*
X185732856Y-156867676D02*
X185637618Y-156772438D01*
X185637618Y-156772438D02*
X185494761Y-156724819D01*
X185494761Y-156724819D02*
X185399523Y-156724819D01*
X185399523Y-156724819D02*
X185256666Y-156772438D01*
X185256666Y-156772438D02*
X185209047Y-156820057D01*
X184351904Y-156724819D02*
X184542380Y-156724819D01*
X184542380Y-156724819D02*
X184637618Y-156772438D01*
X184637618Y-156772438D02*
X184685237Y-156820057D01*
X184685237Y-156820057D02*
X184780475Y-156962914D01*
X184780475Y-156962914D02*
X184828094Y-157153390D01*
X184828094Y-157153390D02*
X184828094Y-157534342D01*
X184828094Y-157534342D02*
X184780475Y-157629580D01*
X184780475Y-157629580D02*
X184732856Y-157677200D01*
X184732856Y-157677200D02*
X184637618Y-157724819D01*
X184637618Y-157724819D02*
X184447142Y-157724819D01*
X184447142Y-157724819D02*
X184351904Y-157677200D01*
X184351904Y-157677200D02*
X184304285Y-157629580D01*
X184304285Y-157629580D02*
X184256666Y-157534342D01*
X184256666Y-157534342D02*
X184256666Y-157296247D01*
X184256666Y-157296247D02*
X184304285Y-157201009D01*
X184304285Y-157201009D02*
X184351904Y-157153390D01*
X184351904Y-157153390D02*
X184447142Y-157105771D01*
X184447142Y-157105771D02*
X184637618Y-157105771D01*
X184637618Y-157105771D02*
X184732856Y-157153390D01*
X184732856Y-157153390D02*
X184780475Y-157201009D01*
X184780475Y-157201009D02*
X184828094Y-157296247D01*
X183875713Y-156820057D02*
X183828094Y-156772438D01*
X183828094Y-156772438D02*
X183732856Y-156724819D01*
X183732856Y-156724819D02*
X183494761Y-156724819D01*
X183494761Y-156724819D02*
X183399523Y-156772438D01*
X183399523Y-156772438D02*
X183351904Y-156820057D01*
X183351904Y-156820057D02*
X183304285Y-156915295D01*
X183304285Y-156915295D02*
X183304285Y-157010533D01*
X183304285Y-157010533D02*
X183351904Y-157153390D01*
X183351904Y-157153390D02*
X183923332Y-157724819D01*
X183923332Y-157724819D02*
X183304285Y-157724819D01*
X182685237Y-156724819D02*
X182589999Y-156724819D01*
X182589999Y-156724819D02*
X182494761Y-156772438D01*
X182494761Y-156772438D02*
X182447142Y-156820057D01*
X182447142Y-156820057D02*
X182399523Y-156915295D01*
X182399523Y-156915295D02*
X182351904Y-157105771D01*
X182351904Y-157105771D02*
X182351904Y-157343866D01*
X182351904Y-157343866D02*
X182399523Y-157534342D01*
X182399523Y-157534342D02*
X182447142Y-157629580D01*
X182447142Y-157629580D02*
X182494761Y-157677200D01*
X182494761Y-157677200D02*
X182589999Y-157724819D01*
X182589999Y-157724819D02*
X182685237Y-157724819D01*
X182685237Y-157724819D02*
X182780475Y-157677200D01*
X182780475Y-157677200D02*
X182828094Y-157629580D01*
X182828094Y-157629580D02*
X182875713Y-157534342D01*
X182875713Y-157534342D02*
X182923332Y-157343866D01*
X182923332Y-157343866D02*
X182923332Y-157105771D01*
X182923332Y-157105771D02*
X182875713Y-156915295D01*
X182875713Y-156915295D02*
X182828094Y-156820057D01*
X182828094Y-156820057D02*
X182780475Y-156772438D01*
X182780475Y-156772438D02*
X182685237Y-156724819D01*
X178513580Y-151324952D02*
X178561200Y-151277333D01*
X178561200Y-151277333D02*
X178608819Y-151134476D01*
X178608819Y-151134476D02*
X178608819Y-151039238D01*
X178608819Y-151039238D02*
X178561200Y-150896381D01*
X178561200Y-150896381D02*
X178465961Y-150801143D01*
X178465961Y-150801143D02*
X178370723Y-150753524D01*
X178370723Y-150753524D02*
X178180247Y-150705905D01*
X178180247Y-150705905D02*
X178037390Y-150705905D01*
X178037390Y-150705905D02*
X177846914Y-150753524D01*
X177846914Y-150753524D02*
X177751676Y-150801143D01*
X177751676Y-150801143D02*
X177656438Y-150896381D01*
X177656438Y-150896381D02*
X177608819Y-151039238D01*
X177608819Y-151039238D02*
X177608819Y-151134476D01*
X177608819Y-151134476D02*
X177656438Y-151277333D01*
X177656438Y-151277333D02*
X177704057Y-151324952D01*
X177608819Y-152182095D02*
X177608819Y-151991619D01*
X177608819Y-151991619D02*
X177656438Y-151896381D01*
X177656438Y-151896381D02*
X177704057Y-151848762D01*
X177704057Y-151848762D02*
X177846914Y-151753524D01*
X177846914Y-151753524D02*
X178037390Y-151705905D01*
X178037390Y-151705905D02*
X178418342Y-151705905D01*
X178418342Y-151705905D02*
X178513580Y-151753524D01*
X178513580Y-151753524D02*
X178561200Y-151801143D01*
X178561200Y-151801143D02*
X178608819Y-151896381D01*
X178608819Y-151896381D02*
X178608819Y-152086857D01*
X178608819Y-152086857D02*
X178561200Y-152182095D01*
X178561200Y-152182095D02*
X178513580Y-152229714D01*
X178513580Y-152229714D02*
X178418342Y-152277333D01*
X178418342Y-152277333D02*
X178180247Y-152277333D01*
X178180247Y-152277333D02*
X178085009Y-152229714D01*
X178085009Y-152229714D02*
X178037390Y-152182095D01*
X178037390Y-152182095D02*
X177989771Y-152086857D01*
X177989771Y-152086857D02*
X177989771Y-151896381D01*
X177989771Y-151896381D02*
X178037390Y-151801143D01*
X178037390Y-151801143D02*
X178085009Y-151753524D01*
X178085009Y-151753524D02*
X178180247Y-151705905D01*
X178608819Y-153229714D02*
X178608819Y-152658286D01*
X178608819Y-152944000D02*
X177608819Y-152944000D01*
X177608819Y-152944000D02*
X177751676Y-152848762D01*
X177751676Y-152848762D02*
X177846914Y-152753524D01*
X177846914Y-152753524D02*
X177894533Y-152658286D01*
X177608819Y-154134476D02*
X177608819Y-153658286D01*
X177608819Y-153658286D02*
X178085009Y-153610667D01*
X178085009Y-153610667D02*
X178037390Y-153658286D01*
X178037390Y-153658286D02*
X177989771Y-153753524D01*
X177989771Y-153753524D02*
X177989771Y-153991619D01*
X177989771Y-153991619D02*
X178037390Y-154086857D01*
X178037390Y-154086857D02*
X178085009Y-154134476D01*
X178085009Y-154134476D02*
X178180247Y-154182095D01*
X178180247Y-154182095D02*
X178418342Y-154182095D01*
X178418342Y-154182095D02*
X178513580Y-154134476D01*
X178513580Y-154134476D02*
X178561200Y-154086857D01*
X178561200Y-154086857D02*
X178608819Y-153991619D01*
X178608819Y-153991619D02*
X178608819Y-153753524D01*
X178608819Y-153753524D02*
X178561200Y-153658286D01*
X178561200Y-153658286D02*
X178513580Y-153610667D01*
X148805547Y-94562819D02*
X149138880Y-94086628D01*
X149376975Y-94562819D02*
X149376975Y-93562819D01*
X149376975Y-93562819D02*
X148996023Y-93562819D01*
X148996023Y-93562819D02*
X148900785Y-93610438D01*
X148900785Y-93610438D02*
X148853166Y-93658057D01*
X148853166Y-93658057D02*
X148805547Y-93753295D01*
X148805547Y-93753295D02*
X148805547Y-93896152D01*
X148805547Y-93896152D02*
X148853166Y-93991390D01*
X148853166Y-93991390D02*
X148900785Y-94039009D01*
X148900785Y-94039009D02*
X148996023Y-94086628D01*
X148996023Y-94086628D02*
X149376975Y-94086628D01*
X147948404Y-93562819D02*
X148138880Y-93562819D01*
X148138880Y-93562819D02*
X148234118Y-93610438D01*
X148234118Y-93610438D02*
X148281737Y-93658057D01*
X148281737Y-93658057D02*
X148376975Y-93800914D01*
X148376975Y-93800914D02*
X148424594Y-93991390D01*
X148424594Y-93991390D02*
X148424594Y-94372342D01*
X148424594Y-94372342D02*
X148376975Y-94467580D01*
X148376975Y-94467580D02*
X148329356Y-94515200D01*
X148329356Y-94515200D02*
X148234118Y-94562819D01*
X148234118Y-94562819D02*
X148043642Y-94562819D01*
X148043642Y-94562819D02*
X147948404Y-94515200D01*
X147948404Y-94515200D02*
X147900785Y-94467580D01*
X147900785Y-94467580D02*
X147853166Y-94372342D01*
X147853166Y-94372342D02*
X147853166Y-94134247D01*
X147853166Y-94134247D02*
X147900785Y-94039009D01*
X147900785Y-94039009D02*
X147948404Y-93991390D01*
X147948404Y-93991390D02*
X148043642Y-93943771D01*
X148043642Y-93943771D02*
X148234118Y-93943771D01*
X148234118Y-93943771D02*
X148329356Y-93991390D01*
X148329356Y-93991390D02*
X148376975Y-94039009D01*
X148376975Y-94039009D02*
X148424594Y-94134247D01*
X147234118Y-93562819D02*
X147138880Y-93562819D01*
X147138880Y-93562819D02*
X147043642Y-93610438D01*
X147043642Y-93610438D02*
X146996023Y-93658057D01*
X146996023Y-93658057D02*
X146948404Y-93753295D01*
X146948404Y-93753295D02*
X146900785Y-93943771D01*
X146900785Y-93943771D02*
X146900785Y-94181866D01*
X146900785Y-94181866D02*
X146948404Y-94372342D01*
X146948404Y-94372342D02*
X146996023Y-94467580D01*
X146996023Y-94467580D02*
X147043642Y-94515200D01*
X147043642Y-94515200D02*
X147138880Y-94562819D01*
X147138880Y-94562819D02*
X147234118Y-94562819D01*
X147234118Y-94562819D02*
X147329356Y-94515200D01*
X147329356Y-94515200D02*
X147376975Y-94467580D01*
X147376975Y-94467580D02*
X147424594Y-94372342D01*
X147424594Y-94372342D02*
X147472213Y-94181866D01*
X147472213Y-94181866D02*
X147472213Y-93943771D01*
X147472213Y-93943771D02*
X147424594Y-93753295D01*
X147424594Y-93753295D02*
X147376975Y-93658057D01*
X147376975Y-93658057D02*
X147329356Y-93610438D01*
X147329356Y-93610438D02*
X147234118Y-93562819D01*
X146519832Y-93658057D02*
X146472213Y-93610438D01*
X146472213Y-93610438D02*
X146376975Y-93562819D01*
X146376975Y-93562819D02*
X146138880Y-93562819D01*
X146138880Y-93562819D02*
X146043642Y-93610438D01*
X146043642Y-93610438D02*
X145996023Y-93658057D01*
X145996023Y-93658057D02*
X145948404Y-93753295D01*
X145948404Y-93753295D02*
X145948404Y-93848533D01*
X145948404Y-93848533D02*
X145996023Y-93991390D01*
X145996023Y-93991390D02*
X146567451Y-94562819D01*
X146567451Y-94562819D02*
X145948404Y-94562819D01*
X185117580Y-151324952D02*
X185165200Y-151277333D01*
X185165200Y-151277333D02*
X185212819Y-151134476D01*
X185212819Y-151134476D02*
X185212819Y-151039238D01*
X185212819Y-151039238D02*
X185165200Y-150896381D01*
X185165200Y-150896381D02*
X185069961Y-150801143D01*
X185069961Y-150801143D02*
X184974723Y-150753524D01*
X184974723Y-150753524D02*
X184784247Y-150705905D01*
X184784247Y-150705905D02*
X184641390Y-150705905D01*
X184641390Y-150705905D02*
X184450914Y-150753524D01*
X184450914Y-150753524D02*
X184355676Y-150801143D01*
X184355676Y-150801143D02*
X184260438Y-150896381D01*
X184260438Y-150896381D02*
X184212819Y-151039238D01*
X184212819Y-151039238D02*
X184212819Y-151134476D01*
X184212819Y-151134476D02*
X184260438Y-151277333D01*
X184260438Y-151277333D02*
X184308057Y-151324952D01*
X184212819Y-152182095D02*
X184212819Y-151991619D01*
X184212819Y-151991619D02*
X184260438Y-151896381D01*
X184260438Y-151896381D02*
X184308057Y-151848762D01*
X184308057Y-151848762D02*
X184450914Y-151753524D01*
X184450914Y-151753524D02*
X184641390Y-151705905D01*
X184641390Y-151705905D02*
X185022342Y-151705905D01*
X185022342Y-151705905D02*
X185117580Y-151753524D01*
X185117580Y-151753524D02*
X185165200Y-151801143D01*
X185165200Y-151801143D02*
X185212819Y-151896381D01*
X185212819Y-151896381D02*
X185212819Y-152086857D01*
X185212819Y-152086857D02*
X185165200Y-152182095D01*
X185165200Y-152182095D02*
X185117580Y-152229714D01*
X185117580Y-152229714D02*
X185022342Y-152277333D01*
X185022342Y-152277333D02*
X184784247Y-152277333D01*
X184784247Y-152277333D02*
X184689009Y-152229714D01*
X184689009Y-152229714D02*
X184641390Y-152182095D01*
X184641390Y-152182095D02*
X184593771Y-152086857D01*
X184593771Y-152086857D02*
X184593771Y-151896381D01*
X184593771Y-151896381D02*
X184641390Y-151801143D01*
X184641390Y-151801143D02*
X184689009Y-151753524D01*
X184689009Y-151753524D02*
X184784247Y-151705905D01*
X185212819Y-153229714D02*
X185212819Y-152658286D01*
X185212819Y-152944000D02*
X184212819Y-152944000D01*
X184212819Y-152944000D02*
X184355676Y-152848762D01*
X184355676Y-152848762D02*
X184450914Y-152753524D01*
X184450914Y-152753524D02*
X184498533Y-152658286D01*
X184546152Y-154086857D02*
X185212819Y-154086857D01*
X184165200Y-153848762D02*
X184879485Y-153610667D01*
X184879485Y-153610667D02*
X184879485Y-154229714D01*
X185209047Y-147723580D02*
X185256666Y-147771200D01*
X185256666Y-147771200D02*
X185399523Y-147818819D01*
X185399523Y-147818819D02*
X185494761Y-147818819D01*
X185494761Y-147818819D02*
X185637618Y-147771200D01*
X185637618Y-147771200D02*
X185732856Y-147675961D01*
X185732856Y-147675961D02*
X185780475Y-147580723D01*
X185780475Y-147580723D02*
X185828094Y-147390247D01*
X185828094Y-147390247D02*
X185828094Y-147247390D01*
X185828094Y-147247390D02*
X185780475Y-147056914D01*
X185780475Y-147056914D02*
X185732856Y-146961676D01*
X185732856Y-146961676D02*
X185637618Y-146866438D01*
X185637618Y-146866438D02*
X185494761Y-146818819D01*
X185494761Y-146818819D02*
X185399523Y-146818819D01*
X185399523Y-146818819D02*
X185256666Y-146866438D01*
X185256666Y-146866438D02*
X185209047Y-146914057D01*
X184351904Y-146818819D02*
X184542380Y-146818819D01*
X184542380Y-146818819D02*
X184637618Y-146866438D01*
X184637618Y-146866438D02*
X184685237Y-146914057D01*
X184685237Y-146914057D02*
X184780475Y-147056914D01*
X184780475Y-147056914D02*
X184828094Y-147247390D01*
X184828094Y-147247390D02*
X184828094Y-147628342D01*
X184828094Y-147628342D02*
X184780475Y-147723580D01*
X184780475Y-147723580D02*
X184732856Y-147771200D01*
X184732856Y-147771200D02*
X184637618Y-147818819D01*
X184637618Y-147818819D02*
X184447142Y-147818819D01*
X184447142Y-147818819D02*
X184351904Y-147771200D01*
X184351904Y-147771200D02*
X184304285Y-147723580D01*
X184304285Y-147723580D02*
X184256666Y-147628342D01*
X184256666Y-147628342D02*
X184256666Y-147390247D01*
X184256666Y-147390247D02*
X184304285Y-147295009D01*
X184304285Y-147295009D02*
X184351904Y-147247390D01*
X184351904Y-147247390D02*
X184447142Y-147199771D01*
X184447142Y-147199771D02*
X184637618Y-147199771D01*
X184637618Y-147199771D02*
X184732856Y-147247390D01*
X184732856Y-147247390D02*
X184780475Y-147295009D01*
X184780475Y-147295009D02*
X184828094Y-147390247D01*
X183637618Y-146818819D02*
X183542380Y-146818819D01*
X183542380Y-146818819D02*
X183447142Y-146866438D01*
X183447142Y-146866438D02*
X183399523Y-146914057D01*
X183399523Y-146914057D02*
X183351904Y-147009295D01*
X183351904Y-147009295D02*
X183304285Y-147199771D01*
X183304285Y-147199771D02*
X183304285Y-147437866D01*
X183304285Y-147437866D02*
X183351904Y-147628342D01*
X183351904Y-147628342D02*
X183399523Y-147723580D01*
X183399523Y-147723580D02*
X183447142Y-147771200D01*
X183447142Y-147771200D02*
X183542380Y-147818819D01*
X183542380Y-147818819D02*
X183637618Y-147818819D01*
X183637618Y-147818819D02*
X183732856Y-147771200D01*
X183732856Y-147771200D02*
X183780475Y-147723580D01*
X183780475Y-147723580D02*
X183828094Y-147628342D01*
X183828094Y-147628342D02*
X183875713Y-147437866D01*
X183875713Y-147437866D02*
X183875713Y-147199771D01*
X183875713Y-147199771D02*
X183828094Y-147009295D01*
X183828094Y-147009295D02*
X183780475Y-146914057D01*
X183780475Y-146914057D02*
X183732856Y-146866438D01*
X183732856Y-146866438D02*
X183637618Y-146818819D01*
X182447142Y-147152152D02*
X182447142Y-147818819D01*
X182685237Y-146771200D02*
X182923332Y-147485485D01*
X182923332Y-147485485D02*
X182304285Y-147485485D01*
X194450819Y-111192952D02*
X193974628Y-110859619D01*
X194450819Y-110621524D02*
X193450819Y-110621524D01*
X193450819Y-110621524D02*
X193450819Y-111002476D01*
X193450819Y-111002476D02*
X193498438Y-111097714D01*
X193498438Y-111097714D02*
X193546057Y-111145333D01*
X193546057Y-111145333D02*
X193641295Y-111192952D01*
X193641295Y-111192952D02*
X193784152Y-111192952D01*
X193784152Y-111192952D02*
X193879390Y-111145333D01*
X193879390Y-111145333D02*
X193927009Y-111097714D01*
X193927009Y-111097714D02*
X193974628Y-111002476D01*
X193974628Y-111002476D02*
X193974628Y-110621524D01*
X193450819Y-112050095D02*
X193450819Y-111859619D01*
X193450819Y-111859619D02*
X193498438Y-111764381D01*
X193498438Y-111764381D02*
X193546057Y-111716762D01*
X193546057Y-111716762D02*
X193688914Y-111621524D01*
X193688914Y-111621524D02*
X193879390Y-111573905D01*
X193879390Y-111573905D02*
X194260342Y-111573905D01*
X194260342Y-111573905D02*
X194355580Y-111621524D01*
X194355580Y-111621524D02*
X194403200Y-111669143D01*
X194403200Y-111669143D02*
X194450819Y-111764381D01*
X194450819Y-111764381D02*
X194450819Y-111954857D01*
X194450819Y-111954857D02*
X194403200Y-112050095D01*
X194403200Y-112050095D02*
X194355580Y-112097714D01*
X194355580Y-112097714D02*
X194260342Y-112145333D01*
X194260342Y-112145333D02*
X194022247Y-112145333D01*
X194022247Y-112145333D02*
X193927009Y-112097714D01*
X193927009Y-112097714D02*
X193879390Y-112050095D01*
X193879390Y-112050095D02*
X193831771Y-111954857D01*
X193831771Y-111954857D02*
X193831771Y-111764381D01*
X193831771Y-111764381D02*
X193879390Y-111669143D01*
X193879390Y-111669143D02*
X193927009Y-111621524D01*
X193927009Y-111621524D02*
X194022247Y-111573905D01*
X194450819Y-113097714D02*
X194450819Y-112526286D01*
X194450819Y-112812000D02*
X193450819Y-112812000D01*
X193450819Y-112812000D02*
X193593676Y-112716762D01*
X193593676Y-112716762D02*
X193688914Y-112621524D01*
X193688914Y-112621524D02*
X193736533Y-112526286D01*
X194450819Y-113573905D02*
X194450819Y-113764381D01*
X194450819Y-113764381D02*
X194403200Y-113859619D01*
X194403200Y-113859619D02*
X194355580Y-113907238D01*
X194355580Y-113907238D02*
X194212723Y-114002476D01*
X194212723Y-114002476D02*
X194022247Y-114050095D01*
X194022247Y-114050095D02*
X193641295Y-114050095D01*
X193641295Y-114050095D02*
X193546057Y-114002476D01*
X193546057Y-114002476D02*
X193498438Y-113954857D01*
X193498438Y-113954857D02*
X193450819Y-113859619D01*
X193450819Y-113859619D02*
X193450819Y-113669143D01*
X193450819Y-113669143D02*
X193498438Y-113573905D01*
X193498438Y-113573905D02*
X193546057Y-113526286D01*
X193546057Y-113526286D02*
X193641295Y-113478667D01*
X193641295Y-113478667D02*
X193879390Y-113478667D01*
X193879390Y-113478667D02*
X193974628Y-113526286D01*
X193974628Y-113526286D02*
X194022247Y-113573905D01*
X194022247Y-113573905D02*
X194069866Y-113669143D01*
X194069866Y-113669143D02*
X194069866Y-113859619D01*
X194069866Y-113859619D02*
X194022247Y-113954857D01*
X194022247Y-113954857D02*
X193974628Y-114002476D01*
X193974628Y-114002476D02*
X193879390Y-114050095D01*
X200546819Y-111192952D02*
X200070628Y-110859619D01*
X200546819Y-110621524D02*
X199546819Y-110621524D01*
X199546819Y-110621524D02*
X199546819Y-111002476D01*
X199546819Y-111002476D02*
X199594438Y-111097714D01*
X199594438Y-111097714D02*
X199642057Y-111145333D01*
X199642057Y-111145333D02*
X199737295Y-111192952D01*
X199737295Y-111192952D02*
X199880152Y-111192952D01*
X199880152Y-111192952D02*
X199975390Y-111145333D01*
X199975390Y-111145333D02*
X200023009Y-111097714D01*
X200023009Y-111097714D02*
X200070628Y-111002476D01*
X200070628Y-111002476D02*
X200070628Y-110621524D01*
X199546819Y-112050095D02*
X199546819Y-111859619D01*
X199546819Y-111859619D02*
X199594438Y-111764381D01*
X199594438Y-111764381D02*
X199642057Y-111716762D01*
X199642057Y-111716762D02*
X199784914Y-111621524D01*
X199784914Y-111621524D02*
X199975390Y-111573905D01*
X199975390Y-111573905D02*
X200356342Y-111573905D01*
X200356342Y-111573905D02*
X200451580Y-111621524D01*
X200451580Y-111621524D02*
X200499200Y-111669143D01*
X200499200Y-111669143D02*
X200546819Y-111764381D01*
X200546819Y-111764381D02*
X200546819Y-111954857D01*
X200546819Y-111954857D02*
X200499200Y-112050095D01*
X200499200Y-112050095D02*
X200451580Y-112097714D01*
X200451580Y-112097714D02*
X200356342Y-112145333D01*
X200356342Y-112145333D02*
X200118247Y-112145333D01*
X200118247Y-112145333D02*
X200023009Y-112097714D01*
X200023009Y-112097714D02*
X199975390Y-112050095D01*
X199975390Y-112050095D02*
X199927771Y-111954857D01*
X199927771Y-111954857D02*
X199927771Y-111764381D01*
X199927771Y-111764381D02*
X199975390Y-111669143D01*
X199975390Y-111669143D02*
X200023009Y-111621524D01*
X200023009Y-111621524D02*
X200118247Y-111573905D01*
X200546819Y-113097714D02*
X200546819Y-112526286D01*
X200546819Y-112812000D02*
X199546819Y-112812000D01*
X199546819Y-112812000D02*
X199689676Y-112716762D01*
X199689676Y-112716762D02*
X199784914Y-112621524D01*
X199784914Y-112621524D02*
X199832533Y-112526286D01*
X199546819Y-113954857D02*
X199546819Y-113764381D01*
X199546819Y-113764381D02*
X199594438Y-113669143D01*
X199594438Y-113669143D02*
X199642057Y-113621524D01*
X199642057Y-113621524D02*
X199784914Y-113526286D01*
X199784914Y-113526286D02*
X199975390Y-113478667D01*
X199975390Y-113478667D02*
X200356342Y-113478667D01*
X200356342Y-113478667D02*
X200451580Y-113526286D01*
X200451580Y-113526286D02*
X200499200Y-113573905D01*
X200499200Y-113573905D02*
X200546819Y-113669143D01*
X200546819Y-113669143D02*
X200546819Y-113859619D01*
X200546819Y-113859619D02*
X200499200Y-113954857D01*
X200499200Y-113954857D02*
X200451580Y-114002476D01*
X200451580Y-114002476D02*
X200356342Y-114050095D01*
X200356342Y-114050095D02*
X200118247Y-114050095D01*
X200118247Y-114050095D02*
X200023009Y-114002476D01*
X200023009Y-114002476D02*
X199975390Y-113954857D01*
X199975390Y-113954857D02*
X199927771Y-113859619D01*
X199927771Y-113859619D02*
X199927771Y-113669143D01*
X199927771Y-113669143D02*
X199975390Y-113573905D01*
X199975390Y-113573905D02*
X200023009Y-113526286D01*
X200023009Y-113526286D02*
X200118247Y-113478667D01*
X182577580Y-92396952D02*
X182625200Y-92349333D01*
X182625200Y-92349333D02*
X182672819Y-92206476D01*
X182672819Y-92206476D02*
X182672819Y-92111238D01*
X182672819Y-92111238D02*
X182625200Y-91968381D01*
X182625200Y-91968381D02*
X182529961Y-91873143D01*
X182529961Y-91873143D02*
X182434723Y-91825524D01*
X182434723Y-91825524D02*
X182244247Y-91777905D01*
X182244247Y-91777905D02*
X182101390Y-91777905D01*
X182101390Y-91777905D02*
X181910914Y-91825524D01*
X181910914Y-91825524D02*
X181815676Y-91873143D01*
X181815676Y-91873143D02*
X181720438Y-91968381D01*
X181720438Y-91968381D02*
X181672819Y-92111238D01*
X181672819Y-92111238D02*
X181672819Y-92206476D01*
X181672819Y-92206476D02*
X181720438Y-92349333D01*
X181720438Y-92349333D02*
X181768057Y-92396952D01*
X181672819Y-92730286D02*
X181672819Y-93396952D01*
X181672819Y-93396952D02*
X182672819Y-92968381D01*
X181672819Y-93968381D02*
X181672819Y-94063619D01*
X181672819Y-94063619D02*
X181720438Y-94158857D01*
X181720438Y-94158857D02*
X181768057Y-94206476D01*
X181768057Y-94206476D02*
X181863295Y-94254095D01*
X181863295Y-94254095D02*
X182053771Y-94301714D01*
X182053771Y-94301714D02*
X182291866Y-94301714D01*
X182291866Y-94301714D02*
X182482342Y-94254095D01*
X182482342Y-94254095D02*
X182577580Y-94206476D01*
X182577580Y-94206476D02*
X182625200Y-94158857D01*
X182625200Y-94158857D02*
X182672819Y-94063619D01*
X182672819Y-94063619D02*
X182672819Y-93968381D01*
X182672819Y-93968381D02*
X182625200Y-93873143D01*
X182625200Y-93873143D02*
X182577580Y-93825524D01*
X182577580Y-93825524D02*
X182482342Y-93777905D01*
X182482342Y-93777905D02*
X182291866Y-93730286D01*
X182291866Y-93730286D02*
X182053771Y-93730286D01*
X182053771Y-93730286D02*
X181863295Y-93777905D01*
X181863295Y-93777905D02*
X181768057Y-93825524D01*
X181768057Y-93825524D02*
X181720438Y-93873143D01*
X181720438Y-93873143D02*
X181672819Y-93968381D01*
X181672819Y-95158857D02*
X181672819Y-94968381D01*
X181672819Y-94968381D02*
X181720438Y-94873143D01*
X181720438Y-94873143D02*
X181768057Y-94825524D01*
X181768057Y-94825524D02*
X181910914Y-94730286D01*
X181910914Y-94730286D02*
X182101390Y-94682667D01*
X182101390Y-94682667D02*
X182482342Y-94682667D01*
X182482342Y-94682667D02*
X182577580Y-94730286D01*
X182577580Y-94730286D02*
X182625200Y-94777905D01*
X182625200Y-94777905D02*
X182672819Y-94873143D01*
X182672819Y-94873143D02*
X182672819Y-95063619D01*
X182672819Y-95063619D02*
X182625200Y-95158857D01*
X182625200Y-95158857D02*
X182577580Y-95206476D01*
X182577580Y-95206476D02*
X182482342Y-95254095D01*
X182482342Y-95254095D02*
X182244247Y-95254095D01*
X182244247Y-95254095D02*
X182149009Y-95206476D01*
X182149009Y-95206476D02*
X182101390Y-95158857D01*
X182101390Y-95158857D02*
X182053771Y-95063619D01*
X182053771Y-95063619D02*
X182053771Y-94873143D01*
X182053771Y-94873143D02*
X182101390Y-94777905D01*
X182101390Y-94777905D02*
X182149009Y-94730286D01*
X182149009Y-94730286D02*
X182244247Y-94682667D01*
X163461580Y-131512952D02*
X163509200Y-131465333D01*
X163509200Y-131465333D02*
X163556819Y-131322476D01*
X163556819Y-131322476D02*
X163556819Y-131227238D01*
X163556819Y-131227238D02*
X163509200Y-131084381D01*
X163509200Y-131084381D02*
X163413961Y-130989143D01*
X163413961Y-130989143D02*
X163318723Y-130941524D01*
X163318723Y-130941524D02*
X163128247Y-130893905D01*
X163128247Y-130893905D02*
X162985390Y-130893905D01*
X162985390Y-130893905D02*
X162794914Y-130941524D01*
X162794914Y-130941524D02*
X162699676Y-130989143D01*
X162699676Y-130989143D02*
X162604438Y-131084381D01*
X162604438Y-131084381D02*
X162556819Y-131227238D01*
X162556819Y-131227238D02*
X162556819Y-131322476D01*
X162556819Y-131322476D02*
X162604438Y-131465333D01*
X162604438Y-131465333D02*
X162652057Y-131512952D01*
X162556819Y-132370095D02*
X162556819Y-132179619D01*
X162556819Y-132179619D02*
X162604438Y-132084381D01*
X162604438Y-132084381D02*
X162652057Y-132036762D01*
X162652057Y-132036762D02*
X162794914Y-131941524D01*
X162794914Y-131941524D02*
X162985390Y-131893905D01*
X162985390Y-131893905D02*
X163366342Y-131893905D01*
X163366342Y-131893905D02*
X163461580Y-131941524D01*
X163461580Y-131941524D02*
X163509200Y-131989143D01*
X163509200Y-131989143D02*
X163556819Y-132084381D01*
X163556819Y-132084381D02*
X163556819Y-132274857D01*
X163556819Y-132274857D02*
X163509200Y-132370095D01*
X163509200Y-132370095D02*
X163461580Y-132417714D01*
X163461580Y-132417714D02*
X163366342Y-132465333D01*
X163366342Y-132465333D02*
X163128247Y-132465333D01*
X163128247Y-132465333D02*
X163033009Y-132417714D01*
X163033009Y-132417714D02*
X162985390Y-132370095D01*
X162985390Y-132370095D02*
X162937771Y-132274857D01*
X162937771Y-132274857D02*
X162937771Y-132084381D01*
X162937771Y-132084381D02*
X162985390Y-131989143D01*
X162985390Y-131989143D02*
X163033009Y-131941524D01*
X163033009Y-131941524D02*
X163128247Y-131893905D01*
X163556819Y-133417714D02*
X163556819Y-132846286D01*
X163556819Y-133132000D02*
X162556819Y-133132000D01*
X162556819Y-133132000D02*
X162699676Y-133036762D01*
X162699676Y-133036762D02*
X162794914Y-132941524D01*
X162794914Y-132941524D02*
X162842533Y-132846286D01*
X162556819Y-134274857D02*
X162556819Y-134084381D01*
X162556819Y-134084381D02*
X162604438Y-133989143D01*
X162604438Y-133989143D02*
X162652057Y-133941524D01*
X162652057Y-133941524D02*
X162794914Y-133846286D01*
X162794914Y-133846286D02*
X162985390Y-133798667D01*
X162985390Y-133798667D02*
X163366342Y-133798667D01*
X163366342Y-133798667D02*
X163461580Y-133846286D01*
X163461580Y-133846286D02*
X163509200Y-133893905D01*
X163509200Y-133893905D02*
X163556819Y-133989143D01*
X163556819Y-133989143D02*
X163556819Y-134179619D01*
X163556819Y-134179619D02*
X163509200Y-134274857D01*
X163509200Y-134274857D02*
X163461580Y-134322476D01*
X163461580Y-134322476D02*
X163366342Y-134370095D01*
X163366342Y-134370095D02*
X163128247Y-134370095D01*
X163128247Y-134370095D02*
X163033009Y-134322476D01*
X163033009Y-134322476D02*
X162985390Y-134274857D01*
X162985390Y-134274857D02*
X162937771Y-134179619D01*
X162937771Y-134179619D02*
X162937771Y-133989143D01*
X162937771Y-133989143D02*
X162985390Y-133893905D01*
X162985390Y-133893905D02*
X163033009Y-133846286D01*
X163033009Y-133846286D02*
X163128247Y-133798667D01*
X161587047Y-77206819D02*
X161920380Y-76730628D01*
X162158475Y-77206819D02*
X162158475Y-76206819D01*
X162158475Y-76206819D02*
X161777523Y-76206819D01*
X161777523Y-76206819D02*
X161682285Y-76254438D01*
X161682285Y-76254438D02*
X161634666Y-76302057D01*
X161634666Y-76302057D02*
X161587047Y-76397295D01*
X161587047Y-76397295D02*
X161587047Y-76540152D01*
X161587047Y-76540152D02*
X161634666Y-76635390D01*
X161634666Y-76635390D02*
X161682285Y-76683009D01*
X161682285Y-76683009D02*
X161777523Y-76730628D01*
X161777523Y-76730628D02*
X162158475Y-76730628D01*
X160634666Y-77206819D02*
X161206094Y-77206819D01*
X160920380Y-77206819D02*
X160920380Y-76206819D01*
X160920380Y-76206819D02*
X161015618Y-76349676D01*
X161015618Y-76349676D02*
X161110856Y-76444914D01*
X161110856Y-76444914D02*
X161206094Y-76492533D01*
X160015618Y-76206819D02*
X159920380Y-76206819D01*
X159920380Y-76206819D02*
X159825142Y-76254438D01*
X159825142Y-76254438D02*
X159777523Y-76302057D01*
X159777523Y-76302057D02*
X159729904Y-76397295D01*
X159729904Y-76397295D02*
X159682285Y-76587771D01*
X159682285Y-76587771D02*
X159682285Y-76825866D01*
X159682285Y-76825866D02*
X159729904Y-77016342D01*
X159729904Y-77016342D02*
X159777523Y-77111580D01*
X159777523Y-77111580D02*
X159825142Y-77159200D01*
X159825142Y-77159200D02*
X159920380Y-77206819D01*
X159920380Y-77206819D02*
X160015618Y-77206819D01*
X160015618Y-77206819D02*
X160110856Y-77159200D01*
X160110856Y-77159200D02*
X160158475Y-77111580D01*
X160158475Y-77111580D02*
X160206094Y-77016342D01*
X160206094Y-77016342D02*
X160253713Y-76825866D01*
X160253713Y-76825866D02*
X160253713Y-76587771D01*
X160253713Y-76587771D02*
X160206094Y-76397295D01*
X160206094Y-76397295D02*
X160158475Y-76302057D01*
X160158475Y-76302057D02*
X160110856Y-76254438D01*
X160110856Y-76254438D02*
X160015618Y-76206819D01*
X159110856Y-76635390D02*
X159206094Y-76587771D01*
X159206094Y-76587771D02*
X159253713Y-76540152D01*
X159253713Y-76540152D02*
X159301332Y-76444914D01*
X159301332Y-76444914D02*
X159301332Y-76397295D01*
X159301332Y-76397295D02*
X159253713Y-76302057D01*
X159253713Y-76302057D02*
X159206094Y-76254438D01*
X159206094Y-76254438D02*
X159110856Y-76206819D01*
X159110856Y-76206819D02*
X158920380Y-76206819D01*
X158920380Y-76206819D02*
X158825142Y-76254438D01*
X158825142Y-76254438D02*
X158777523Y-76302057D01*
X158777523Y-76302057D02*
X158729904Y-76397295D01*
X158729904Y-76397295D02*
X158729904Y-76444914D01*
X158729904Y-76444914D02*
X158777523Y-76540152D01*
X158777523Y-76540152D02*
X158825142Y-76587771D01*
X158825142Y-76587771D02*
X158920380Y-76635390D01*
X158920380Y-76635390D02*
X159110856Y-76635390D01*
X159110856Y-76635390D02*
X159206094Y-76683009D01*
X159206094Y-76683009D02*
X159253713Y-76730628D01*
X159253713Y-76730628D02*
X159301332Y-76825866D01*
X159301332Y-76825866D02*
X159301332Y-77016342D01*
X159301332Y-77016342D02*
X159253713Y-77111580D01*
X159253713Y-77111580D02*
X159206094Y-77159200D01*
X159206094Y-77159200D02*
X159110856Y-77206819D01*
X159110856Y-77206819D02*
X158920380Y-77206819D01*
X158920380Y-77206819D02*
X158825142Y-77159200D01*
X158825142Y-77159200D02*
X158777523Y-77111580D01*
X158777523Y-77111580D02*
X158729904Y-77016342D01*
X158729904Y-77016342D02*
X158729904Y-76825866D01*
X158729904Y-76825866D02*
X158777523Y-76730628D01*
X158777523Y-76730628D02*
X158825142Y-76683009D01*
X158825142Y-76683009D02*
X158920380Y-76635390D01*
X189527047Y-213001580D02*
X189574666Y-213049200D01*
X189574666Y-213049200D02*
X189717523Y-213096819D01*
X189717523Y-213096819D02*
X189812761Y-213096819D01*
X189812761Y-213096819D02*
X189955618Y-213049200D01*
X189955618Y-213049200D02*
X190050856Y-212953961D01*
X190050856Y-212953961D02*
X190098475Y-212858723D01*
X190098475Y-212858723D02*
X190146094Y-212668247D01*
X190146094Y-212668247D02*
X190146094Y-212525390D01*
X190146094Y-212525390D02*
X190098475Y-212334914D01*
X190098475Y-212334914D02*
X190050856Y-212239676D01*
X190050856Y-212239676D02*
X189955618Y-212144438D01*
X189955618Y-212144438D02*
X189812761Y-212096819D01*
X189812761Y-212096819D02*
X189717523Y-212096819D01*
X189717523Y-212096819D02*
X189574666Y-212144438D01*
X189574666Y-212144438D02*
X189527047Y-212192057D01*
X188669904Y-212430152D02*
X188669904Y-213096819D01*
X188907999Y-212049200D02*
X189146094Y-212763485D01*
X189146094Y-212763485D02*
X188527047Y-212763485D01*
X187955618Y-212096819D02*
X187860380Y-212096819D01*
X187860380Y-212096819D02*
X187765142Y-212144438D01*
X187765142Y-212144438D02*
X187717523Y-212192057D01*
X187717523Y-212192057D02*
X187669904Y-212287295D01*
X187669904Y-212287295D02*
X187622285Y-212477771D01*
X187622285Y-212477771D02*
X187622285Y-212715866D01*
X187622285Y-212715866D02*
X187669904Y-212906342D01*
X187669904Y-212906342D02*
X187717523Y-213001580D01*
X187717523Y-213001580D02*
X187765142Y-213049200D01*
X187765142Y-213049200D02*
X187860380Y-213096819D01*
X187860380Y-213096819D02*
X187955618Y-213096819D01*
X187955618Y-213096819D02*
X188050856Y-213049200D01*
X188050856Y-213049200D02*
X188098475Y-213001580D01*
X188098475Y-213001580D02*
X188146094Y-212906342D01*
X188146094Y-212906342D02*
X188193713Y-212715866D01*
X188193713Y-212715866D02*
X188193713Y-212477771D01*
X188193713Y-212477771D02*
X188146094Y-212287295D01*
X188146094Y-212287295D02*
X188098475Y-212192057D01*
X188098475Y-212192057D02*
X188050856Y-212144438D01*
X188050856Y-212144438D02*
X187955618Y-212096819D01*
X186765142Y-212430152D02*
X186765142Y-213096819D01*
X187003237Y-212049200D02*
X187241332Y-212763485D01*
X187241332Y-212763485D02*
X186622285Y-212763485D01*
X186225047Y-74920819D02*
X186558380Y-74444628D01*
X186796475Y-74920819D02*
X186796475Y-73920819D01*
X186796475Y-73920819D02*
X186415523Y-73920819D01*
X186415523Y-73920819D02*
X186320285Y-73968438D01*
X186320285Y-73968438D02*
X186272666Y-74016057D01*
X186272666Y-74016057D02*
X186225047Y-74111295D01*
X186225047Y-74111295D02*
X186225047Y-74254152D01*
X186225047Y-74254152D02*
X186272666Y-74349390D01*
X186272666Y-74349390D02*
X186320285Y-74397009D01*
X186320285Y-74397009D02*
X186415523Y-74444628D01*
X186415523Y-74444628D02*
X186796475Y-74444628D01*
X185272666Y-74920819D02*
X185844094Y-74920819D01*
X185558380Y-74920819D02*
X185558380Y-73920819D01*
X185558380Y-73920819D02*
X185653618Y-74063676D01*
X185653618Y-74063676D02*
X185748856Y-74158914D01*
X185748856Y-74158914D02*
X185844094Y-74206533D01*
X184653618Y-73920819D02*
X184558380Y-73920819D01*
X184558380Y-73920819D02*
X184463142Y-73968438D01*
X184463142Y-73968438D02*
X184415523Y-74016057D01*
X184415523Y-74016057D02*
X184367904Y-74111295D01*
X184367904Y-74111295D02*
X184320285Y-74301771D01*
X184320285Y-74301771D02*
X184320285Y-74539866D01*
X184320285Y-74539866D02*
X184367904Y-74730342D01*
X184367904Y-74730342D02*
X184415523Y-74825580D01*
X184415523Y-74825580D02*
X184463142Y-74873200D01*
X184463142Y-74873200D02*
X184558380Y-74920819D01*
X184558380Y-74920819D02*
X184653618Y-74920819D01*
X184653618Y-74920819D02*
X184748856Y-74873200D01*
X184748856Y-74873200D02*
X184796475Y-74825580D01*
X184796475Y-74825580D02*
X184844094Y-74730342D01*
X184844094Y-74730342D02*
X184891713Y-74539866D01*
X184891713Y-74539866D02*
X184891713Y-74301771D01*
X184891713Y-74301771D02*
X184844094Y-74111295D01*
X184844094Y-74111295D02*
X184796475Y-74016057D01*
X184796475Y-74016057D02*
X184748856Y-73968438D01*
X184748856Y-73968438D02*
X184653618Y-73920819D01*
X183844094Y-74920819D02*
X183653618Y-74920819D01*
X183653618Y-74920819D02*
X183558380Y-74873200D01*
X183558380Y-74873200D02*
X183510761Y-74825580D01*
X183510761Y-74825580D02*
X183415523Y-74682723D01*
X183415523Y-74682723D02*
X183367904Y-74492247D01*
X183367904Y-74492247D02*
X183367904Y-74111295D01*
X183367904Y-74111295D02*
X183415523Y-74016057D01*
X183415523Y-74016057D02*
X183463142Y-73968438D01*
X183463142Y-73968438D02*
X183558380Y-73920819D01*
X183558380Y-73920819D02*
X183748856Y-73920819D01*
X183748856Y-73920819D02*
X183844094Y-73968438D01*
X183844094Y-73968438D02*
X183891713Y-74016057D01*
X183891713Y-74016057D02*
X183939332Y-74111295D01*
X183939332Y-74111295D02*
X183939332Y-74349390D01*
X183939332Y-74349390D02*
X183891713Y-74444628D01*
X183891713Y-74444628D02*
X183844094Y-74492247D01*
X183844094Y-74492247D02*
X183748856Y-74539866D01*
X183748856Y-74539866D02*
X183558380Y-74539866D01*
X183558380Y-74539866D02*
X183463142Y-74492247D01*
X183463142Y-74492247D02*
X183415523Y-74444628D01*
X183415523Y-74444628D02*
X183367904Y-74349390D01*
X197911580Y-201616952D02*
X197959200Y-201569333D01*
X197959200Y-201569333D02*
X198006819Y-201426476D01*
X198006819Y-201426476D02*
X198006819Y-201331238D01*
X198006819Y-201331238D02*
X197959200Y-201188381D01*
X197959200Y-201188381D02*
X197863961Y-201093143D01*
X197863961Y-201093143D02*
X197768723Y-201045524D01*
X197768723Y-201045524D02*
X197578247Y-200997905D01*
X197578247Y-200997905D02*
X197435390Y-200997905D01*
X197435390Y-200997905D02*
X197244914Y-201045524D01*
X197244914Y-201045524D02*
X197149676Y-201093143D01*
X197149676Y-201093143D02*
X197054438Y-201188381D01*
X197054438Y-201188381D02*
X197006819Y-201331238D01*
X197006819Y-201331238D02*
X197006819Y-201426476D01*
X197006819Y-201426476D02*
X197054438Y-201569333D01*
X197054438Y-201569333D02*
X197102057Y-201616952D01*
X197340152Y-202474095D02*
X198006819Y-202474095D01*
X196959200Y-202236000D02*
X197673485Y-201997905D01*
X197673485Y-201997905D02*
X197673485Y-202616952D01*
X197006819Y-203188381D02*
X197006819Y-203283619D01*
X197006819Y-203283619D02*
X197054438Y-203378857D01*
X197054438Y-203378857D02*
X197102057Y-203426476D01*
X197102057Y-203426476D02*
X197197295Y-203474095D01*
X197197295Y-203474095D02*
X197387771Y-203521714D01*
X197387771Y-203521714D02*
X197625866Y-203521714D01*
X197625866Y-203521714D02*
X197816342Y-203474095D01*
X197816342Y-203474095D02*
X197911580Y-203426476D01*
X197911580Y-203426476D02*
X197959200Y-203378857D01*
X197959200Y-203378857D02*
X198006819Y-203283619D01*
X198006819Y-203283619D02*
X198006819Y-203188381D01*
X198006819Y-203188381D02*
X197959200Y-203093143D01*
X197959200Y-203093143D02*
X197911580Y-203045524D01*
X197911580Y-203045524D02*
X197816342Y-202997905D01*
X197816342Y-202997905D02*
X197625866Y-202950286D01*
X197625866Y-202950286D02*
X197387771Y-202950286D01*
X197387771Y-202950286D02*
X197197295Y-202997905D01*
X197197295Y-202997905D02*
X197102057Y-203045524D01*
X197102057Y-203045524D02*
X197054438Y-203093143D01*
X197054438Y-203093143D02*
X197006819Y-203188381D01*
X198006819Y-204474095D02*
X198006819Y-203902667D01*
X198006819Y-204188381D02*
X197006819Y-204188381D01*
X197006819Y-204188381D02*
X197149676Y-204093143D01*
X197149676Y-204093143D02*
X197244914Y-203997905D01*
X197244914Y-203997905D02*
X197292533Y-203902667D01*
X214845319Y-104252285D02*
X215559604Y-104252285D01*
X215559604Y-104252285D02*
X215702461Y-104204666D01*
X215702461Y-104204666D02*
X215797700Y-104109428D01*
X215797700Y-104109428D02*
X215845319Y-103966571D01*
X215845319Y-103966571D02*
X215845319Y-103871333D01*
X215845319Y-105252285D02*
X215845319Y-104680857D01*
X215845319Y-104966571D02*
X214845319Y-104966571D01*
X214845319Y-104966571D02*
X214988176Y-104871333D01*
X214988176Y-104871333D02*
X215083414Y-104776095D01*
X215083414Y-104776095D02*
X215131033Y-104680857D01*
X214845319Y-105871333D02*
X214845319Y-105966571D01*
X214845319Y-105966571D02*
X214892938Y-106061809D01*
X214892938Y-106061809D02*
X214940557Y-106109428D01*
X214940557Y-106109428D02*
X215035795Y-106157047D01*
X215035795Y-106157047D02*
X215226271Y-106204666D01*
X215226271Y-106204666D02*
X215464366Y-106204666D01*
X215464366Y-106204666D02*
X215654842Y-106157047D01*
X215654842Y-106157047D02*
X215750080Y-106109428D01*
X215750080Y-106109428D02*
X215797700Y-106061809D01*
X215797700Y-106061809D02*
X215845319Y-105966571D01*
X215845319Y-105966571D02*
X215845319Y-105871333D01*
X215845319Y-105871333D02*
X215797700Y-105776095D01*
X215797700Y-105776095D02*
X215750080Y-105728476D01*
X215750080Y-105728476D02*
X215654842Y-105680857D01*
X215654842Y-105680857D02*
X215464366Y-105633238D01*
X215464366Y-105633238D02*
X215226271Y-105633238D01*
X215226271Y-105633238D02*
X215035795Y-105680857D01*
X215035795Y-105680857D02*
X214940557Y-105728476D01*
X214940557Y-105728476D02*
X214892938Y-105776095D01*
X214892938Y-105776095D02*
X214845319Y-105871333D01*
X214940557Y-106585619D02*
X214892938Y-106633238D01*
X214892938Y-106633238D02*
X214845319Y-106728476D01*
X214845319Y-106728476D02*
X214845319Y-106966571D01*
X214845319Y-106966571D02*
X214892938Y-107061809D01*
X214892938Y-107061809D02*
X214940557Y-107109428D01*
X214940557Y-107109428D02*
X215035795Y-107157047D01*
X215035795Y-107157047D02*
X215131033Y-107157047D01*
X215131033Y-107157047D02*
X215273890Y-107109428D01*
X215273890Y-107109428D02*
X215845319Y-106538000D01*
X215845319Y-106538000D02*
X215845319Y-107157047D01*
X185209047Y-142229580D02*
X185256666Y-142277200D01*
X185256666Y-142277200D02*
X185399523Y-142324819D01*
X185399523Y-142324819D02*
X185494761Y-142324819D01*
X185494761Y-142324819D02*
X185637618Y-142277200D01*
X185637618Y-142277200D02*
X185732856Y-142181961D01*
X185732856Y-142181961D02*
X185780475Y-142086723D01*
X185780475Y-142086723D02*
X185828094Y-141896247D01*
X185828094Y-141896247D02*
X185828094Y-141753390D01*
X185828094Y-141753390D02*
X185780475Y-141562914D01*
X185780475Y-141562914D02*
X185732856Y-141467676D01*
X185732856Y-141467676D02*
X185637618Y-141372438D01*
X185637618Y-141372438D02*
X185494761Y-141324819D01*
X185494761Y-141324819D02*
X185399523Y-141324819D01*
X185399523Y-141324819D02*
X185256666Y-141372438D01*
X185256666Y-141372438D02*
X185209047Y-141420057D01*
X184351904Y-141324819D02*
X184542380Y-141324819D01*
X184542380Y-141324819D02*
X184637618Y-141372438D01*
X184637618Y-141372438D02*
X184685237Y-141420057D01*
X184685237Y-141420057D02*
X184780475Y-141562914D01*
X184780475Y-141562914D02*
X184828094Y-141753390D01*
X184828094Y-141753390D02*
X184828094Y-142134342D01*
X184828094Y-142134342D02*
X184780475Y-142229580D01*
X184780475Y-142229580D02*
X184732856Y-142277200D01*
X184732856Y-142277200D02*
X184637618Y-142324819D01*
X184637618Y-142324819D02*
X184447142Y-142324819D01*
X184447142Y-142324819D02*
X184351904Y-142277200D01*
X184351904Y-142277200D02*
X184304285Y-142229580D01*
X184304285Y-142229580D02*
X184256666Y-142134342D01*
X184256666Y-142134342D02*
X184256666Y-141896247D01*
X184256666Y-141896247D02*
X184304285Y-141801009D01*
X184304285Y-141801009D02*
X184351904Y-141753390D01*
X184351904Y-141753390D02*
X184447142Y-141705771D01*
X184447142Y-141705771D02*
X184637618Y-141705771D01*
X184637618Y-141705771D02*
X184732856Y-141753390D01*
X184732856Y-141753390D02*
X184780475Y-141801009D01*
X184780475Y-141801009D02*
X184828094Y-141896247D01*
X183304285Y-142324819D02*
X183875713Y-142324819D01*
X183589999Y-142324819D02*
X183589999Y-141324819D01*
X183589999Y-141324819D02*
X183685237Y-141467676D01*
X183685237Y-141467676D02*
X183780475Y-141562914D01*
X183780475Y-141562914D02*
X183875713Y-141610533D01*
X182351904Y-142324819D02*
X182923332Y-142324819D01*
X182637618Y-142324819D02*
X182637618Y-141324819D01*
X182637618Y-141324819D02*
X182732856Y-141467676D01*
X182732856Y-141467676D02*
X182828094Y-141562914D01*
X182828094Y-141562914D02*
X182923332Y-141610533D01*
X158793047Y-114290819D02*
X159126380Y-113814628D01*
X159364475Y-114290819D02*
X159364475Y-113290819D01*
X159364475Y-113290819D02*
X158983523Y-113290819D01*
X158983523Y-113290819D02*
X158888285Y-113338438D01*
X158888285Y-113338438D02*
X158840666Y-113386057D01*
X158840666Y-113386057D02*
X158793047Y-113481295D01*
X158793047Y-113481295D02*
X158793047Y-113624152D01*
X158793047Y-113624152D02*
X158840666Y-113719390D01*
X158840666Y-113719390D02*
X158888285Y-113767009D01*
X158888285Y-113767009D02*
X158983523Y-113814628D01*
X158983523Y-113814628D02*
X159364475Y-113814628D01*
X157935904Y-113290819D02*
X158126380Y-113290819D01*
X158126380Y-113290819D02*
X158221618Y-113338438D01*
X158221618Y-113338438D02*
X158269237Y-113386057D01*
X158269237Y-113386057D02*
X158364475Y-113528914D01*
X158364475Y-113528914D02*
X158412094Y-113719390D01*
X158412094Y-113719390D02*
X158412094Y-114100342D01*
X158412094Y-114100342D02*
X158364475Y-114195580D01*
X158364475Y-114195580D02*
X158316856Y-114243200D01*
X158316856Y-114243200D02*
X158221618Y-114290819D01*
X158221618Y-114290819D02*
X158031142Y-114290819D01*
X158031142Y-114290819D02*
X157935904Y-114243200D01*
X157935904Y-114243200D02*
X157888285Y-114195580D01*
X157888285Y-114195580D02*
X157840666Y-114100342D01*
X157840666Y-114100342D02*
X157840666Y-113862247D01*
X157840666Y-113862247D02*
X157888285Y-113767009D01*
X157888285Y-113767009D02*
X157935904Y-113719390D01*
X157935904Y-113719390D02*
X158031142Y-113671771D01*
X158031142Y-113671771D02*
X158221618Y-113671771D01*
X158221618Y-113671771D02*
X158316856Y-113719390D01*
X158316856Y-113719390D02*
X158364475Y-113767009D01*
X158364475Y-113767009D02*
X158412094Y-113862247D01*
X156888285Y-114290819D02*
X157459713Y-114290819D01*
X157173999Y-114290819D02*
X157173999Y-113290819D01*
X157173999Y-113290819D02*
X157269237Y-113433676D01*
X157269237Y-113433676D02*
X157364475Y-113528914D01*
X157364475Y-113528914D02*
X157459713Y-113576533D01*
X155983523Y-113290819D02*
X156459713Y-113290819D01*
X156459713Y-113290819D02*
X156507332Y-113767009D01*
X156507332Y-113767009D02*
X156459713Y-113719390D01*
X156459713Y-113719390D02*
X156364475Y-113671771D01*
X156364475Y-113671771D02*
X156126380Y-113671771D01*
X156126380Y-113671771D02*
X156031142Y-113719390D01*
X156031142Y-113719390D02*
X155983523Y-113767009D01*
X155983523Y-113767009D02*
X155935904Y-113862247D01*
X155935904Y-113862247D02*
X155935904Y-114100342D01*
X155935904Y-114100342D02*
X155983523Y-114195580D01*
X155983523Y-114195580D02*
X156031142Y-114243200D01*
X156031142Y-114243200D02*
X156126380Y-114290819D01*
X156126380Y-114290819D02*
X156364475Y-114290819D01*
X156364475Y-114290819D02*
X156459713Y-114243200D01*
X156459713Y-114243200D02*
X156507332Y-114195580D01*
X178099580Y-223714952D02*
X178147200Y-223667333D01*
X178147200Y-223667333D02*
X178194819Y-223524476D01*
X178194819Y-223524476D02*
X178194819Y-223429238D01*
X178194819Y-223429238D02*
X178147200Y-223286381D01*
X178147200Y-223286381D02*
X178051961Y-223191143D01*
X178051961Y-223191143D02*
X177956723Y-223143524D01*
X177956723Y-223143524D02*
X177766247Y-223095905D01*
X177766247Y-223095905D02*
X177623390Y-223095905D01*
X177623390Y-223095905D02*
X177432914Y-223143524D01*
X177432914Y-223143524D02*
X177337676Y-223191143D01*
X177337676Y-223191143D02*
X177242438Y-223286381D01*
X177242438Y-223286381D02*
X177194819Y-223429238D01*
X177194819Y-223429238D02*
X177194819Y-223524476D01*
X177194819Y-223524476D02*
X177242438Y-223667333D01*
X177242438Y-223667333D02*
X177290057Y-223714952D01*
X177194819Y-224048286D02*
X177194819Y-224667333D01*
X177194819Y-224667333D02*
X177575771Y-224334000D01*
X177575771Y-224334000D02*
X177575771Y-224476857D01*
X177575771Y-224476857D02*
X177623390Y-224572095D01*
X177623390Y-224572095D02*
X177671009Y-224619714D01*
X177671009Y-224619714D02*
X177766247Y-224667333D01*
X177766247Y-224667333D02*
X178004342Y-224667333D01*
X178004342Y-224667333D02*
X178099580Y-224619714D01*
X178099580Y-224619714D02*
X178147200Y-224572095D01*
X178147200Y-224572095D02*
X178194819Y-224476857D01*
X178194819Y-224476857D02*
X178194819Y-224191143D01*
X178194819Y-224191143D02*
X178147200Y-224095905D01*
X178147200Y-224095905D02*
X178099580Y-224048286D01*
X177194819Y-225286381D02*
X177194819Y-225381619D01*
X177194819Y-225381619D02*
X177242438Y-225476857D01*
X177242438Y-225476857D02*
X177290057Y-225524476D01*
X177290057Y-225524476D02*
X177385295Y-225572095D01*
X177385295Y-225572095D02*
X177575771Y-225619714D01*
X177575771Y-225619714D02*
X177813866Y-225619714D01*
X177813866Y-225619714D02*
X178004342Y-225572095D01*
X178004342Y-225572095D02*
X178099580Y-225524476D01*
X178099580Y-225524476D02*
X178147200Y-225476857D01*
X178147200Y-225476857D02*
X178194819Y-225381619D01*
X178194819Y-225381619D02*
X178194819Y-225286381D01*
X178194819Y-225286381D02*
X178147200Y-225191143D01*
X178147200Y-225191143D02*
X178099580Y-225143524D01*
X178099580Y-225143524D02*
X178004342Y-225095905D01*
X178004342Y-225095905D02*
X177813866Y-225048286D01*
X177813866Y-225048286D02*
X177575771Y-225048286D01*
X177575771Y-225048286D02*
X177385295Y-225095905D01*
X177385295Y-225095905D02*
X177290057Y-225143524D01*
X177290057Y-225143524D02*
X177242438Y-225191143D01*
X177242438Y-225191143D02*
X177194819Y-225286381D01*
X177528152Y-226476857D02*
X178194819Y-226476857D01*
X177147200Y-226238762D02*
X177861485Y-226000667D01*
X177861485Y-226000667D02*
X177861485Y-226619714D01*
X199689580Y-203648952D02*
X199737200Y-203601333D01*
X199737200Y-203601333D02*
X199784819Y-203458476D01*
X199784819Y-203458476D02*
X199784819Y-203363238D01*
X199784819Y-203363238D02*
X199737200Y-203220381D01*
X199737200Y-203220381D02*
X199641961Y-203125143D01*
X199641961Y-203125143D02*
X199546723Y-203077524D01*
X199546723Y-203077524D02*
X199356247Y-203029905D01*
X199356247Y-203029905D02*
X199213390Y-203029905D01*
X199213390Y-203029905D02*
X199022914Y-203077524D01*
X199022914Y-203077524D02*
X198927676Y-203125143D01*
X198927676Y-203125143D02*
X198832438Y-203220381D01*
X198832438Y-203220381D02*
X198784819Y-203363238D01*
X198784819Y-203363238D02*
X198784819Y-203458476D01*
X198784819Y-203458476D02*
X198832438Y-203601333D01*
X198832438Y-203601333D02*
X198880057Y-203648952D01*
X199118152Y-204506095D02*
X199784819Y-204506095D01*
X198737200Y-204268000D02*
X199451485Y-204029905D01*
X199451485Y-204029905D02*
X199451485Y-204648952D01*
X198784819Y-205220381D02*
X198784819Y-205315619D01*
X198784819Y-205315619D02*
X198832438Y-205410857D01*
X198832438Y-205410857D02*
X198880057Y-205458476D01*
X198880057Y-205458476D02*
X198975295Y-205506095D01*
X198975295Y-205506095D02*
X199165771Y-205553714D01*
X199165771Y-205553714D02*
X199403866Y-205553714D01*
X199403866Y-205553714D02*
X199594342Y-205506095D01*
X199594342Y-205506095D02*
X199689580Y-205458476D01*
X199689580Y-205458476D02*
X199737200Y-205410857D01*
X199737200Y-205410857D02*
X199784819Y-205315619D01*
X199784819Y-205315619D02*
X199784819Y-205220381D01*
X199784819Y-205220381D02*
X199737200Y-205125143D01*
X199737200Y-205125143D02*
X199689580Y-205077524D01*
X199689580Y-205077524D02*
X199594342Y-205029905D01*
X199594342Y-205029905D02*
X199403866Y-204982286D01*
X199403866Y-204982286D02*
X199165771Y-204982286D01*
X199165771Y-204982286D02*
X198975295Y-205029905D01*
X198975295Y-205029905D02*
X198880057Y-205077524D01*
X198880057Y-205077524D02*
X198832438Y-205125143D01*
X198832438Y-205125143D02*
X198784819Y-205220381D01*
X198880057Y-205934667D02*
X198832438Y-205982286D01*
X198832438Y-205982286D02*
X198784819Y-206077524D01*
X198784819Y-206077524D02*
X198784819Y-206315619D01*
X198784819Y-206315619D02*
X198832438Y-206410857D01*
X198832438Y-206410857D02*
X198880057Y-206458476D01*
X198880057Y-206458476D02*
X198975295Y-206506095D01*
X198975295Y-206506095D02*
X199070533Y-206506095D01*
X199070533Y-206506095D02*
X199213390Y-206458476D01*
X199213390Y-206458476D02*
X199784819Y-205887048D01*
X199784819Y-205887048D02*
X199784819Y-206506095D01*
X175813580Y-103064952D02*
X175861200Y-103017333D01*
X175861200Y-103017333D02*
X175908819Y-102874476D01*
X175908819Y-102874476D02*
X175908819Y-102779238D01*
X175908819Y-102779238D02*
X175861200Y-102636381D01*
X175861200Y-102636381D02*
X175765961Y-102541143D01*
X175765961Y-102541143D02*
X175670723Y-102493524D01*
X175670723Y-102493524D02*
X175480247Y-102445905D01*
X175480247Y-102445905D02*
X175337390Y-102445905D01*
X175337390Y-102445905D02*
X175146914Y-102493524D01*
X175146914Y-102493524D02*
X175051676Y-102541143D01*
X175051676Y-102541143D02*
X174956438Y-102636381D01*
X174956438Y-102636381D02*
X174908819Y-102779238D01*
X174908819Y-102779238D02*
X174908819Y-102874476D01*
X174908819Y-102874476D02*
X174956438Y-103017333D01*
X174956438Y-103017333D02*
X175004057Y-103064952D01*
X174908819Y-103398286D02*
X174908819Y-104064952D01*
X174908819Y-104064952D02*
X175908819Y-103636381D01*
X175908819Y-104969714D02*
X175908819Y-104398286D01*
X175908819Y-104684000D02*
X174908819Y-104684000D01*
X174908819Y-104684000D02*
X175051676Y-104588762D01*
X175051676Y-104588762D02*
X175146914Y-104493524D01*
X175146914Y-104493524D02*
X175194533Y-104398286D01*
X174908819Y-105588762D02*
X174908819Y-105684000D01*
X174908819Y-105684000D02*
X174956438Y-105779238D01*
X174956438Y-105779238D02*
X175004057Y-105826857D01*
X175004057Y-105826857D02*
X175099295Y-105874476D01*
X175099295Y-105874476D02*
X175289771Y-105922095D01*
X175289771Y-105922095D02*
X175527866Y-105922095D01*
X175527866Y-105922095D02*
X175718342Y-105874476D01*
X175718342Y-105874476D02*
X175813580Y-105826857D01*
X175813580Y-105826857D02*
X175861200Y-105779238D01*
X175861200Y-105779238D02*
X175908819Y-105684000D01*
X175908819Y-105684000D02*
X175908819Y-105588762D01*
X175908819Y-105588762D02*
X175861200Y-105493524D01*
X175861200Y-105493524D02*
X175813580Y-105445905D01*
X175813580Y-105445905D02*
X175718342Y-105398286D01*
X175718342Y-105398286D02*
X175527866Y-105350667D01*
X175527866Y-105350667D02*
X175289771Y-105350667D01*
X175289771Y-105350667D02*
X175099295Y-105398286D01*
X175099295Y-105398286D02*
X175004057Y-105445905D01*
X175004057Y-105445905D02*
X174956438Y-105493524D01*
X174956438Y-105493524D02*
X174908819Y-105588762D01*
X142034785Y-98896819D02*
X142034785Y-99706342D01*
X142034785Y-99706342D02*
X141987166Y-99801580D01*
X141987166Y-99801580D02*
X141939547Y-99849200D01*
X141939547Y-99849200D02*
X141844309Y-99896819D01*
X141844309Y-99896819D02*
X141653833Y-99896819D01*
X141653833Y-99896819D02*
X141558595Y-99849200D01*
X141558595Y-99849200D02*
X141510976Y-99801580D01*
X141510976Y-99801580D02*
X141463357Y-99706342D01*
X141463357Y-99706342D02*
X141463357Y-98896819D01*
X140558595Y-98896819D02*
X140749071Y-98896819D01*
X140749071Y-98896819D02*
X140844309Y-98944438D01*
X140844309Y-98944438D02*
X140891928Y-98992057D01*
X140891928Y-98992057D02*
X140987166Y-99134914D01*
X140987166Y-99134914D02*
X141034785Y-99325390D01*
X141034785Y-99325390D02*
X141034785Y-99706342D01*
X141034785Y-99706342D02*
X140987166Y-99801580D01*
X140987166Y-99801580D02*
X140939547Y-99849200D01*
X140939547Y-99849200D02*
X140844309Y-99896819D01*
X140844309Y-99896819D02*
X140653833Y-99896819D01*
X140653833Y-99896819D02*
X140558595Y-99849200D01*
X140558595Y-99849200D02*
X140510976Y-99801580D01*
X140510976Y-99801580D02*
X140463357Y-99706342D01*
X140463357Y-99706342D02*
X140463357Y-99468247D01*
X140463357Y-99468247D02*
X140510976Y-99373009D01*
X140510976Y-99373009D02*
X140558595Y-99325390D01*
X140558595Y-99325390D02*
X140653833Y-99277771D01*
X140653833Y-99277771D02*
X140844309Y-99277771D01*
X140844309Y-99277771D02*
X140939547Y-99325390D01*
X140939547Y-99325390D02*
X140987166Y-99373009D01*
X140987166Y-99373009D02*
X141034785Y-99468247D01*
X139844309Y-98896819D02*
X139749071Y-98896819D01*
X139749071Y-98896819D02*
X139653833Y-98944438D01*
X139653833Y-98944438D02*
X139606214Y-98992057D01*
X139606214Y-98992057D02*
X139558595Y-99087295D01*
X139558595Y-99087295D02*
X139510976Y-99277771D01*
X139510976Y-99277771D02*
X139510976Y-99515866D01*
X139510976Y-99515866D02*
X139558595Y-99706342D01*
X139558595Y-99706342D02*
X139606214Y-99801580D01*
X139606214Y-99801580D02*
X139653833Y-99849200D01*
X139653833Y-99849200D02*
X139749071Y-99896819D01*
X139749071Y-99896819D02*
X139844309Y-99896819D01*
X139844309Y-99896819D02*
X139939547Y-99849200D01*
X139939547Y-99849200D02*
X139987166Y-99801580D01*
X139987166Y-99801580D02*
X140034785Y-99706342D01*
X140034785Y-99706342D02*
X140082404Y-99515866D01*
X140082404Y-99515866D02*
X140082404Y-99277771D01*
X140082404Y-99277771D02*
X140034785Y-99087295D01*
X140034785Y-99087295D02*
X139987166Y-98992057D01*
X139987166Y-98992057D02*
X139939547Y-98944438D01*
X139939547Y-98944438D02*
X139844309Y-98896819D01*
X138939547Y-99325390D02*
X139034785Y-99277771D01*
X139034785Y-99277771D02*
X139082404Y-99230152D01*
X139082404Y-99230152D02*
X139130023Y-99134914D01*
X139130023Y-99134914D02*
X139130023Y-99087295D01*
X139130023Y-99087295D02*
X139082404Y-98992057D01*
X139082404Y-98992057D02*
X139034785Y-98944438D01*
X139034785Y-98944438D02*
X138939547Y-98896819D01*
X138939547Y-98896819D02*
X138749071Y-98896819D01*
X138749071Y-98896819D02*
X138653833Y-98944438D01*
X138653833Y-98944438D02*
X138606214Y-98992057D01*
X138606214Y-98992057D02*
X138558595Y-99087295D01*
X138558595Y-99087295D02*
X138558595Y-99134914D01*
X138558595Y-99134914D02*
X138606214Y-99230152D01*
X138606214Y-99230152D02*
X138653833Y-99277771D01*
X138653833Y-99277771D02*
X138749071Y-99325390D01*
X138749071Y-99325390D02*
X138939547Y-99325390D01*
X138939547Y-99325390D02*
X139034785Y-99373009D01*
X139034785Y-99373009D02*
X139082404Y-99420628D01*
X139082404Y-99420628D02*
X139130023Y-99515866D01*
X139130023Y-99515866D02*
X139130023Y-99706342D01*
X139130023Y-99706342D02*
X139082404Y-99801580D01*
X139082404Y-99801580D02*
X139034785Y-99849200D01*
X139034785Y-99849200D02*
X138939547Y-99896819D01*
X138939547Y-99896819D02*
X138749071Y-99896819D01*
X138749071Y-99896819D02*
X138653833Y-99849200D01*
X138653833Y-99849200D02*
X138606214Y-99801580D01*
X138606214Y-99801580D02*
X138558595Y-99706342D01*
X138558595Y-99706342D02*
X138558595Y-99515866D01*
X138558595Y-99515866D02*
X138606214Y-99420628D01*
X138606214Y-99420628D02*
X138653833Y-99373009D01*
X138653833Y-99373009D02*
X138749071Y-99325390D01*
X185209047Y-138579580D02*
X185256666Y-138627200D01*
X185256666Y-138627200D02*
X185399523Y-138674819D01*
X185399523Y-138674819D02*
X185494761Y-138674819D01*
X185494761Y-138674819D02*
X185637618Y-138627200D01*
X185637618Y-138627200D02*
X185732856Y-138531961D01*
X185732856Y-138531961D02*
X185780475Y-138436723D01*
X185780475Y-138436723D02*
X185828094Y-138246247D01*
X185828094Y-138246247D02*
X185828094Y-138103390D01*
X185828094Y-138103390D02*
X185780475Y-137912914D01*
X185780475Y-137912914D02*
X185732856Y-137817676D01*
X185732856Y-137817676D02*
X185637618Y-137722438D01*
X185637618Y-137722438D02*
X185494761Y-137674819D01*
X185494761Y-137674819D02*
X185399523Y-137674819D01*
X185399523Y-137674819D02*
X185256666Y-137722438D01*
X185256666Y-137722438D02*
X185209047Y-137770057D01*
X184351904Y-137674819D02*
X184542380Y-137674819D01*
X184542380Y-137674819D02*
X184637618Y-137722438D01*
X184637618Y-137722438D02*
X184685237Y-137770057D01*
X184685237Y-137770057D02*
X184780475Y-137912914D01*
X184780475Y-137912914D02*
X184828094Y-138103390D01*
X184828094Y-138103390D02*
X184828094Y-138484342D01*
X184828094Y-138484342D02*
X184780475Y-138579580D01*
X184780475Y-138579580D02*
X184732856Y-138627200D01*
X184732856Y-138627200D02*
X184637618Y-138674819D01*
X184637618Y-138674819D02*
X184447142Y-138674819D01*
X184447142Y-138674819D02*
X184351904Y-138627200D01*
X184351904Y-138627200D02*
X184304285Y-138579580D01*
X184304285Y-138579580D02*
X184256666Y-138484342D01*
X184256666Y-138484342D02*
X184256666Y-138246247D01*
X184256666Y-138246247D02*
X184304285Y-138151009D01*
X184304285Y-138151009D02*
X184351904Y-138103390D01*
X184351904Y-138103390D02*
X184447142Y-138055771D01*
X184447142Y-138055771D02*
X184637618Y-138055771D01*
X184637618Y-138055771D02*
X184732856Y-138103390D01*
X184732856Y-138103390D02*
X184780475Y-138151009D01*
X184780475Y-138151009D02*
X184828094Y-138246247D01*
X183637618Y-137674819D02*
X183542380Y-137674819D01*
X183542380Y-137674819D02*
X183447142Y-137722438D01*
X183447142Y-137722438D02*
X183399523Y-137770057D01*
X183399523Y-137770057D02*
X183351904Y-137865295D01*
X183351904Y-137865295D02*
X183304285Y-138055771D01*
X183304285Y-138055771D02*
X183304285Y-138293866D01*
X183304285Y-138293866D02*
X183351904Y-138484342D01*
X183351904Y-138484342D02*
X183399523Y-138579580D01*
X183399523Y-138579580D02*
X183447142Y-138627200D01*
X183447142Y-138627200D02*
X183542380Y-138674819D01*
X183542380Y-138674819D02*
X183637618Y-138674819D01*
X183637618Y-138674819D02*
X183732856Y-138627200D01*
X183732856Y-138627200D02*
X183780475Y-138579580D01*
X183780475Y-138579580D02*
X183828094Y-138484342D01*
X183828094Y-138484342D02*
X183875713Y-138293866D01*
X183875713Y-138293866D02*
X183875713Y-138055771D01*
X183875713Y-138055771D02*
X183828094Y-137865295D01*
X183828094Y-137865295D02*
X183780475Y-137770057D01*
X183780475Y-137770057D02*
X183732856Y-137722438D01*
X183732856Y-137722438D02*
X183637618Y-137674819D01*
X182732856Y-138103390D02*
X182828094Y-138055771D01*
X182828094Y-138055771D02*
X182875713Y-138008152D01*
X182875713Y-138008152D02*
X182923332Y-137912914D01*
X182923332Y-137912914D02*
X182923332Y-137865295D01*
X182923332Y-137865295D02*
X182875713Y-137770057D01*
X182875713Y-137770057D02*
X182828094Y-137722438D01*
X182828094Y-137722438D02*
X182732856Y-137674819D01*
X182732856Y-137674819D02*
X182542380Y-137674819D01*
X182542380Y-137674819D02*
X182447142Y-137722438D01*
X182447142Y-137722438D02*
X182399523Y-137770057D01*
X182399523Y-137770057D02*
X182351904Y-137865295D01*
X182351904Y-137865295D02*
X182351904Y-137912914D01*
X182351904Y-137912914D02*
X182399523Y-138008152D01*
X182399523Y-138008152D02*
X182447142Y-138055771D01*
X182447142Y-138055771D02*
X182542380Y-138103390D01*
X182542380Y-138103390D02*
X182732856Y-138103390D01*
X182732856Y-138103390D02*
X182828094Y-138151009D01*
X182828094Y-138151009D02*
X182875713Y-138198628D01*
X182875713Y-138198628D02*
X182923332Y-138293866D01*
X182923332Y-138293866D02*
X182923332Y-138484342D01*
X182923332Y-138484342D02*
X182875713Y-138579580D01*
X182875713Y-138579580D02*
X182828094Y-138627200D01*
X182828094Y-138627200D02*
X182732856Y-138674819D01*
X182732856Y-138674819D02*
X182542380Y-138674819D01*
X182542380Y-138674819D02*
X182447142Y-138627200D01*
X182447142Y-138627200D02*
X182399523Y-138579580D01*
X182399523Y-138579580D02*
X182351904Y-138484342D01*
X182351904Y-138484342D02*
X182351904Y-138293866D01*
X182351904Y-138293866D02*
X182399523Y-138198628D01*
X182399523Y-138198628D02*
X182447142Y-138151009D01*
X182447142Y-138151009D02*
X182542380Y-138103390D01*
X180131580Y-131512952D02*
X180179200Y-131465333D01*
X180179200Y-131465333D02*
X180226819Y-131322476D01*
X180226819Y-131322476D02*
X180226819Y-131227238D01*
X180226819Y-131227238D02*
X180179200Y-131084381D01*
X180179200Y-131084381D02*
X180083961Y-130989143D01*
X180083961Y-130989143D02*
X179988723Y-130941524D01*
X179988723Y-130941524D02*
X179798247Y-130893905D01*
X179798247Y-130893905D02*
X179655390Y-130893905D01*
X179655390Y-130893905D02*
X179464914Y-130941524D01*
X179464914Y-130941524D02*
X179369676Y-130989143D01*
X179369676Y-130989143D02*
X179274438Y-131084381D01*
X179274438Y-131084381D02*
X179226819Y-131227238D01*
X179226819Y-131227238D02*
X179226819Y-131322476D01*
X179226819Y-131322476D02*
X179274438Y-131465333D01*
X179274438Y-131465333D02*
X179322057Y-131512952D01*
X179226819Y-132370095D02*
X179226819Y-132179619D01*
X179226819Y-132179619D02*
X179274438Y-132084381D01*
X179274438Y-132084381D02*
X179322057Y-132036762D01*
X179322057Y-132036762D02*
X179464914Y-131941524D01*
X179464914Y-131941524D02*
X179655390Y-131893905D01*
X179655390Y-131893905D02*
X180036342Y-131893905D01*
X180036342Y-131893905D02*
X180131580Y-131941524D01*
X180131580Y-131941524D02*
X180179200Y-131989143D01*
X180179200Y-131989143D02*
X180226819Y-132084381D01*
X180226819Y-132084381D02*
X180226819Y-132274857D01*
X180226819Y-132274857D02*
X180179200Y-132370095D01*
X180179200Y-132370095D02*
X180131580Y-132417714D01*
X180131580Y-132417714D02*
X180036342Y-132465333D01*
X180036342Y-132465333D02*
X179798247Y-132465333D01*
X179798247Y-132465333D02*
X179703009Y-132417714D01*
X179703009Y-132417714D02*
X179655390Y-132370095D01*
X179655390Y-132370095D02*
X179607771Y-132274857D01*
X179607771Y-132274857D02*
X179607771Y-132084381D01*
X179607771Y-132084381D02*
X179655390Y-131989143D01*
X179655390Y-131989143D02*
X179703009Y-131941524D01*
X179703009Y-131941524D02*
X179798247Y-131893905D01*
X179226819Y-133084381D02*
X179226819Y-133179619D01*
X179226819Y-133179619D02*
X179274438Y-133274857D01*
X179274438Y-133274857D02*
X179322057Y-133322476D01*
X179322057Y-133322476D02*
X179417295Y-133370095D01*
X179417295Y-133370095D02*
X179607771Y-133417714D01*
X179607771Y-133417714D02*
X179845866Y-133417714D01*
X179845866Y-133417714D02*
X180036342Y-133370095D01*
X180036342Y-133370095D02*
X180131580Y-133322476D01*
X180131580Y-133322476D02*
X180179200Y-133274857D01*
X180179200Y-133274857D02*
X180226819Y-133179619D01*
X180226819Y-133179619D02*
X180226819Y-133084381D01*
X180226819Y-133084381D02*
X180179200Y-132989143D01*
X180179200Y-132989143D02*
X180131580Y-132941524D01*
X180131580Y-132941524D02*
X180036342Y-132893905D01*
X180036342Y-132893905D02*
X179845866Y-132846286D01*
X179845866Y-132846286D02*
X179607771Y-132846286D01*
X179607771Y-132846286D02*
X179417295Y-132893905D01*
X179417295Y-132893905D02*
X179322057Y-132941524D01*
X179322057Y-132941524D02*
X179274438Y-132989143D01*
X179274438Y-132989143D02*
X179226819Y-133084381D01*
X180226819Y-133893905D02*
X180226819Y-134084381D01*
X180226819Y-134084381D02*
X180179200Y-134179619D01*
X180179200Y-134179619D02*
X180131580Y-134227238D01*
X180131580Y-134227238D02*
X179988723Y-134322476D01*
X179988723Y-134322476D02*
X179798247Y-134370095D01*
X179798247Y-134370095D02*
X179417295Y-134370095D01*
X179417295Y-134370095D02*
X179322057Y-134322476D01*
X179322057Y-134322476D02*
X179274438Y-134274857D01*
X179274438Y-134274857D02*
X179226819Y-134179619D01*
X179226819Y-134179619D02*
X179226819Y-133989143D01*
X179226819Y-133989143D02*
X179274438Y-133893905D01*
X179274438Y-133893905D02*
X179322057Y-133846286D01*
X179322057Y-133846286D02*
X179417295Y-133798667D01*
X179417295Y-133798667D02*
X179655390Y-133798667D01*
X179655390Y-133798667D02*
X179750628Y-133846286D01*
X179750628Y-133846286D02*
X179798247Y-133893905D01*
X179798247Y-133893905D02*
X179845866Y-133989143D01*
X179845866Y-133989143D02*
X179845866Y-134179619D01*
X179845866Y-134179619D02*
X179798247Y-134274857D01*
X179798247Y-134274857D02*
X179750628Y-134322476D01*
X179750628Y-134322476D02*
X179655390Y-134370095D01*
X149146785Y-100928819D02*
X149146785Y-101738342D01*
X149146785Y-101738342D02*
X149099166Y-101833580D01*
X149099166Y-101833580D02*
X149051547Y-101881200D01*
X149051547Y-101881200D02*
X148956309Y-101928819D01*
X148956309Y-101928819D02*
X148765833Y-101928819D01*
X148765833Y-101928819D02*
X148670595Y-101881200D01*
X148670595Y-101881200D02*
X148622976Y-101833580D01*
X148622976Y-101833580D02*
X148575357Y-101738342D01*
X148575357Y-101738342D02*
X148575357Y-100928819D01*
X147670595Y-100928819D02*
X147861071Y-100928819D01*
X147861071Y-100928819D02*
X147956309Y-100976438D01*
X147956309Y-100976438D02*
X148003928Y-101024057D01*
X148003928Y-101024057D02*
X148099166Y-101166914D01*
X148099166Y-101166914D02*
X148146785Y-101357390D01*
X148146785Y-101357390D02*
X148146785Y-101738342D01*
X148146785Y-101738342D02*
X148099166Y-101833580D01*
X148099166Y-101833580D02*
X148051547Y-101881200D01*
X148051547Y-101881200D02*
X147956309Y-101928819D01*
X147956309Y-101928819D02*
X147765833Y-101928819D01*
X147765833Y-101928819D02*
X147670595Y-101881200D01*
X147670595Y-101881200D02*
X147622976Y-101833580D01*
X147622976Y-101833580D02*
X147575357Y-101738342D01*
X147575357Y-101738342D02*
X147575357Y-101500247D01*
X147575357Y-101500247D02*
X147622976Y-101405009D01*
X147622976Y-101405009D02*
X147670595Y-101357390D01*
X147670595Y-101357390D02*
X147765833Y-101309771D01*
X147765833Y-101309771D02*
X147956309Y-101309771D01*
X147956309Y-101309771D02*
X148051547Y-101357390D01*
X148051547Y-101357390D02*
X148099166Y-101405009D01*
X148099166Y-101405009D02*
X148146785Y-101500247D01*
X146956309Y-100928819D02*
X146861071Y-100928819D01*
X146861071Y-100928819D02*
X146765833Y-100976438D01*
X146765833Y-100976438D02*
X146718214Y-101024057D01*
X146718214Y-101024057D02*
X146670595Y-101119295D01*
X146670595Y-101119295D02*
X146622976Y-101309771D01*
X146622976Y-101309771D02*
X146622976Y-101547866D01*
X146622976Y-101547866D02*
X146670595Y-101738342D01*
X146670595Y-101738342D02*
X146718214Y-101833580D01*
X146718214Y-101833580D02*
X146765833Y-101881200D01*
X146765833Y-101881200D02*
X146861071Y-101928819D01*
X146861071Y-101928819D02*
X146956309Y-101928819D01*
X146956309Y-101928819D02*
X147051547Y-101881200D01*
X147051547Y-101881200D02*
X147099166Y-101833580D01*
X147099166Y-101833580D02*
X147146785Y-101738342D01*
X147146785Y-101738342D02*
X147194404Y-101547866D01*
X147194404Y-101547866D02*
X147194404Y-101309771D01*
X147194404Y-101309771D02*
X147146785Y-101119295D01*
X147146785Y-101119295D02*
X147099166Y-101024057D01*
X147099166Y-101024057D02*
X147051547Y-100976438D01*
X147051547Y-100976438D02*
X146956309Y-100928819D01*
X145670595Y-101928819D02*
X146242023Y-101928819D01*
X145956309Y-101928819D02*
X145956309Y-100928819D01*
X145956309Y-100928819D02*
X146051547Y-101071676D01*
X146051547Y-101071676D02*
X146146785Y-101166914D01*
X146146785Y-101166914D02*
X146242023Y-101214533D01*
X207354785Y-93000819D02*
X207354785Y-93810342D01*
X207354785Y-93810342D02*
X207307166Y-93905580D01*
X207307166Y-93905580D02*
X207259547Y-93953200D01*
X207259547Y-93953200D02*
X207164309Y-94000819D01*
X207164309Y-94000819D02*
X206973833Y-94000819D01*
X206973833Y-94000819D02*
X206878595Y-93953200D01*
X206878595Y-93953200D02*
X206830976Y-93905580D01*
X206830976Y-93905580D02*
X206783357Y-93810342D01*
X206783357Y-93810342D02*
X206783357Y-93000819D01*
X205878595Y-93000819D02*
X206069071Y-93000819D01*
X206069071Y-93000819D02*
X206164309Y-93048438D01*
X206164309Y-93048438D02*
X206211928Y-93096057D01*
X206211928Y-93096057D02*
X206307166Y-93238914D01*
X206307166Y-93238914D02*
X206354785Y-93429390D01*
X206354785Y-93429390D02*
X206354785Y-93810342D01*
X206354785Y-93810342D02*
X206307166Y-93905580D01*
X206307166Y-93905580D02*
X206259547Y-93953200D01*
X206259547Y-93953200D02*
X206164309Y-94000819D01*
X206164309Y-94000819D02*
X205973833Y-94000819D01*
X205973833Y-94000819D02*
X205878595Y-93953200D01*
X205878595Y-93953200D02*
X205830976Y-93905580D01*
X205830976Y-93905580D02*
X205783357Y-93810342D01*
X205783357Y-93810342D02*
X205783357Y-93572247D01*
X205783357Y-93572247D02*
X205830976Y-93477009D01*
X205830976Y-93477009D02*
X205878595Y-93429390D01*
X205878595Y-93429390D02*
X205973833Y-93381771D01*
X205973833Y-93381771D02*
X206164309Y-93381771D01*
X206164309Y-93381771D02*
X206259547Y-93429390D01*
X206259547Y-93429390D02*
X206307166Y-93477009D01*
X206307166Y-93477009D02*
X206354785Y-93572247D01*
X205164309Y-93000819D02*
X205069071Y-93000819D01*
X205069071Y-93000819D02*
X204973833Y-93048438D01*
X204973833Y-93048438D02*
X204926214Y-93096057D01*
X204926214Y-93096057D02*
X204878595Y-93191295D01*
X204878595Y-93191295D02*
X204830976Y-93381771D01*
X204830976Y-93381771D02*
X204830976Y-93619866D01*
X204830976Y-93619866D02*
X204878595Y-93810342D01*
X204878595Y-93810342D02*
X204926214Y-93905580D01*
X204926214Y-93905580D02*
X204973833Y-93953200D01*
X204973833Y-93953200D02*
X205069071Y-94000819D01*
X205069071Y-94000819D02*
X205164309Y-94000819D01*
X205164309Y-94000819D02*
X205259547Y-93953200D01*
X205259547Y-93953200D02*
X205307166Y-93905580D01*
X205307166Y-93905580D02*
X205354785Y-93810342D01*
X205354785Y-93810342D02*
X205402404Y-93619866D01*
X205402404Y-93619866D02*
X205402404Y-93381771D01*
X205402404Y-93381771D02*
X205354785Y-93191295D01*
X205354785Y-93191295D02*
X205307166Y-93096057D01*
X205307166Y-93096057D02*
X205259547Y-93048438D01*
X205259547Y-93048438D02*
X205164309Y-93000819D01*
X204497642Y-93000819D02*
X203830976Y-93000819D01*
X203830976Y-93000819D02*
X204259547Y-94000819D01*
X177591580Y-103064952D02*
X177639200Y-103017333D01*
X177639200Y-103017333D02*
X177686819Y-102874476D01*
X177686819Y-102874476D02*
X177686819Y-102779238D01*
X177686819Y-102779238D02*
X177639200Y-102636381D01*
X177639200Y-102636381D02*
X177543961Y-102541143D01*
X177543961Y-102541143D02*
X177448723Y-102493524D01*
X177448723Y-102493524D02*
X177258247Y-102445905D01*
X177258247Y-102445905D02*
X177115390Y-102445905D01*
X177115390Y-102445905D02*
X176924914Y-102493524D01*
X176924914Y-102493524D02*
X176829676Y-102541143D01*
X176829676Y-102541143D02*
X176734438Y-102636381D01*
X176734438Y-102636381D02*
X176686819Y-102779238D01*
X176686819Y-102779238D02*
X176686819Y-102874476D01*
X176686819Y-102874476D02*
X176734438Y-103017333D01*
X176734438Y-103017333D02*
X176782057Y-103064952D01*
X176686819Y-103398286D02*
X176686819Y-104064952D01*
X176686819Y-104064952D02*
X177686819Y-103636381D01*
X177686819Y-104969714D02*
X177686819Y-104398286D01*
X177686819Y-104684000D02*
X176686819Y-104684000D01*
X176686819Y-104684000D02*
X176829676Y-104588762D01*
X176829676Y-104588762D02*
X176924914Y-104493524D01*
X176924914Y-104493524D02*
X176972533Y-104398286D01*
X177686819Y-105922095D02*
X177686819Y-105350667D01*
X177686819Y-105636381D02*
X176686819Y-105636381D01*
X176686819Y-105636381D02*
X176829676Y-105541143D01*
X176829676Y-105541143D02*
X176924914Y-105445905D01*
X176924914Y-105445905D02*
X176972533Y-105350667D01*
X174065580Y-102964452D02*
X174113200Y-102916833D01*
X174113200Y-102916833D02*
X174160819Y-102773976D01*
X174160819Y-102773976D02*
X174160819Y-102678738D01*
X174160819Y-102678738D02*
X174113200Y-102535881D01*
X174113200Y-102535881D02*
X174017961Y-102440643D01*
X174017961Y-102440643D02*
X173922723Y-102393024D01*
X173922723Y-102393024D02*
X173732247Y-102345405D01*
X173732247Y-102345405D02*
X173589390Y-102345405D01*
X173589390Y-102345405D02*
X173398914Y-102393024D01*
X173398914Y-102393024D02*
X173303676Y-102440643D01*
X173303676Y-102440643D02*
X173208438Y-102535881D01*
X173208438Y-102535881D02*
X173160819Y-102678738D01*
X173160819Y-102678738D02*
X173160819Y-102773976D01*
X173160819Y-102773976D02*
X173208438Y-102916833D01*
X173208438Y-102916833D02*
X173256057Y-102964452D01*
X173160819Y-103297786D02*
X173160819Y-103964452D01*
X173160819Y-103964452D02*
X174160819Y-103535881D01*
X173160819Y-104535881D02*
X173160819Y-104631119D01*
X173160819Y-104631119D02*
X173208438Y-104726357D01*
X173208438Y-104726357D02*
X173256057Y-104773976D01*
X173256057Y-104773976D02*
X173351295Y-104821595D01*
X173351295Y-104821595D02*
X173541771Y-104869214D01*
X173541771Y-104869214D02*
X173779866Y-104869214D01*
X173779866Y-104869214D02*
X173970342Y-104821595D01*
X173970342Y-104821595D02*
X174065580Y-104773976D01*
X174065580Y-104773976D02*
X174113200Y-104726357D01*
X174113200Y-104726357D02*
X174160819Y-104631119D01*
X174160819Y-104631119D02*
X174160819Y-104535881D01*
X174160819Y-104535881D02*
X174113200Y-104440643D01*
X174113200Y-104440643D02*
X174065580Y-104393024D01*
X174065580Y-104393024D02*
X173970342Y-104345405D01*
X173970342Y-104345405D02*
X173779866Y-104297786D01*
X173779866Y-104297786D02*
X173541771Y-104297786D01*
X173541771Y-104297786D02*
X173351295Y-104345405D01*
X173351295Y-104345405D02*
X173256057Y-104393024D01*
X173256057Y-104393024D02*
X173208438Y-104440643D01*
X173208438Y-104440643D02*
X173160819Y-104535881D01*
X174160819Y-105345405D02*
X174160819Y-105535881D01*
X174160819Y-105535881D02*
X174113200Y-105631119D01*
X174113200Y-105631119D02*
X174065580Y-105678738D01*
X174065580Y-105678738D02*
X173922723Y-105773976D01*
X173922723Y-105773976D02*
X173732247Y-105821595D01*
X173732247Y-105821595D02*
X173351295Y-105821595D01*
X173351295Y-105821595D02*
X173256057Y-105773976D01*
X173256057Y-105773976D02*
X173208438Y-105726357D01*
X173208438Y-105726357D02*
X173160819Y-105631119D01*
X173160819Y-105631119D02*
X173160819Y-105440643D01*
X173160819Y-105440643D02*
X173208438Y-105345405D01*
X173208438Y-105345405D02*
X173256057Y-105297786D01*
X173256057Y-105297786D02*
X173351295Y-105250167D01*
X173351295Y-105250167D02*
X173589390Y-105250167D01*
X173589390Y-105250167D02*
X173684628Y-105297786D01*
X173684628Y-105297786D02*
X173732247Y-105345405D01*
X173732247Y-105345405D02*
X173779866Y-105440643D01*
X173779866Y-105440643D02*
X173779866Y-105631119D01*
X173779866Y-105631119D02*
X173732247Y-105726357D01*
X173732247Y-105726357D02*
X173684628Y-105773976D01*
X173684628Y-105773976D02*
X173589390Y-105821595D01*
X190988819Y-201767452D02*
X190512628Y-201434119D01*
X190988819Y-201196024D02*
X189988819Y-201196024D01*
X189988819Y-201196024D02*
X189988819Y-201576976D01*
X189988819Y-201576976D02*
X190036438Y-201672214D01*
X190036438Y-201672214D02*
X190084057Y-201719833D01*
X190084057Y-201719833D02*
X190179295Y-201767452D01*
X190179295Y-201767452D02*
X190322152Y-201767452D01*
X190322152Y-201767452D02*
X190417390Y-201719833D01*
X190417390Y-201719833D02*
X190465009Y-201672214D01*
X190465009Y-201672214D02*
X190512628Y-201576976D01*
X190512628Y-201576976D02*
X190512628Y-201196024D01*
X190322152Y-202624595D02*
X190988819Y-202624595D01*
X189941200Y-202386500D02*
X190655485Y-202148405D01*
X190655485Y-202148405D02*
X190655485Y-202767452D01*
X189988819Y-203338881D02*
X189988819Y-203434119D01*
X189988819Y-203434119D02*
X190036438Y-203529357D01*
X190036438Y-203529357D02*
X190084057Y-203576976D01*
X190084057Y-203576976D02*
X190179295Y-203624595D01*
X190179295Y-203624595D02*
X190369771Y-203672214D01*
X190369771Y-203672214D02*
X190607866Y-203672214D01*
X190607866Y-203672214D02*
X190798342Y-203624595D01*
X190798342Y-203624595D02*
X190893580Y-203576976D01*
X190893580Y-203576976D02*
X190941200Y-203529357D01*
X190941200Y-203529357D02*
X190988819Y-203434119D01*
X190988819Y-203434119D02*
X190988819Y-203338881D01*
X190988819Y-203338881D02*
X190941200Y-203243643D01*
X190941200Y-203243643D02*
X190893580Y-203196024D01*
X190893580Y-203196024D02*
X190798342Y-203148405D01*
X190798342Y-203148405D02*
X190607866Y-203100786D01*
X190607866Y-203100786D02*
X190369771Y-203100786D01*
X190369771Y-203100786D02*
X190179295Y-203148405D01*
X190179295Y-203148405D02*
X190084057Y-203196024D01*
X190084057Y-203196024D02*
X190036438Y-203243643D01*
X190036438Y-203243643D02*
X189988819Y-203338881D01*
X189988819Y-204576976D02*
X189988819Y-204100786D01*
X189988819Y-204100786D02*
X190465009Y-204053167D01*
X190465009Y-204053167D02*
X190417390Y-204100786D01*
X190417390Y-204100786D02*
X190369771Y-204196024D01*
X190369771Y-204196024D02*
X190369771Y-204434119D01*
X190369771Y-204434119D02*
X190417390Y-204529357D01*
X190417390Y-204529357D02*
X190465009Y-204576976D01*
X190465009Y-204576976D02*
X190560247Y-204624595D01*
X190560247Y-204624595D02*
X190798342Y-204624595D01*
X190798342Y-204624595D02*
X190893580Y-204576976D01*
X190893580Y-204576976D02*
X190941200Y-204529357D01*
X190941200Y-204529357D02*
X190988819Y-204434119D01*
X190988819Y-204434119D02*
X190988819Y-204196024D01*
X190988819Y-204196024D02*
X190941200Y-204100786D01*
X190941200Y-204100786D02*
X190893580Y-204053167D01*
X198514819Y-111192952D02*
X198038628Y-110859619D01*
X198514819Y-110621524D02*
X197514819Y-110621524D01*
X197514819Y-110621524D02*
X197514819Y-111002476D01*
X197514819Y-111002476D02*
X197562438Y-111097714D01*
X197562438Y-111097714D02*
X197610057Y-111145333D01*
X197610057Y-111145333D02*
X197705295Y-111192952D01*
X197705295Y-111192952D02*
X197848152Y-111192952D01*
X197848152Y-111192952D02*
X197943390Y-111145333D01*
X197943390Y-111145333D02*
X197991009Y-111097714D01*
X197991009Y-111097714D02*
X198038628Y-111002476D01*
X198038628Y-111002476D02*
X198038628Y-110621524D01*
X197514819Y-112050095D02*
X197514819Y-111859619D01*
X197514819Y-111859619D02*
X197562438Y-111764381D01*
X197562438Y-111764381D02*
X197610057Y-111716762D01*
X197610057Y-111716762D02*
X197752914Y-111621524D01*
X197752914Y-111621524D02*
X197943390Y-111573905D01*
X197943390Y-111573905D02*
X198324342Y-111573905D01*
X198324342Y-111573905D02*
X198419580Y-111621524D01*
X198419580Y-111621524D02*
X198467200Y-111669143D01*
X198467200Y-111669143D02*
X198514819Y-111764381D01*
X198514819Y-111764381D02*
X198514819Y-111954857D01*
X198514819Y-111954857D02*
X198467200Y-112050095D01*
X198467200Y-112050095D02*
X198419580Y-112097714D01*
X198419580Y-112097714D02*
X198324342Y-112145333D01*
X198324342Y-112145333D02*
X198086247Y-112145333D01*
X198086247Y-112145333D02*
X197991009Y-112097714D01*
X197991009Y-112097714D02*
X197943390Y-112050095D01*
X197943390Y-112050095D02*
X197895771Y-111954857D01*
X197895771Y-111954857D02*
X197895771Y-111764381D01*
X197895771Y-111764381D02*
X197943390Y-111669143D01*
X197943390Y-111669143D02*
X197991009Y-111621524D01*
X197991009Y-111621524D02*
X198086247Y-111573905D01*
X198514819Y-113097714D02*
X198514819Y-112526286D01*
X198514819Y-112812000D02*
X197514819Y-112812000D01*
X197514819Y-112812000D02*
X197657676Y-112716762D01*
X197657676Y-112716762D02*
X197752914Y-112621524D01*
X197752914Y-112621524D02*
X197800533Y-112526286D01*
X197514819Y-113431048D02*
X197514819Y-114097714D01*
X197514819Y-114097714D02*
X198514819Y-113669143D01*
X194217319Y-89178952D02*
X193741128Y-88845619D01*
X194217319Y-88607524D02*
X193217319Y-88607524D01*
X193217319Y-88607524D02*
X193217319Y-88988476D01*
X193217319Y-88988476D02*
X193264938Y-89083714D01*
X193264938Y-89083714D02*
X193312557Y-89131333D01*
X193312557Y-89131333D02*
X193407795Y-89178952D01*
X193407795Y-89178952D02*
X193550652Y-89178952D01*
X193550652Y-89178952D02*
X193645890Y-89131333D01*
X193645890Y-89131333D02*
X193693509Y-89083714D01*
X193693509Y-89083714D02*
X193741128Y-88988476D01*
X193741128Y-88988476D02*
X193741128Y-88607524D01*
X193217319Y-90036095D02*
X193217319Y-89845619D01*
X193217319Y-89845619D02*
X193264938Y-89750381D01*
X193264938Y-89750381D02*
X193312557Y-89702762D01*
X193312557Y-89702762D02*
X193455414Y-89607524D01*
X193455414Y-89607524D02*
X193645890Y-89559905D01*
X193645890Y-89559905D02*
X194026842Y-89559905D01*
X194026842Y-89559905D02*
X194122080Y-89607524D01*
X194122080Y-89607524D02*
X194169700Y-89655143D01*
X194169700Y-89655143D02*
X194217319Y-89750381D01*
X194217319Y-89750381D02*
X194217319Y-89940857D01*
X194217319Y-89940857D02*
X194169700Y-90036095D01*
X194169700Y-90036095D02*
X194122080Y-90083714D01*
X194122080Y-90083714D02*
X194026842Y-90131333D01*
X194026842Y-90131333D02*
X193788747Y-90131333D01*
X193788747Y-90131333D02*
X193693509Y-90083714D01*
X193693509Y-90083714D02*
X193645890Y-90036095D01*
X193645890Y-90036095D02*
X193598271Y-89940857D01*
X193598271Y-89940857D02*
X193598271Y-89750381D01*
X193598271Y-89750381D02*
X193645890Y-89655143D01*
X193645890Y-89655143D02*
X193693509Y-89607524D01*
X193693509Y-89607524D02*
X193788747Y-89559905D01*
X193312557Y-90512286D02*
X193264938Y-90559905D01*
X193264938Y-90559905D02*
X193217319Y-90655143D01*
X193217319Y-90655143D02*
X193217319Y-90893238D01*
X193217319Y-90893238D02*
X193264938Y-90988476D01*
X193264938Y-90988476D02*
X193312557Y-91036095D01*
X193312557Y-91036095D02*
X193407795Y-91083714D01*
X193407795Y-91083714D02*
X193503033Y-91083714D01*
X193503033Y-91083714D02*
X193645890Y-91036095D01*
X193645890Y-91036095D02*
X194217319Y-90464667D01*
X194217319Y-90464667D02*
X194217319Y-91083714D01*
X193217319Y-91417048D02*
X193217319Y-92036095D01*
X193217319Y-92036095D02*
X193598271Y-91702762D01*
X193598271Y-91702762D02*
X193598271Y-91845619D01*
X193598271Y-91845619D02*
X193645890Y-91940857D01*
X193645890Y-91940857D02*
X193693509Y-91988476D01*
X193693509Y-91988476D02*
X193788747Y-92036095D01*
X193788747Y-92036095D02*
X194026842Y-92036095D01*
X194026842Y-92036095D02*
X194122080Y-91988476D01*
X194122080Y-91988476D02*
X194169700Y-91940857D01*
X194169700Y-91940857D02*
X194217319Y-91845619D01*
X194217319Y-91845619D02*
X194217319Y-91559905D01*
X194217319Y-91559905D02*
X194169700Y-91464667D01*
X194169700Y-91464667D02*
X194122080Y-91417048D01*
X196482819Y-111192952D02*
X196006628Y-110859619D01*
X196482819Y-110621524D02*
X195482819Y-110621524D01*
X195482819Y-110621524D02*
X195482819Y-111002476D01*
X195482819Y-111002476D02*
X195530438Y-111097714D01*
X195530438Y-111097714D02*
X195578057Y-111145333D01*
X195578057Y-111145333D02*
X195673295Y-111192952D01*
X195673295Y-111192952D02*
X195816152Y-111192952D01*
X195816152Y-111192952D02*
X195911390Y-111145333D01*
X195911390Y-111145333D02*
X195959009Y-111097714D01*
X195959009Y-111097714D02*
X196006628Y-111002476D01*
X196006628Y-111002476D02*
X196006628Y-110621524D01*
X195482819Y-112050095D02*
X195482819Y-111859619D01*
X195482819Y-111859619D02*
X195530438Y-111764381D01*
X195530438Y-111764381D02*
X195578057Y-111716762D01*
X195578057Y-111716762D02*
X195720914Y-111621524D01*
X195720914Y-111621524D02*
X195911390Y-111573905D01*
X195911390Y-111573905D02*
X196292342Y-111573905D01*
X196292342Y-111573905D02*
X196387580Y-111621524D01*
X196387580Y-111621524D02*
X196435200Y-111669143D01*
X196435200Y-111669143D02*
X196482819Y-111764381D01*
X196482819Y-111764381D02*
X196482819Y-111954857D01*
X196482819Y-111954857D02*
X196435200Y-112050095D01*
X196435200Y-112050095D02*
X196387580Y-112097714D01*
X196387580Y-112097714D02*
X196292342Y-112145333D01*
X196292342Y-112145333D02*
X196054247Y-112145333D01*
X196054247Y-112145333D02*
X195959009Y-112097714D01*
X195959009Y-112097714D02*
X195911390Y-112050095D01*
X195911390Y-112050095D02*
X195863771Y-111954857D01*
X195863771Y-111954857D02*
X195863771Y-111764381D01*
X195863771Y-111764381D02*
X195911390Y-111669143D01*
X195911390Y-111669143D02*
X195959009Y-111621524D01*
X195959009Y-111621524D02*
X196054247Y-111573905D01*
X196482819Y-113097714D02*
X196482819Y-112526286D01*
X196482819Y-112812000D02*
X195482819Y-112812000D01*
X195482819Y-112812000D02*
X195625676Y-112716762D01*
X195625676Y-112716762D02*
X195720914Y-112621524D01*
X195720914Y-112621524D02*
X195768533Y-112526286D01*
X195911390Y-113669143D02*
X195863771Y-113573905D01*
X195863771Y-113573905D02*
X195816152Y-113526286D01*
X195816152Y-113526286D02*
X195720914Y-113478667D01*
X195720914Y-113478667D02*
X195673295Y-113478667D01*
X195673295Y-113478667D02*
X195578057Y-113526286D01*
X195578057Y-113526286D02*
X195530438Y-113573905D01*
X195530438Y-113573905D02*
X195482819Y-113669143D01*
X195482819Y-113669143D02*
X195482819Y-113859619D01*
X195482819Y-113859619D02*
X195530438Y-113954857D01*
X195530438Y-113954857D02*
X195578057Y-114002476D01*
X195578057Y-114002476D02*
X195673295Y-114050095D01*
X195673295Y-114050095D02*
X195720914Y-114050095D01*
X195720914Y-114050095D02*
X195816152Y-114002476D01*
X195816152Y-114002476D02*
X195863771Y-113954857D01*
X195863771Y-113954857D02*
X195911390Y-113859619D01*
X195911390Y-113859619D02*
X195911390Y-113669143D01*
X195911390Y-113669143D02*
X195959009Y-113573905D01*
X195959009Y-113573905D02*
X196006628Y-113526286D01*
X196006628Y-113526286D02*
X196101866Y-113478667D01*
X196101866Y-113478667D02*
X196292342Y-113478667D01*
X196292342Y-113478667D02*
X196387580Y-113526286D01*
X196387580Y-113526286D02*
X196435200Y-113573905D01*
X196435200Y-113573905D02*
X196482819Y-113669143D01*
X196482819Y-113669143D02*
X196482819Y-113859619D01*
X196482819Y-113859619D02*
X196435200Y-113954857D01*
X196435200Y-113954857D02*
X196387580Y-114002476D01*
X196387580Y-114002476D02*
X196292342Y-114050095D01*
X196292342Y-114050095D02*
X196101866Y-114050095D01*
X196101866Y-114050095D02*
X196006628Y-114002476D01*
X196006628Y-114002476D02*
X195959009Y-113954857D01*
X195959009Y-113954857D02*
X195911390Y-113859619D01*
X132663319Y-104252285D02*
X133377604Y-104252285D01*
X133377604Y-104252285D02*
X133520461Y-104204666D01*
X133520461Y-104204666D02*
X133615700Y-104109428D01*
X133615700Y-104109428D02*
X133663319Y-103966571D01*
X133663319Y-103966571D02*
X133663319Y-103871333D01*
X133663319Y-105252285D02*
X133663319Y-104680857D01*
X133663319Y-104966571D02*
X132663319Y-104966571D01*
X132663319Y-104966571D02*
X132806176Y-104871333D01*
X132806176Y-104871333D02*
X132901414Y-104776095D01*
X132901414Y-104776095D02*
X132949033Y-104680857D01*
X132663319Y-105871333D02*
X132663319Y-105966571D01*
X132663319Y-105966571D02*
X132710938Y-106061809D01*
X132710938Y-106061809D02*
X132758557Y-106109428D01*
X132758557Y-106109428D02*
X132853795Y-106157047D01*
X132853795Y-106157047D02*
X133044271Y-106204666D01*
X133044271Y-106204666D02*
X133282366Y-106204666D01*
X133282366Y-106204666D02*
X133472842Y-106157047D01*
X133472842Y-106157047D02*
X133568080Y-106109428D01*
X133568080Y-106109428D02*
X133615700Y-106061809D01*
X133615700Y-106061809D02*
X133663319Y-105966571D01*
X133663319Y-105966571D02*
X133663319Y-105871333D01*
X133663319Y-105871333D02*
X133615700Y-105776095D01*
X133615700Y-105776095D02*
X133568080Y-105728476D01*
X133568080Y-105728476D02*
X133472842Y-105680857D01*
X133472842Y-105680857D02*
X133282366Y-105633238D01*
X133282366Y-105633238D02*
X133044271Y-105633238D01*
X133044271Y-105633238D02*
X132853795Y-105680857D01*
X132853795Y-105680857D02*
X132758557Y-105728476D01*
X132758557Y-105728476D02*
X132710938Y-105776095D01*
X132710938Y-105776095D02*
X132663319Y-105871333D01*
X133663319Y-107157047D02*
X133663319Y-106585619D01*
X133663319Y-106871333D02*
X132663319Y-106871333D01*
X132663319Y-106871333D02*
X132806176Y-106776095D01*
X132806176Y-106776095D02*
X132901414Y-106680857D01*
X132901414Y-106680857D02*
X132949033Y-106585619D01*
X198281319Y-89178952D02*
X197805128Y-88845619D01*
X198281319Y-88607524D02*
X197281319Y-88607524D01*
X197281319Y-88607524D02*
X197281319Y-88988476D01*
X197281319Y-88988476D02*
X197328938Y-89083714D01*
X197328938Y-89083714D02*
X197376557Y-89131333D01*
X197376557Y-89131333D02*
X197471795Y-89178952D01*
X197471795Y-89178952D02*
X197614652Y-89178952D01*
X197614652Y-89178952D02*
X197709890Y-89131333D01*
X197709890Y-89131333D02*
X197757509Y-89083714D01*
X197757509Y-89083714D02*
X197805128Y-88988476D01*
X197805128Y-88988476D02*
X197805128Y-88607524D01*
X197281319Y-90036095D02*
X197281319Y-89845619D01*
X197281319Y-89845619D02*
X197328938Y-89750381D01*
X197328938Y-89750381D02*
X197376557Y-89702762D01*
X197376557Y-89702762D02*
X197519414Y-89607524D01*
X197519414Y-89607524D02*
X197709890Y-89559905D01*
X197709890Y-89559905D02*
X198090842Y-89559905D01*
X198090842Y-89559905D02*
X198186080Y-89607524D01*
X198186080Y-89607524D02*
X198233700Y-89655143D01*
X198233700Y-89655143D02*
X198281319Y-89750381D01*
X198281319Y-89750381D02*
X198281319Y-89940857D01*
X198281319Y-89940857D02*
X198233700Y-90036095D01*
X198233700Y-90036095D02*
X198186080Y-90083714D01*
X198186080Y-90083714D02*
X198090842Y-90131333D01*
X198090842Y-90131333D02*
X197852747Y-90131333D01*
X197852747Y-90131333D02*
X197757509Y-90083714D01*
X197757509Y-90083714D02*
X197709890Y-90036095D01*
X197709890Y-90036095D02*
X197662271Y-89940857D01*
X197662271Y-89940857D02*
X197662271Y-89750381D01*
X197662271Y-89750381D02*
X197709890Y-89655143D01*
X197709890Y-89655143D02*
X197757509Y-89607524D01*
X197757509Y-89607524D02*
X197852747Y-89559905D01*
X197376557Y-90512286D02*
X197328938Y-90559905D01*
X197328938Y-90559905D02*
X197281319Y-90655143D01*
X197281319Y-90655143D02*
X197281319Y-90893238D01*
X197281319Y-90893238D02*
X197328938Y-90988476D01*
X197328938Y-90988476D02*
X197376557Y-91036095D01*
X197376557Y-91036095D02*
X197471795Y-91083714D01*
X197471795Y-91083714D02*
X197567033Y-91083714D01*
X197567033Y-91083714D02*
X197709890Y-91036095D01*
X197709890Y-91036095D02*
X198281319Y-90464667D01*
X198281319Y-90464667D02*
X198281319Y-91083714D01*
X198281319Y-92036095D02*
X198281319Y-91464667D01*
X198281319Y-91750381D02*
X197281319Y-91750381D01*
X197281319Y-91750381D02*
X197424176Y-91655143D01*
X197424176Y-91655143D02*
X197519414Y-91559905D01*
X197519414Y-91559905D02*
X197567033Y-91464667D01*
X184957580Y-227270952D02*
X185005200Y-227223333D01*
X185005200Y-227223333D02*
X185052819Y-227080476D01*
X185052819Y-227080476D02*
X185052819Y-226985238D01*
X185052819Y-226985238D02*
X185005200Y-226842381D01*
X185005200Y-226842381D02*
X184909961Y-226747143D01*
X184909961Y-226747143D02*
X184814723Y-226699524D01*
X184814723Y-226699524D02*
X184624247Y-226651905D01*
X184624247Y-226651905D02*
X184481390Y-226651905D01*
X184481390Y-226651905D02*
X184290914Y-226699524D01*
X184290914Y-226699524D02*
X184195676Y-226747143D01*
X184195676Y-226747143D02*
X184100438Y-226842381D01*
X184100438Y-226842381D02*
X184052819Y-226985238D01*
X184052819Y-226985238D02*
X184052819Y-227080476D01*
X184052819Y-227080476D02*
X184100438Y-227223333D01*
X184100438Y-227223333D02*
X184148057Y-227270952D01*
X184052819Y-227604286D02*
X184052819Y-228223333D01*
X184052819Y-228223333D02*
X184433771Y-227890000D01*
X184433771Y-227890000D02*
X184433771Y-228032857D01*
X184433771Y-228032857D02*
X184481390Y-228128095D01*
X184481390Y-228128095D02*
X184529009Y-228175714D01*
X184529009Y-228175714D02*
X184624247Y-228223333D01*
X184624247Y-228223333D02*
X184862342Y-228223333D01*
X184862342Y-228223333D02*
X184957580Y-228175714D01*
X184957580Y-228175714D02*
X185005200Y-228128095D01*
X185005200Y-228128095D02*
X185052819Y-228032857D01*
X185052819Y-228032857D02*
X185052819Y-227747143D01*
X185052819Y-227747143D02*
X185005200Y-227651905D01*
X185005200Y-227651905D02*
X184957580Y-227604286D01*
X184052819Y-228842381D02*
X184052819Y-228937619D01*
X184052819Y-228937619D02*
X184100438Y-229032857D01*
X184100438Y-229032857D02*
X184148057Y-229080476D01*
X184148057Y-229080476D02*
X184243295Y-229128095D01*
X184243295Y-229128095D02*
X184433771Y-229175714D01*
X184433771Y-229175714D02*
X184671866Y-229175714D01*
X184671866Y-229175714D02*
X184862342Y-229128095D01*
X184862342Y-229128095D02*
X184957580Y-229080476D01*
X184957580Y-229080476D02*
X185005200Y-229032857D01*
X185005200Y-229032857D02*
X185052819Y-228937619D01*
X185052819Y-228937619D02*
X185052819Y-228842381D01*
X185052819Y-228842381D02*
X185005200Y-228747143D01*
X185005200Y-228747143D02*
X184957580Y-228699524D01*
X184957580Y-228699524D02*
X184862342Y-228651905D01*
X184862342Y-228651905D02*
X184671866Y-228604286D01*
X184671866Y-228604286D02*
X184433771Y-228604286D01*
X184433771Y-228604286D02*
X184243295Y-228651905D01*
X184243295Y-228651905D02*
X184148057Y-228699524D01*
X184148057Y-228699524D02*
X184100438Y-228747143D01*
X184100438Y-228747143D02*
X184052819Y-228842381D01*
X185052819Y-230128095D02*
X185052819Y-229556667D01*
X185052819Y-229842381D02*
X184052819Y-229842381D01*
X184052819Y-229842381D02*
X184195676Y-229747143D01*
X184195676Y-229747143D02*
X184290914Y-229651905D01*
X184290914Y-229651905D02*
X184338533Y-229556667D01*
X165397047Y-148579580D02*
X165444666Y-148627200D01*
X165444666Y-148627200D02*
X165587523Y-148674819D01*
X165587523Y-148674819D02*
X165682761Y-148674819D01*
X165682761Y-148674819D02*
X165825618Y-148627200D01*
X165825618Y-148627200D02*
X165920856Y-148531961D01*
X165920856Y-148531961D02*
X165968475Y-148436723D01*
X165968475Y-148436723D02*
X166016094Y-148246247D01*
X166016094Y-148246247D02*
X166016094Y-148103390D01*
X166016094Y-148103390D02*
X165968475Y-147912914D01*
X165968475Y-147912914D02*
X165920856Y-147817676D01*
X165920856Y-147817676D02*
X165825618Y-147722438D01*
X165825618Y-147722438D02*
X165682761Y-147674819D01*
X165682761Y-147674819D02*
X165587523Y-147674819D01*
X165587523Y-147674819D02*
X165444666Y-147722438D01*
X165444666Y-147722438D02*
X165397047Y-147770057D01*
X164539904Y-147674819D02*
X164730380Y-147674819D01*
X164730380Y-147674819D02*
X164825618Y-147722438D01*
X164825618Y-147722438D02*
X164873237Y-147770057D01*
X164873237Y-147770057D02*
X164968475Y-147912914D01*
X164968475Y-147912914D02*
X165016094Y-148103390D01*
X165016094Y-148103390D02*
X165016094Y-148484342D01*
X165016094Y-148484342D02*
X164968475Y-148579580D01*
X164968475Y-148579580D02*
X164920856Y-148627200D01*
X164920856Y-148627200D02*
X164825618Y-148674819D01*
X164825618Y-148674819D02*
X164635142Y-148674819D01*
X164635142Y-148674819D02*
X164539904Y-148627200D01*
X164539904Y-148627200D02*
X164492285Y-148579580D01*
X164492285Y-148579580D02*
X164444666Y-148484342D01*
X164444666Y-148484342D02*
X164444666Y-148246247D01*
X164444666Y-148246247D02*
X164492285Y-148151009D01*
X164492285Y-148151009D02*
X164539904Y-148103390D01*
X164539904Y-148103390D02*
X164635142Y-148055771D01*
X164635142Y-148055771D02*
X164825618Y-148055771D01*
X164825618Y-148055771D02*
X164920856Y-148103390D01*
X164920856Y-148103390D02*
X164968475Y-148151009D01*
X164968475Y-148151009D02*
X165016094Y-148246247D01*
X163825618Y-147674819D02*
X163730380Y-147674819D01*
X163730380Y-147674819D02*
X163635142Y-147722438D01*
X163635142Y-147722438D02*
X163587523Y-147770057D01*
X163587523Y-147770057D02*
X163539904Y-147865295D01*
X163539904Y-147865295D02*
X163492285Y-148055771D01*
X163492285Y-148055771D02*
X163492285Y-148293866D01*
X163492285Y-148293866D02*
X163539904Y-148484342D01*
X163539904Y-148484342D02*
X163587523Y-148579580D01*
X163587523Y-148579580D02*
X163635142Y-148627200D01*
X163635142Y-148627200D02*
X163730380Y-148674819D01*
X163730380Y-148674819D02*
X163825618Y-148674819D01*
X163825618Y-148674819D02*
X163920856Y-148627200D01*
X163920856Y-148627200D02*
X163968475Y-148579580D01*
X163968475Y-148579580D02*
X164016094Y-148484342D01*
X164016094Y-148484342D02*
X164063713Y-148293866D01*
X164063713Y-148293866D02*
X164063713Y-148055771D01*
X164063713Y-148055771D02*
X164016094Y-147865295D01*
X164016094Y-147865295D02*
X163968475Y-147770057D01*
X163968475Y-147770057D02*
X163920856Y-147722438D01*
X163920856Y-147722438D02*
X163825618Y-147674819D01*
X163158951Y-147674819D02*
X162492285Y-147674819D01*
X162492285Y-147674819D02*
X162920856Y-148674819D01*
X190988819Y-205934952D02*
X190512628Y-205601619D01*
X190988819Y-205363524D02*
X189988819Y-205363524D01*
X189988819Y-205363524D02*
X189988819Y-205744476D01*
X189988819Y-205744476D02*
X190036438Y-205839714D01*
X190036438Y-205839714D02*
X190084057Y-205887333D01*
X190084057Y-205887333D02*
X190179295Y-205934952D01*
X190179295Y-205934952D02*
X190322152Y-205934952D01*
X190322152Y-205934952D02*
X190417390Y-205887333D01*
X190417390Y-205887333D02*
X190465009Y-205839714D01*
X190465009Y-205839714D02*
X190512628Y-205744476D01*
X190512628Y-205744476D02*
X190512628Y-205363524D01*
X190322152Y-206792095D02*
X190988819Y-206792095D01*
X189941200Y-206554000D02*
X190655485Y-206315905D01*
X190655485Y-206315905D02*
X190655485Y-206934952D01*
X189988819Y-207506381D02*
X189988819Y-207601619D01*
X189988819Y-207601619D02*
X190036438Y-207696857D01*
X190036438Y-207696857D02*
X190084057Y-207744476D01*
X190084057Y-207744476D02*
X190179295Y-207792095D01*
X190179295Y-207792095D02*
X190369771Y-207839714D01*
X190369771Y-207839714D02*
X190607866Y-207839714D01*
X190607866Y-207839714D02*
X190798342Y-207792095D01*
X190798342Y-207792095D02*
X190893580Y-207744476D01*
X190893580Y-207744476D02*
X190941200Y-207696857D01*
X190941200Y-207696857D02*
X190988819Y-207601619D01*
X190988819Y-207601619D02*
X190988819Y-207506381D01*
X190988819Y-207506381D02*
X190941200Y-207411143D01*
X190941200Y-207411143D02*
X190893580Y-207363524D01*
X190893580Y-207363524D02*
X190798342Y-207315905D01*
X190798342Y-207315905D02*
X190607866Y-207268286D01*
X190607866Y-207268286D02*
X190369771Y-207268286D01*
X190369771Y-207268286D02*
X190179295Y-207315905D01*
X190179295Y-207315905D02*
X190084057Y-207363524D01*
X190084057Y-207363524D02*
X190036438Y-207411143D01*
X190036438Y-207411143D02*
X189988819Y-207506381D01*
X190322152Y-208696857D02*
X190988819Y-208696857D01*
X189941200Y-208458762D02*
X190655485Y-208220667D01*
X190655485Y-208220667D02*
X190655485Y-208839714D01*
X165397047Y-153471580D02*
X165444666Y-153519200D01*
X165444666Y-153519200D02*
X165587523Y-153566819D01*
X165587523Y-153566819D02*
X165682761Y-153566819D01*
X165682761Y-153566819D02*
X165825618Y-153519200D01*
X165825618Y-153519200D02*
X165920856Y-153423961D01*
X165920856Y-153423961D02*
X165968475Y-153328723D01*
X165968475Y-153328723D02*
X166016094Y-153138247D01*
X166016094Y-153138247D02*
X166016094Y-152995390D01*
X166016094Y-152995390D02*
X165968475Y-152804914D01*
X165968475Y-152804914D02*
X165920856Y-152709676D01*
X165920856Y-152709676D02*
X165825618Y-152614438D01*
X165825618Y-152614438D02*
X165682761Y-152566819D01*
X165682761Y-152566819D02*
X165587523Y-152566819D01*
X165587523Y-152566819D02*
X165444666Y-152614438D01*
X165444666Y-152614438D02*
X165397047Y-152662057D01*
X164539904Y-152566819D02*
X164730380Y-152566819D01*
X164730380Y-152566819D02*
X164825618Y-152614438D01*
X164825618Y-152614438D02*
X164873237Y-152662057D01*
X164873237Y-152662057D02*
X164968475Y-152804914D01*
X164968475Y-152804914D02*
X165016094Y-152995390D01*
X165016094Y-152995390D02*
X165016094Y-153376342D01*
X165016094Y-153376342D02*
X164968475Y-153471580D01*
X164968475Y-153471580D02*
X164920856Y-153519200D01*
X164920856Y-153519200D02*
X164825618Y-153566819D01*
X164825618Y-153566819D02*
X164635142Y-153566819D01*
X164635142Y-153566819D02*
X164539904Y-153519200D01*
X164539904Y-153519200D02*
X164492285Y-153471580D01*
X164492285Y-153471580D02*
X164444666Y-153376342D01*
X164444666Y-153376342D02*
X164444666Y-153138247D01*
X164444666Y-153138247D02*
X164492285Y-153043009D01*
X164492285Y-153043009D02*
X164539904Y-152995390D01*
X164539904Y-152995390D02*
X164635142Y-152947771D01*
X164635142Y-152947771D02*
X164825618Y-152947771D01*
X164825618Y-152947771D02*
X164920856Y-152995390D01*
X164920856Y-152995390D02*
X164968475Y-153043009D01*
X164968475Y-153043009D02*
X165016094Y-153138247D01*
X163492285Y-153566819D02*
X164063713Y-153566819D01*
X163777999Y-153566819D02*
X163777999Y-152566819D01*
X163777999Y-152566819D02*
X163873237Y-152709676D01*
X163873237Y-152709676D02*
X163968475Y-152804914D01*
X163968475Y-152804914D02*
X164063713Y-152852533D01*
X162920856Y-152995390D02*
X163016094Y-152947771D01*
X163016094Y-152947771D02*
X163063713Y-152900152D01*
X163063713Y-152900152D02*
X163111332Y-152804914D01*
X163111332Y-152804914D02*
X163111332Y-152757295D01*
X163111332Y-152757295D02*
X163063713Y-152662057D01*
X163063713Y-152662057D02*
X163016094Y-152614438D01*
X163016094Y-152614438D02*
X162920856Y-152566819D01*
X162920856Y-152566819D02*
X162730380Y-152566819D01*
X162730380Y-152566819D02*
X162635142Y-152614438D01*
X162635142Y-152614438D02*
X162587523Y-152662057D01*
X162587523Y-152662057D02*
X162539904Y-152757295D01*
X162539904Y-152757295D02*
X162539904Y-152804914D01*
X162539904Y-152804914D02*
X162587523Y-152900152D01*
X162587523Y-152900152D02*
X162635142Y-152947771D01*
X162635142Y-152947771D02*
X162730380Y-152995390D01*
X162730380Y-152995390D02*
X162920856Y-152995390D01*
X162920856Y-152995390D02*
X163016094Y-153043009D01*
X163016094Y-153043009D02*
X163063713Y-153090628D01*
X163063713Y-153090628D02*
X163111332Y-153185866D01*
X163111332Y-153185866D02*
X163111332Y-153376342D01*
X163111332Y-153376342D02*
X163063713Y-153471580D01*
X163063713Y-153471580D02*
X163016094Y-153519200D01*
X163016094Y-153519200D02*
X162920856Y-153566819D01*
X162920856Y-153566819D02*
X162730380Y-153566819D01*
X162730380Y-153566819D02*
X162635142Y-153519200D01*
X162635142Y-153519200D02*
X162587523Y-153471580D01*
X162587523Y-153471580D02*
X162539904Y-153376342D01*
X162539904Y-153376342D02*
X162539904Y-153185866D01*
X162539904Y-153185866D02*
X162587523Y-153090628D01*
X162587523Y-153090628D02*
X162635142Y-153043009D01*
X162635142Y-153043009D02*
X162730380Y-152995390D01*
D12*
%TO.C,C621*%
X183943733Y-134408000D02*
X184236267Y-134408000D01*
X183943733Y-135428000D02*
X184236267Y-135428000D01*
%TO.C,C606*%
X165800000Y-132778267D02*
X165800000Y-132485733D01*
X166820000Y-132778267D02*
X166820000Y-132485733D01*
%TO.C,R603*%
X153864724Y-98073500D02*
X153355276Y-98073500D01*
X153864724Y-99118500D02*
X153355276Y-99118500D01*
%TO.C,C601*%
X164131733Y-144568000D02*
X164424267Y-144568000D01*
X164131733Y-145588000D02*
X164424267Y-145588000D01*
%TO.C,U609*%
X140320500Y-107280000D02*
X139520500Y-107280000D01*
X140320500Y-107280000D02*
X141120500Y-107280000D01*
X140320500Y-110400000D02*
X139520500Y-110400000D01*
X140320500Y-110400000D02*
X141120500Y-110400000D01*
X141620500Y-107330000D02*
X141380500Y-107000000D01*
X141860500Y-107000000D01*
X141620500Y-107330000D01*
G36*
X141620500Y-107330000D02*
G01*
X141380500Y-107000000D01*
X141860500Y-107000000D01*
X141620500Y-107330000D01*
G37*
%TO.C,C708*%
X171388000Y-100227733D02*
X171388000Y-100520267D01*
X172408000Y-100227733D02*
X172408000Y-100520267D01*
%TO.C,C613*%
X181294000Y-152590267D02*
X181294000Y-152297733D01*
X182314000Y-152590267D02*
X182314000Y-152297733D01*
%TO.C,C707*%
X169610000Y-100227733D02*
X169610000Y-100520267D01*
X170630000Y-100227733D02*
X170630000Y-100520267D01*
%TO.C,C202*%
X153868000Y-224257733D02*
X153868000Y-224550267D01*
X154888000Y-224257733D02*
X154888000Y-224550267D01*
%TO.C,U606*%
X203330500Y-107086000D02*
X203330500Y-107366000D01*
X203330500Y-117706000D02*
X203330500Y-117426000D01*
X205640500Y-107086000D02*
X203330500Y-107086000D01*
X205640500Y-107086000D02*
X207950500Y-107086000D01*
X205640500Y-117706000D02*
X203330500Y-117706000D01*
X205640500Y-117706000D02*
X207950500Y-117706000D01*
X207950500Y-107086000D02*
X207950500Y-107366000D01*
X207950500Y-117706000D02*
X207950500Y-117426000D01*
X208740500Y-107366000D02*
X208500500Y-107036000D01*
X208980500Y-107036000D01*
X208740500Y-107366000D01*
G36*
X208740500Y-107366000D02*
G01*
X208500500Y-107036000D01*
X208980500Y-107036000D01*
X208740500Y-107366000D01*
G37*
D13*
%TO.C,U602*%
X149515000Y-110658000D02*
X145615000Y-110658000D01*
X149515000Y-115658000D02*
X145615000Y-115658000D01*
D14*
X151960000Y-110798000D02*
G75*
G02*
X151760000Y-110798000I-100000J0D01*
G01*
X151760000Y-110798000D02*
G75*
G02*
X151960000Y-110798000I100000J0D01*
G01*
D12*
%TO.C,C610*%
X174690000Y-132485733D02*
X174690000Y-132778267D01*
X175710000Y-132485733D02*
X175710000Y-132778267D01*
%TO.C,C619*%
X171388000Y-152436767D02*
X171388000Y-152144233D01*
X172408000Y-152436767D02*
X172408000Y-152144233D01*
%TO.C,C406*%
X194756000Y-206907733D02*
X194756000Y-207200267D01*
X195776000Y-206907733D02*
X195776000Y-207200267D01*
%TO.C,C612*%
X169610000Y-132485733D02*
X169610000Y-132778267D01*
X170630000Y-132485733D02*
X170630000Y-132778267D01*
%TO.C,R614*%
X151241776Y-108825500D02*
X151751224Y-108825500D01*
X151241776Y-109870500D02*
X151751224Y-109870500D01*
%TO.C,C617*%
X164131733Y-139234000D02*
X164424267Y-139234000D01*
X164131733Y-140254000D02*
X164424267Y-140254000D01*
%TO.C,C201*%
X154485733Y-228466000D02*
X154778267Y-228466000D01*
X154485733Y-229486000D02*
X154778267Y-229486000D01*
%TO.C,R620*%
X199276000Y-94466224D02*
X199276000Y-93956776D01*
X200321000Y-94466224D02*
X200321000Y-93956776D01*
%TO.C,C403*%
X197042000Y-213804267D02*
X197042000Y-213511733D01*
X198062000Y-213804267D02*
X198062000Y-213511733D01*
%TO.C,R622*%
X195242000Y-94466224D02*
X195242000Y-93956776D01*
X196287000Y-94466224D02*
X196287000Y-93956776D01*
%TO.C,C620*%
X184236267Y-155236000D02*
X183943733Y-155236000D01*
X184236267Y-156256000D02*
X183943733Y-156256000D01*
%TO.C,C615*%
X176214000Y-152590267D02*
X176214000Y-152297733D01*
X177234000Y-152590267D02*
X177234000Y-152297733D01*
%TO.C,R602*%
X151241776Y-93585500D02*
X151751224Y-93585500D01*
X151241776Y-94630500D02*
X151751224Y-94630500D01*
%TO.C,C614*%
X182818000Y-152590267D02*
X182818000Y-152297733D01*
X183838000Y-152590267D02*
X183838000Y-152297733D01*
%TO.C,C604*%
X183943733Y-148378000D02*
X184236267Y-148378000D01*
X183943733Y-149398000D02*
X184236267Y-149398000D01*
%TO.C,R619*%
X193434000Y-116228776D02*
X193434000Y-116738224D01*
X194479000Y-116228776D02*
X194479000Y-116738224D01*
%TO.C,R616*%
X199530000Y-116228776D02*
X199530000Y-116738224D01*
X200575000Y-116228776D02*
X200575000Y-116738224D01*
%TO.C,C706*%
X180278000Y-93662267D02*
X180278000Y-93369733D01*
X181298000Y-93662267D02*
X181298000Y-93369733D01*
%TO.C,C616*%
X164022000Y-132485733D02*
X164022000Y-132778267D01*
X165042000Y-132485733D02*
X165042000Y-132778267D01*
%TO.C,R108*%
X164532724Y-76229500D02*
X164023276Y-76229500D01*
X164532724Y-77274500D02*
X164023276Y-77274500D01*
%TO.C,C404*%
X191817733Y-212132000D02*
X192110267Y-212132000D01*
X191817733Y-213152000D02*
X192110267Y-213152000D01*
%TO.C,R109*%
X180787276Y-73943500D02*
X181296724Y-73943500D01*
X180787276Y-74988500D02*
X181296724Y-74988500D01*
%TO.C,C401*%
X197042000Y-206907733D02*
X197042000Y-207200267D01*
X198062000Y-206907733D02*
X198062000Y-207200267D01*
%TO.C,J102*%
X216390500Y-92488000D02*
X216390500Y-118588000D01*
X216390500Y-118588000D02*
X222830500Y-118588000D01*
X216910500Y-92488000D02*
X216910500Y-118588000D01*
X222210500Y-92488000D02*
X222210500Y-118588000D01*
X222830500Y-92488000D02*
X216390500Y-92488000D01*
X222830500Y-93808000D02*
X222830500Y-92488000D01*
X222830500Y-118588000D02*
X222830500Y-94408000D01*
X223440500Y-94548000D02*
X222830500Y-94108000D01*
X223440500Y-93668000D01*
X223440500Y-94548000D01*
G36*
X223440500Y-94548000D02*
G01*
X222830500Y-94108000D01*
X223440500Y-93668000D01*
X223440500Y-94548000D01*
G37*
%TO.C,C611*%
X184236267Y-142790000D02*
X183943733Y-142790000D01*
X184236267Y-143810000D02*
X183943733Y-143810000D01*
%TO.C,R615*%
X154118724Y-113313500D02*
X153609276Y-113313500D01*
X154118724Y-114358500D02*
X153609276Y-114358500D01*
%TO.C,C304*%
X179008000Y-224687733D02*
X179008000Y-224980267D01*
X180028000Y-224687733D02*
X180028000Y-224980267D01*
%TO.C,C402*%
X198820000Y-208939733D02*
X198820000Y-209232267D01*
X199840000Y-208939733D02*
X199840000Y-209232267D01*
%TO.C,C710*%
X174944000Y-100227733D02*
X174944000Y-100520267D01*
X175964000Y-100227733D02*
X175964000Y-100520267D01*
%TO.C,U608*%
X140320500Y-100676000D02*
X139520500Y-100676000D01*
X140320500Y-100676000D02*
X141120500Y-100676000D01*
X140320500Y-103796000D02*
X139520500Y-103796000D01*
X140320500Y-103796000D02*
X141120500Y-103796000D01*
X141620500Y-100726000D02*
X141380500Y-100396000D01*
X141860500Y-100396000D01*
X141620500Y-100726000D01*
G36*
X141620500Y-100726000D02*
G01*
X141380500Y-100396000D01*
X141860500Y-100396000D01*
X141620500Y-100726000D01*
G37*
%TO.C,C608*%
X184236267Y-136186000D02*
X183943733Y-136186000D01*
X184236267Y-137206000D02*
X183943733Y-137206000D01*
%TO.C,C609*%
X181040000Y-132485733D02*
X181040000Y-132778267D01*
X182060000Y-132485733D02*
X182060000Y-132778267D01*
D13*
%TO.C,U601*%
X149515000Y-95418000D02*
X145615000Y-95418000D01*
X149515000Y-100418000D02*
X145615000Y-100418000D01*
D14*
X151960000Y-95558000D02*
G75*
G02*
X151760000Y-95558000I-100000J0D01*
G01*
X151760000Y-95558000D02*
G75*
G02*
X151960000Y-95558000I100000J0D01*
G01*
D12*
%TO.C,U607*%
X203330500Y-94386000D02*
X203330500Y-94666000D01*
X203330500Y-105006000D02*
X203330500Y-104726000D01*
X205640500Y-94386000D02*
X203330500Y-94386000D01*
X205640500Y-94386000D02*
X207950500Y-94386000D01*
X205640500Y-105006000D02*
X203330500Y-105006000D01*
X205640500Y-105006000D02*
X207950500Y-105006000D01*
X207950500Y-94386000D02*
X207950500Y-94666000D01*
X207950500Y-105006000D02*
X207950500Y-104726000D01*
X208740500Y-94666000D02*
X208500500Y-94336000D01*
X208980500Y-94336000D01*
X208740500Y-94666000D01*
G36*
X208740500Y-94666000D02*
G01*
X208500500Y-94336000D01*
X208980500Y-94336000D01*
X208740500Y-94666000D01*
G37*
%TO.C,C711*%
X176722000Y-100227733D02*
X176722000Y-100520267D01*
X177742000Y-100227733D02*
X177742000Y-100520267D01*
%TO.C,C709*%
X173166000Y-100227733D02*
X173166000Y-100520267D01*
X174186000Y-100227733D02*
X174186000Y-100520267D01*
%TO.C,R405*%
X191441500Y-202631776D02*
X191441500Y-203141224D01*
X192486500Y-202631776D02*
X192486500Y-203141224D01*
%TO.C,R617*%
X197498000Y-116228776D02*
X197498000Y-116738224D01*
X198543000Y-116228776D02*
X198543000Y-116738224D01*
%TO.C,R623*%
X193210000Y-94466224D02*
X193210000Y-93956776D01*
X194255000Y-94466224D02*
X194255000Y-93956776D01*
%TO.C,R618*%
X195466000Y-116228776D02*
X195466000Y-116738224D01*
X196511000Y-116228776D02*
X196511000Y-116738224D01*
%TO.C,J101*%
X125549000Y-92488000D02*
X125549000Y-116668000D01*
X125549000Y-117268000D02*
X125549000Y-118588000D01*
X125549000Y-118588000D02*
X131989000Y-118588000D01*
X126169000Y-118588000D02*
X126169000Y-92488000D01*
X131469000Y-118588000D02*
X131469000Y-92488000D01*
X131989000Y-92488000D02*
X125549000Y-92488000D01*
X131989000Y-118588000D02*
X131989000Y-92488000D01*
X125549000Y-116968000D02*
X124939000Y-117408000D01*
X124939000Y-116528000D01*
X125549000Y-116968000D01*
G36*
X125549000Y-116968000D02*
G01*
X124939000Y-117408000D01*
X124939000Y-116528000D01*
X125549000Y-116968000D01*
G37*
%TO.C,R621*%
X197274000Y-94466224D02*
X197274000Y-93956776D01*
X198319000Y-94466224D02*
X198319000Y-93956776D01*
%TO.C,C301*%
X182310000Y-228536267D02*
X182310000Y-228243733D01*
X183330000Y-228536267D02*
X183330000Y-228243733D01*
%TO.C,C607*%
X164424267Y-149140000D02*
X164131733Y-149140000D01*
X164424267Y-150160000D02*
X164131733Y-150160000D01*
%TO.C,R404*%
X191441500Y-206799276D02*
X191441500Y-207308724D01*
X192486500Y-206799276D02*
X192486500Y-207308724D01*
%TO.C,C618*%
X164131733Y-151172000D02*
X164424267Y-151172000D01*
X164131733Y-152192000D02*
X164424267Y-152192000D01*
%TD*%
M02*
