%TF.GenerationSoftware,KiCad,Pcbnew,9.0.3*%
%TF.CreationDate,2025-10-28T10:03:49+01:00*%
%TF.ProjectId,PCB_Tarjeta_DevOps,5043425f-5461-4726-9a65-74615f446576,rev?*%
%TF.SameCoordinates,Original*%
%TF.FileFunction,Paste,Bot*%
%TF.FilePolarity,Positive*%
%FSLAX46Y46*%
G04 Gerber Fmt 4.6, Leading zero omitted, Abs format (unit mm)*
G04 Created by KiCad (PCBNEW 9.0.3) date 2025-10-28 10:03:49*
%MOMM*%
%LPD*%
G01*
G04 APERTURE LIST*
G04 Aperture macros list*
%AMRoundRect*
0 Rectangle with rounded corners*
0 $1 Rounding radius*
0 $2 $3 $4 $5 $6 $7 $8 $9 X,Y pos of 4 corners*
0 Add a 4 corners polygon primitive as box body*
4,1,4,$2,$3,$4,$5,$6,$7,$8,$9,$2,$3,0*
0 Add four circle primitives for the rounded corners*
1,1,$1+$1,$2,$3*
1,1,$1+$1,$4,$5*
1,1,$1+$1,$6,$7*
1,1,$1+$1,$8,$9*
0 Add four rect primitives between the rounded corners*
20,1,$1+$1,$2,$3,$4,$5,0*
20,1,$1+$1,$4,$5,$6,$7,0*
20,1,$1+$1,$6,$7,$8,$9,0*
20,1,$1+$1,$8,$9,$2,$3,0*%
G04 Aperture macros list end*
%ADD10C,0.010000*%
%ADD11RoundRect,0.237500X-0.300000X-0.237500X0.300000X-0.237500X0.300000X0.237500X-0.300000X0.237500X0*%
%ADD12RoundRect,0.237500X0.237500X-0.300000X0.237500X0.300000X-0.237500X0.300000X-0.237500X-0.300000X0*%
%ADD13RoundRect,0.237500X0.250000X0.237500X-0.250000X0.237500X-0.250000X-0.237500X0.250000X-0.237500X0*%
%ADD14RoundRect,0.150000X0.512500X0.150000X-0.512500X0.150000X-0.512500X-0.150000X0.512500X-0.150000X0*%
%ADD15RoundRect,0.237500X-0.237500X0.300000X-0.237500X-0.300000X0.237500X-0.300000X0.237500X0.300000X0*%
%ADD16RoundRect,0.162500X0.750000X0.162500X-0.750000X0.162500X-0.750000X-0.162500X0.750000X-0.162500X0*%
%ADD17RoundRect,0.051250X0.788750X0.153750X-0.788750X0.153750X-0.788750X-0.153750X0.788750X-0.153750X0*%
%ADD18RoundRect,0.237500X-0.250000X-0.237500X0.250000X-0.237500X0.250000X0.237500X-0.250000X0.237500X0*%
%ADD19RoundRect,0.237500X0.237500X-0.250000X0.237500X0.250000X-0.237500X0.250000X-0.237500X-0.250000X0*%
%ADD20RoundRect,0.237500X0.300000X0.237500X-0.300000X0.237500X-0.300000X-0.237500X0.300000X-0.237500X0*%
%ADD21RoundRect,0.237500X-0.237500X0.250000X-0.237500X-0.250000X0.237500X-0.250000X0.237500X0.250000X0*%
G04 APERTURE END LIST*
D10*
%TO.C,U602*%
X148403000Y-114423000D02*
X146727000Y-114423000D01*
X146727000Y-111893000D01*
X148403000Y-111893000D01*
X148403000Y-114423000D01*
G36*
X148403000Y-114423000D02*
G01*
X146727000Y-114423000D01*
X146727000Y-111893000D01*
X148403000Y-111893000D01*
X148403000Y-114423000D01*
G37*
%TO.C,U601*%
X148403000Y-99183000D02*
X146727000Y-99183000D01*
X146727000Y-96653000D01*
X148403000Y-96653000D01*
X148403000Y-99183000D01*
G36*
X148403000Y-99183000D02*
G01*
X146727000Y-99183000D01*
X146727000Y-96653000D01*
X148403000Y-96653000D01*
X148403000Y-99183000D01*
G37*
%TD*%
D11*
%TO.C,C621*%
X183227500Y-134918000D03*
X184952500Y-134918000D03*
%TD*%
D12*
%TO.C,C606*%
X166310000Y-133494500D03*
X166310000Y-131769500D03*
%TD*%
D13*
%TO.C,R603*%
X154522500Y-98596000D03*
X152697500Y-98596000D03*
%TD*%
D11*
%TO.C,C601*%
X163415500Y-145078000D03*
X165140500Y-145078000D03*
%TD*%
D14*
%TO.C,U609*%
X141458000Y-107890000D03*
X141458000Y-108840000D03*
X141458000Y-109790000D03*
X139183000Y-109790000D03*
X139183000Y-108840000D03*
X139183000Y-107890000D03*
%TD*%
D15*
%TO.C,C708*%
X171898000Y-99511500D03*
X171898000Y-101236500D03*
%TD*%
D12*
%TO.C,C613*%
X181804000Y-153306500D03*
X181804000Y-151581500D03*
%TD*%
D15*
%TO.C,C707*%
X170120000Y-99511500D03*
X170120000Y-101236500D03*
%TD*%
%TO.C,C202*%
X154378000Y-223541500D03*
X154378000Y-225266500D03*
%TD*%
D16*
%TO.C,U606*%
X208728000Y-107951000D03*
X208728000Y-109221000D03*
X208728000Y-110491000D03*
X208728000Y-111761000D03*
X208728000Y-113031000D03*
X208728000Y-114301000D03*
X208728000Y-115571000D03*
X208728000Y-116841000D03*
X202553000Y-116841000D03*
X202553000Y-115571000D03*
X202553000Y-114301000D03*
X202553000Y-113031000D03*
X202553000Y-111761000D03*
X202553000Y-110491000D03*
X202553000Y-109221000D03*
X202553000Y-107951000D03*
%TD*%
D17*
%TO.C,U602*%
X150180000Y-111208000D03*
X150180000Y-111858000D03*
X150180000Y-112508000D03*
X150180000Y-113158000D03*
X150180000Y-113808000D03*
X150180000Y-114458000D03*
X150180000Y-115108000D03*
X144950000Y-115108000D03*
X144950000Y-114458000D03*
X144950000Y-113808000D03*
X144950000Y-113158000D03*
X144950000Y-112508000D03*
X144950000Y-111858000D03*
X144950000Y-111208000D03*
%TD*%
D15*
%TO.C,C610*%
X175200000Y-131769500D03*
X175200000Y-133494500D03*
%TD*%
D12*
%TO.C,C619*%
X171898000Y-153153000D03*
X171898000Y-151428000D03*
%TD*%
D15*
%TO.C,C406*%
X195266000Y-206191500D03*
X195266000Y-207916500D03*
%TD*%
%TO.C,C612*%
X170120000Y-131769500D03*
X170120000Y-133494500D03*
%TD*%
D18*
%TO.C,R614*%
X150584000Y-109348000D03*
X152409000Y-109348000D03*
%TD*%
D11*
%TO.C,C617*%
X163415500Y-139744000D03*
X165140500Y-139744000D03*
%TD*%
%TO.C,C201*%
X153769500Y-228976000D03*
X155494500Y-228976000D03*
%TD*%
D19*
%TO.C,R620*%
X199798500Y-95124000D03*
X199798500Y-93299000D03*
%TD*%
D12*
%TO.C,C403*%
X197552000Y-214520500D03*
X197552000Y-212795500D03*
%TD*%
D19*
%TO.C,R622*%
X195764500Y-95124000D03*
X195764500Y-93299000D03*
%TD*%
D20*
%TO.C,C620*%
X184952500Y-155746000D03*
X183227500Y-155746000D03*
%TD*%
D12*
%TO.C,C615*%
X176724000Y-153306500D03*
X176724000Y-151581500D03*
%TD*%
D18*
%TO.C,R602*%
X150584000Y-94108000D03*
X152409000Y-94108000D03*
%TD*%
D12*
%TO.C,C614*%
X183328000Y-153306500D03*
X183328000Y-151581500D03*
%TD*%
D11*
%TO.C,C604*%
X183227500Y-148888000D03*
X184952500Y-148888000D03*
%TD*%
D21*
%TO.C,R619*%
X193956500Y-115571000D03*
X193956500Y-117396000D03*
%TD*%
%TO.C,R616*%
X200052500Y-115571000D03*
X200052500Y-117396000D03*
%TD*%
D12*
%TO.C,C706*%
X180788000Y-94378500D03*
X180788000Y-92653500D03*
%TD*%
D15*
%TO.C,C616*%
X164532000Y-131769500D03*
X164532000Y-133494500D03*
%TD*%
D13*
%TO.C,R108*%
X165190500Y-76752000D03*
X163365500Y-76752000D03*
%TD*%
D11*
%TO.C,C404*%
X191101500Y-212642000D03*
X192826500Y-212642000D03*
%TD*%
D18*
%TO.C,R109*%
X180129500Y-74466000D03*
X181954500Y-74466000D03*
%TD*%
D15*
%TO.C,C401*%
X197552000Y-206191500D03*
X197552000Y-207916500D03*
%TD*%
D20*
%TO.C,C611*%
X184952500Y-143300000D03*
X183227500Y-143300000D03*
%TD*%
D13*
%TO.C,R615*%
X154776500Y-113836000D03*
X152951500Y-113836000D03*
%TD*%
D15*
%TO.C,C304*%
X179518000Y-223971500D03*
X179518000Y-225696500D03*
%TD*%
%TO.C,C402*%
X199330000Y-208223500D03*
X199330000Y-209948500D03*
%TD*%
%TO.C,C710*%
X175454000Y-99511500D03*
X175454000Y-101236500D03*
%TD*%
D14*
%TO.C,U608*%
X141458000Y-101286000D03*
X141458000Y-102236000D03*
X141458000Y-103186000D03*
X139183000Y-103186000D03*
X139183000Y-102236000D03*
X139183000Y-101286000D03*
%TD*%
D20*
%TO.C,C608*%
X184952500Y-136696000D03*
X183227500Y-136696000D03*
%TD*%
D15*
%TO.C,C609*%
X181550000Y-131769500D03*
X181550000Y-133494500D03*
%TD*%
D17*
%TO.C,U601*%
X150180000Y-95968000D03*
X150180000Y-96618000D03*
X150180000Y-97268000D03*
X150180000Y-97918000D03*
X150180000Y-98568000D03*
X150180000Y-99218000D03*
X150180000Y-99868000D03*
X144950000Y-99868000D03*
X144950000Y-99218000D03*
X144950000Y-98568000D03*
X144950000Y-97918000D03*
X144950000Y-97268000D03*
X144950000Y-96618000D03*
X144950000Y-95968000D03*
%TD*%
D16*
%TO.C,U607*%
X208728000Y-95251000D03*
X208728000Y-96521000D03*
X208728000Y-97791000D03*
X208728000Y-99061000D03*
X208728000Y-100331000D03*
X208728000Y-101601000D03*
X208728000Y-102871000D03*
X208728000Y-104141000D03*
X202553000Y-104141000D03*
X202553000Y-102871000D03*
X202553000Y-101601000D03*
X202553000Y-100331000D03*
X202553000Y-99061000D03*
X202553000Y-97791000D03*
X202553000Y-96521000D03*
X202553000Y-95251000D03*
%TD*%
D15*
%TO.C,C711*%
X177232000Y-99511500D03*
X177232000Y-101236500D03*
%TD*%
%TO.C,C709*%
X173676000Y-99511500D03*
X173676000Y-101236500D03*
%TD*%
D21*
%TO.C,R405*%
X191964000Y-201974000D03*
X191964000Y-203799000D03*
%TD*%
%TO.C,R617*%
X198020500Y-115571000D03*
X198020500Y-117396000D03*
%TD*%
D19*
%TO.C,R623*%
X193732500Y-95124000D03*
X193732500Y-93299000D03*
%TD*%
D21*
%TO.C,R618*%
X195988500Y-115571000D03*
X195988500Y-117396000D03*
%TD*%
D19*
%TO.C,R621*%
X197796500Y-95124000D03*
X197796500Y-93299000D03*
%TD*%
D12*
%TO.C,C301*%
X182820000Y-229252500D03*
X182820000Y-227527500D03*
%TD*%
D20*
%TO.C,C607*%
X165140500Y-149650000D03*
X163415500Y-149650000D03*
%TD*%
D21*
%TO.C,R404*%
X191964000Y-206141500D03*
X191964000Y-207966500D03*
%TD*%
D11*
%TO.C,C618*%
X163415500Y-151682000D03*
X165140500Y-151682000D03*
%TD*%
M02*
